<?xml version="1.0" encoding="UTF-8" standalone="no"?><svg xmlns="http://www.w3.org/2000/svg" xmlns:xlink="http://www.w3.org/1999/xlink" contentScriptType="application/ecmascript" contentStyleType="text/css" height="379.2px" preserveAspectRatio="none" style="width:349px;height:379px;background:#FFFFFF;" version="1.1" viewBox="0 0 349 379" width="349.2px" zoomAndPan="magnify"><defs><filter height="300%" id="fvmobm5jl0nnk" width="300%" x="-1" y="-1"><feGaussianBlur result="blurOut" stdDeviation="2.4"/><feColorMatrix in="blurOut" result="blurOut2" type="matrix" values="0 0 0 0 0 0 0 0 0 0 0 0 0 0 0 0 0 0 .4 0"/><feOffset dx="4.8" dy="4.8" in="blurOut2" result="blurOut3"/><feBlend in="SourceGraphic" in2="blurOut3" mode="normal"/></filter></defs><g><rect fill="#FFFFFF" filter="url(#fvmobm5jl0nnk)" height="136.0875" style="stroke:#A80036;stroke-width:1.2;" width="12" x="61.2" y="119.5313"/><rect fill="#FFFFFF" filter="url(#fvmobm5jl0nnk)" height="36.4219" style="stroke:#A80036;stroke-width:1.2;" width="12" x="292.8" y="146.3531"/><rect fill="#FFFFFF" filter="url(#fvmobm5jl0nnk)" height="36.4219" style="stroke:#A80036;stroke-width:1.2;" width="12" x="292.8" y="219.1969"/><line style="stroke:#A80036;stroke-width:1.2;stroke-dasharray:5.0,5.0;" x1="67.2" x2="67.2" y1="107.5313" y2="277.2188"/><line style="stroke:#A80036;stroke-width:1.2;stroke-dasharray:5.0,5.0;" x1="298.8" x2="298.8" y1="107.5313" y2="277.2188"/><text fill="#000000" font-family="sans-serif" font-size="16.8" lengthAdjust="spacing" textLength="115.2" x="6" y="103.8398">TrafficManager</text><ellipse cx="67.2" cy="18" fill="#FEFECE" filter="url(#fvmobm5jl0nnk)" rx="9.6" ry="9.6" style="stroke:#A80036;stroke-width:2.4;"/><path d="M67.2,27.6 L67.2,60 M51.6,37.2 L82.8,37.2 M67.2,60 L51.6,78 M67.2,60 L82.8,78 " fill="none" filter="url(#fvmobm5jl0nnk)" style="stroke:#A80036;stroke-width:2.4;"/><text fill="#000000" font-family="sans-serif" font-size="16.8" lengthAdjust="spacing" textLength="115.2" x="6" y="293.4586">TrafficManager</text><ellipse cx="67.2" cy="309.15" fill="#FEFECE" filter="url(#fvmobm5jl0nnk)" rx="9.6" ry="9.6" style="stroke:#A80036;stroke-width:2.4;"/><path d="M67.2,318.75 L67.2,351.15 M51.6,328.35 L82.8,328.35 M67.2,351.15 L51.6,369.15 M67.2,351.15 L82.8,369.15 " fill="none" filter="url(#fvmobm5jl0nnk)" style="stroke:#A80036;stroke-width:2.4;"/><rect fill="#FEFECE" filter="url(#fvmobm5jl0nnk)" height="37.9313" style="stroke:#A80036;stroke-width:1.7999999999999998;" width="72" x="260.4" y="63.6"/><text fill="#000000" font-family="sans-serif" font-size="16.8" lengthAdjust="spacing" textLength="55.2" x="268.8" y="89.4398">System</text><rect fill="#FEFECE" filter="url(#fvmobm5jl0nnk)" height="37.9313" style="stroke:#A80036;stroke-width:1.7999999999999998;" width="72" x="260.4" y="276.0188"/><text fill="#000000" font-family="sans-serif" font-size="16.8" lengthAdjust="spacing" textLength="55.2" x="268.8" y="301.8586">System</text><rect fill="#FFFFFF" filter="url(#fvmobm5jl0nnk)" height="136.0875" style="stroke:#A80036;stroke-width:1.2;" width="12" x="61.2" y="119.5313"/><rect fill="#FFFFFF" filter="url(#fvmobm5jl0nnk)" height="36.4219" style="stroke:#A80036;stroke-width:1.2;" width="12" x="292.8" y="146.3531"/><rect fill="#FFFFFF" filter="url(#fvmobm5jl0nnk)" height="36.4219" style="stroke:#A80036;stroke-width:1.2;" width="12" x="292.8" y="219.1969"/><polygon fill="#A80036" points="278.4,141.5531,290.4,146.3531,278.4,151.1531,283.2,146.3531" style="stroke:#A80036;stroke-width:1.2;"/><line style="stroke:#A80036;stroke-width:1.2;" x1="73.2" x2="285.6" y1="146.3531" y2="146.3531"/><text fill="#000000" font-family="sans-serif" font-size="15.6" lengthAdjust="spacing" textLength="196.8" x="81.6" y="140.5254">asks for the TopN Ship pairs</text><polygon fill="#A80036" points="86.4,177.975,74.4,182.775,86.4,187.575,81.6,182.775" style="stroke:#A80036;stroke-width:1.2;"/><line style="stroke:#A80036;stroke-width:1.2;stroke-dasharray:2.0,2.0;" x1="79.2" x2="297.6" y1="182.775" y2="182.775"/><text fill="#000000" font-family="sans-serif" font-size="15.6" lengthAdjust="spacing" textLength="171.6" x="93.6" y="176.9473">asks the number of pairs</text><polygon fill="#A80036" points="278.4,214.3969,290.4,219.1969,278.4,223.9969,283.2,219.1969" style="stroke:#A80036;stroke-width:1.2;"/><line style="stroke:#A80036;stroke-width:1.2;" x1="73.2" x2="285.6" y1="219.1969" y2="219.1969"/><text fill="#000000" font-family="sans-serif" font-size="15.6" lengthAdjust="spacing" textLength="184.8" x="81.6" y="213.3691">inserts the number of pairs</text><polygon fill="#A80036" points="80.4,250.8188,68.4,255.6187,80.4,260.4188,75.6,255.6187" style="stroke:#A80036;stroke-width:1.2;"/><line style="stroke:#A80036;stroke-width:1.2;stroke-dasharray:2.0,2.0;" x1="73.2" x2="297.6" y1="255.6187" y2="255.6187"/><text fill="#000000" font-family="sans-serif" font-size="15.6" lengthAdjust="spacing" textLength="112.8" x="87.6" y="249.791">returns the pairs</text><!--MD5=[c018b985e758b8069c802274ada5b324]
@startuml
actor TrafficManager
participant System

activate TrafficManager
TrafficManager -> System: asks for the TopN Ship pairs
activate System
System - -> TrafficManager: asks the number of pairs
deactivate System

TrafficManager -> System: inserts the number of pairs
activate System
System - -> TrafficManager: returns the pairs
deactivate System

deactivate TrafficManager
@enduml

PlantUML version 1.2021.11(Sat Oct 02 14:26:11 BST 2021)
(GPL source distribution)
Java Runtime: OpenJDK Runtime Environment
JVM: OpenJDK 64-Bit Server VM
Default Encoding: Cp1252
Language: pt
Country: PT
--></g></svg>