<?xml version="1.0" encoding="UTF-8" standalone="no"?><svg xmlns="http://www.w3.org/2000/svg" xmlns:xlink="http://www.w3.org/1999/xlink" contentScriptType="application/ecmascript" contentStyleType="text/css" height="127.5px" preserveAspectRatio="none" style="width:128px;height:127px;background:#FFFFFF;" version="1.1" viewBox="0 0 128 127" width="128.5px" zoomAndPan="magnify"><defs><filter height="300%" id="f1nny7nnatlt92" width="300%" x="-1" y="-1"><feGaussianBlur result="blurOut" stdDeviation="1.0"/><feColorMatrix in="blurOut" result="blurOut2" type="matrix" values="0 0 0 0 0 0 0 0 0 0 0 0 0 0 0 0 0 0 .4 0"/><feOffset dx="2.0" dy="2.0" in="blurOut2" result="blurOut3"/><feBlend in="SourceGraphic" in2="blurOut3" mode="normal"/></filter></defs><g><rect fill="#FFFFFF" filter="url(#f1nny7nnatlt92)" height="26.3516" style="stroke:#A80036;stroke-width:0.5;" width="5" x="25.5" y="49.8047"/><rect fill="#FFFFFF" filter="url(#f1nny7nnatlt92)" height="15.1758" style="stroke:#A80036;stroke-width:0.5;" width="5" x="105" y="60.9805"/><line style="stroke:#A80036;stroke-width:0.5;stroke-dasharray:5.0,5.0;" x1="28" x2="28" y1="44.8047" y2="85.1563"/><line style="stroke:#A80036;stroke-width:0.5;stroke-dasharray:5.0,5.0;" x1="107.5" x2="107.5" y1="44.8047" y2="85.1563"/><text fill="#000000" font-family="sans-serif" font-size="7" lengthAdjust="spacing" textLength="48" x="2.5" y="43.2666">TrafficManager</text><ellipse cx="28" cy="7.5" fill="#FEFECE" filter="url(#f1nny7nnatlt92)" rx="4" ry="4" style="stroke:#A80036;stroke-width:1.0;"/><path d="M28,11.5 L28,25 M21.5,15.5 L34.5,15.5 M28,25 L21.5,32.5 M28,25 L34.5,32.5 " fill="none" filter="url(#f1nny7nnatlt92)" style="stroke:#A80036;stroke-width:1.0;"/><text fill="#000000" font-family="sans-serif" font-size="7" lengthAdjust="spacing" textLength="48" x="2.5" y="91.9229">TrafficManager</text><ellipse cx="28" cy="98.4609" fill="#FEFECE" filter="url(#f1nny7nnatlt92)" rx="4" ry="4" style="stroke:#A80036;stroke-width:1.0;"/><path d="M28,102.4609 L28,115.9609 M21.5,106.4609 L34.5,106.4609 M28,115.9609 L21.5,123.4609 M28,115.9609 L34.5,123.4609 " fill="none" filter="url(#f1nny7nnatlt92)" style="stroke:#A80036;stroke-width:1.0;"/><rect fill="#FEFECE" filter="url(#f1nny7nnatlt92)" height="15.8047" style="stroke:#A80036;stroke-width:0.75;" width="30" x="91.5" y="26.5"/><text fill="#000000" font-family="sans-serif" font-size="7" lengthAdjust="spacing" textLength="23" x="95" y="37.2666">System</text><rect fill="#FEFECE" filter="url(#f1nny7nnatlt92)" height="15.8047" style="stroke:#A80036;stroke-width:0.75;" width="30" x="91.5" y="84.6563"/><text fill="#000000" font-family="sans-serif" font-size="7" lengthAdjust="spacing" textLength="23" x="95" y="95.4229">System</text><rect fill="#FFFFFF" filter="url(#f1nny7nnatlt92)" height="26.3516" style="stroke:#A80036;stroke-width:0.5;" width="5" x="25.5" y="49.8047"/><rect fill="#FFFFFF" filter="url(#f1nny7nnatlt92)" height="15.1758" style="stroke:#A80036;stroke-width:0.5;" width="5" x="105" y="60.9805"/><polygon fill="#A80036" points="99,58.9805,104,60.9805,99,62.9805,101,60.9805" style="stroke:#A80036;stroke-width:0.5;"/><line style="stroke:#A80036;stroke-width:0.5;" x1="30.5" x2="102" y1="60.9805" y2="60.9805"/><text fill="#000000" font-family="sans-serif" font-size="6.5" lengthAdjust="spacing" textLength="65" x="34" y="58.5522">asks for the Ship pairs</text><polygon fill="#A80036" points="33.5,74.1563,28.5,76.1563,33.5,78.1563,31.5,76.1563" style="stroke:#A80036;stroke-width:0.5;"/><line style="stroke:#A80036;stroke-width:0.5;stroke-dasharray:2.0,2.0;" x1="30.5" x2="107" y1="76.1563" y2="76.1563"/><text fill="#000000" font-family="sans-serif" font-size="6.5" lengthAdjust="spacing" textLength="61" x="36.5" y="73.728">returns the ship pairs</text><!--MD5=[7c98c66f11ba5e2022b80ebcbb736356]
@startuml
actor TrafficManager
participant System

activate TrafficManager
TrafficManager -> System: asks for the Ship pairs
activate System
System - -> TrafficManager: returns the ship pairs
deactivate System



deactivate TrafficManager
@enduml

PlantUML version 1.2021.11(Sat Oct 02 14:26:11 BST 2021)
(GPL source distribution)
Java Runtime: OpenJDK Runtime Environment
JVM: OpenJDK 64-Bit Server VM
Default Encoding: Cp1252
Language: pt
Country: PT
--></g></svg>