<?xml version="1.0" encoding="UTF-8" standalone="no"?><svg xmlns="http://www.w3.org/2000/svg" xmlns:xlink="http://www.w3.org/1999/xlink" contentScriptType="application/ecmascript" contentStyleType="text/css" height="340px" preserveAspectRatio="none" style="width:312px;height:340px;background:#FFFFFF;" version="1.1" viewBox="0 0 312 340" width="312px" zoomAndPan="magnify"><defs><filter height="300%" id="f1ny1oesw6q1z0" width="300%" x="-1" y="-1"><feGaussianBlur result="blurOut" stdDeviation="2.0"/><feColorMatrix in="blurOut" result="blurOut2" type="matrix" values="0 0 0 0 0 0 0 0 0 0 0 0 0 0 0 0 0 0 .4 0"/><feOffset dx="4.0" dy="4.0" in="blurOut2" result="blurOut3"/><feBlend in="SourceGraphic" in2="blurOut3" mode="normal"/></filter></defs><g><!--MD5=[6a0fa3b2d93f16eb6445b281880e1b09]
class TopPairsUI--><rect codeLine="1" fill="#FEFECE" filter="url(#f1ny1oesw6q1z0)" height="61.8359" id="TopPairsUI" style="stroke:#A80036;stroke-width:1.5;" width="94" x="89" y="7"/><ellipse cx="104" cy="23" fill="#ADD1B2" rx="11" ry="11" style="stroke:#A80036;stroke-width:1.0;"/><path d="M106,19.5 Q106.2031,19 106.4375,18.75 Q106.6719,18.5 106.9375,18.5 Q107.4063,18.5 107.7031,18.7813 Q108,19.0625 108,19.7188 L108,21.2813 Q108,21.9375 107.7188,22.2188 Q107.4375,22.5 107,22.5 Q106.6094,22.5 106.3594,22.3281 Q106.1094,22.1563 106,21.7031 Q105.9531,21.3906 105.7813,21.2188 Q105.4688,20.8906 104.9063,20.7031 Q104.3438,20.5 103.7813,20.5 Q103.0781,20.5 102.4844,20.7813 Q101.9063,21.0625 101.4531,21.6875 Q101,22.3125 101,23.1719 L101,24.0938 Q101,25.125 101.8438,25.8125 Q102.6875,26.5 104.1875,26.5 Q105.0781,26.5 105.7031,26.2969 Q106.0625,26.1875 106.4688,25.8281 Q106.7344,25.625 106.875,25.5625 Q107.0156,25.5 107.1875,25.5 Q107.5156,25.5 107.75,25.7656 Q108,26.0156 108,26.375 Q108,26.7188 107.6563,27.125 Q107.1563,27.7188 106.3594,28.0469 Q105.3125,28.5 104.0313,28.5 Q102.5313,28.5 101.3281,27.9063 Q100.3594,27.4375 99.6719,26.4219 Q99,25.4063 99,24.2031 L99,23.1094 Q99,21.8594 99.5938,20.7656 Q100.2031,19.6719 101.25,19.0938 Q102.3125,18.5 103.5,18.5 Q104.2188,18.5 104.8438,18.75 Q105.4688,19 106,19.5 Z " fill="#000000"/><text fill="#000000" font-family="sans-serif" font-size="12" lengthAdjust="spacing" textLength="62" x="118" y="27.9102">TopPairsUI</text><line style="stroke:#A80036;stroke-width:1.5;" x1="90" x2="182" y1="39" y2="39"/><line style="stroke:#A80036;stroke-width:1.5;" x1="90" x2="182" y1="47" y2="47"/><ellipse cx="100" cy="58" fill="#84BE84" rx="3" ry="3" style="stroke:#038048;stroke-width:1.0;"/><text fill="#000000" font-family="sans-serif" font-size="11" lengthAdjust="spacing" textLength="24" x="109" y="62.4189">run()</text><!--MD5=[02e4b9b7573f1156f41e60aa5b4e25a4]
class Company--><rect codeLine="5" fill="#FEFECE" filter="url(#f1ny1oesw6q1z0)" height="75.6719" id="Company" style="stroke:#A80036;stroke-width:1.5;" width="96" x="7" y="251"/><ellipse cx="26.95" cy="267" fill="#ADD1B2" rx="11" ry="11" style="stroke:#A80036;stroke-width:1.0;"/><path d="M28.95,263.5 Q29.1531,263 29.3875,262.75 Q29.6219,262.5 29.8875,262.5 Q30.3563,262.5 30.6531,262.7813 Q30.95,263.0625 30.95,263.7188 L30.95,265.2813 Q30.95,265.9375 30.6688,266.2188 Q30.3875,266.5 29.95,266.5 Q29.5594,266.5 29.3094,266.3281 Q29.0594,266.1563 28.95,265.7031 Q28.9031,265.3906 28.7313,265.2188 Q28.4188,264.8906 27.8563,264.7031 Q27.2938,264.5 26.7313,264.5 Q26.0281,264.5 25.4344,264.7813 Q24.8563,265.0625 24.4031,265.6875 Q23.95,266.3125 23.95,267.1719 L23.95,268.0938 Q23.95,269.125 24.7938,269.8125 Q25.6375,270.5 27.1375,270.5 Q28.0281,270.5 28.6531,270.2969 Q29.0125,270.1875 29.4188,269.8281 Q29.6844,269.625 29.825,269.5625 Q29.9656,269.5 30.1375,269.5 Q30.4656,269.5 30.7,269.7656 Q30.95,270.0156 30.95,270.375 Q30.95,270.7188 30.6063,271.125 Q30.1063,271.7188 29.3094,272.0469 Q28.2625,272.5 26.9813,272.5 Q25.4813,272.5 24.2781,271.9063 Q23.3094,271.4375 22.6219,270.4219 Q21.95,269.4063 21.95,268.2031 L21.95,267.1094 Q21.95,265.8594 22.5438,264.7656 Q23.1531,263.6719 24.2,263.0938 Q25.2625,262.5 26.45,262.5 Q27.1688,262.5 27.7938,262.75 Q28.4188,263 28.95,263.5 Z " fill="#000000"/><text fill="#000000" font-family="sans-serif" font-size="12" lengthAdjust="spacing" textLength="53" x="42.05" y="271.9102">Company</text><line style="stroke:#A80036;stroke-width:1.5;" x1="8" x2="102" y1="283" y2="283"/><rect fill="none" height="6" style="stroke:#C82930;stroke-width:1.0;" width="6" x="15" y="291"/><text fill="#000000" font-family="sans-serif" font-size="11" lengthAdjust="spacing" textLength="47" x="27" y="298.4189">ShipStore</text><line style="stroke:#A80036;stroke-width:1.5;" x1="8" x2="102" y1="304.8359" y2="304.8359"/><ellipse cx="18" cy="315.8359" fill="#84BE84" rx="3" ry="3" style="stroke:#038048;stroke-width:1.0;"/><text fill="#000000" font-family="sans-serif" font-size="11" lengthAdjust="spacing" textLength="70" x="27" y="320.2549">getShipStore()</text><!--MD5=[62e91d910c3edcac80cd111880dc1e2e]
class TopPairsController--><rect codeLine="10" fill="#FEFECE" filter="url(#f1ny1oesw6q1z0)" height="61.8359" id="TopPairsController" style="stroke:#A80036;stroke-width:1.5;" width="136" x="68" y="129"/><ellipse cx="83" cy="145" fill="#ADD1B2" rx="11" ry="11" style="stroke:#A80036;stroke-width:1.0;"/><path d="M85,141.5 Q85.2031,141 85.4375,140.75 Q85.6719,140.5 85.9375,140.5 Q86.4063,140.5 86.7031,140.7813 Q87,141.0625 87,141.7188 L87,143.2813 Q87,143.9375 86.7188,144.2188 Q86.4375,144.5 86,144.5 Q85.6094,144.5 85.3594,144.3281 Q85.1094,144.1563 85,143.7031 Q84.9531,143.3906 84.7813,143.2188 Q84.4688,142.8906 83.9063,142.7031 Q83.3438,142.5 82.7813,142.5 Q82.0781,142.5 81.4844,142.7813 Q80.9063,143.0625 80.4531,143.6875 Q80,144.3125 80,145.1719 L80,146.0938 Q80,147.125 80.8438,147.8125 Q81.6875,148.5 83.1875,148.5 Q84.0781,148.5 84.7031,148.2969 Q85.0625,148.1875 85.4688,147.8281 Q85.7344,147.625 85.875,147.5625 Q86.0156,147.5 86.1875,147.5 Q86.5156,147.5 86.75,147.7656 Q87,148.0156 87,148.375 Q87,148.7188 86.6563,149.125 Q86.1563,149.7188 85.3594,150.0469 Q84.3125,150.5 83.0313,150.5 Q81.5313,150.5 80.3281,149.9063 Q79.3594,149.4375 78.6719,148.4219 Q78,147.4063 78,146.2031 L78,145.1094 Q78,143.8594 78.5938,142.7656 Q79.2031,141.6719 80.25,141.0938 Q81.3125,140.5 82.5,140.5 Q83.2188,140.5 83.8438,140.75 Q84.4688,141 85,141.5 Z " fill="#000000"/><text fill="#000000" font-family="sans-serif" font-size="12" lengthAdjust="spacing" textLength="104" x="97" y="149.9102">TopPairsController</text><line style="stroke:#A80036;stroke-width:1.5;" x1="69" x2="203" y1="161" y2="161"/><line style="stroke:#A80036;stroke-width:1.5;" x1="69" x2="203" y1="169" y2="169"/><ellipse cx="79" cy="180" fill="#84BE84" rx="3" ry="3" style="stroke:#038048;stroke-width:1.0;"/><text fill="#000000" font-family="sans-serif" font-size="11" lengthAdjust="spacing" textLength="47" x="88" y="184.4189">getPairs()</text><!--MD5=[ea2206eefe09474e90beb17e18e6b3d8]
class ShipStore--><rect codeLine="14" fill="#FEFECE" filter="url(#f1ny1oesw6q1z0)" height="75.6719" id="ShipStore" style="stroke:#A80036;stroke-width:1.5;" width="160" x="138" y="251"/><ellipse cx="186.75" cy="267" fill="#ADD1B2" rx="11" ry="11" style="stroke:#A80036;stroke-width:1.0;"/><path d="M188.75,263.5 Q188.9531,263 189.1875,262.75 Q189.4219,262.5 189.6875,262.5 Q190.1563,262.5 190.4531,262.7813 Q190.75,263.0625 190.75,263.7188 L190.75,265.2813 Q190.75,265.9375 190.4688,266.2188 Q190.1875,266.5 189.75,266.5 Q189.3594,266.5 189.1094,266.3281 Q188.8594,266.1563 188.75,265.7031 Q188.7031,265.3906 188.5313,265.2188 Q188.2188,264.8906 187.6563,264.7031 Q187.0938,264.5 186.5313,264.5 Q185.8281,264.5 185.2344,264.7813 Q184.6563,265.0625 184.2031,265.6875 Q183.75,266.3125 183.75,267.1719 L183.75,268.0938 Q183.75,269.125 184.5938,269.8125 Q185.4375,270.5 186.9375,270.5 Q187.8281,270.5 188.4531,270.2969 Q188.8125,270.1875 189.2188,269.8281 Q189.4844,269.625 189.625,269.5625 Q189.7656,269.5 189.9375,269.5 Q190.2656,269.5 190.5,269.7656 Q190.75,270.0156 190.75,270.375 Q190.75,270.7188 190.4063,271.125 Q189.9063,271.7188 189.1094,272.0469 Q188.0625,272.5 186.7813,272.5 Q185.2813,272.5 184.0781,271.9063 Q183.1094,271.4375 182.4219,270.4219 Q181.75,269.4063 181.75,268.2031 L181.75,267.1094 Q181.75,265.8594 182.3438,264.7656 Q182.9531,263.6719 184,263.0938 Q185.0625,262.5 186.25,262.5 Q186.9688,262.5 187.5938,262.75 Q188.2188,263 188.75,263.5 Z " fill="#000000"/><text fill="#000000" font-family="sans-serif" font-size="12" lengthAdjust="spacing" textLength="54" x="207.25" y="271.9102">ShipStore</text><line style="stroke:#A80036;stroke-width:1.5;" x1="139" x2="297" y1="283" y2="283"/><line style="stroke:#A80036;stroke-width:1.5;" x1="139" x2="297" y1="291" y2="291"/><ellipse cx="149" cy="302" fill="#84BE84" rx="3" ry="3" style="stroke:#038048;stroke-width:1.0;"/><text fill="#000000" font-family="sans-serif" font-size="11" lengthAdjust="spacing" textLength="114" x="158" y="306.4189">getPairsOfShipsString()</text><rect fill="#F24D5C" height="6" style="stroke:#C82930;stroke-width:1.0;" width="6" x="146" y="312.8359"/><text fill="#000000" font-family="sans-serif" font-size="11" lengthAdjust="spacing" textLength="134" x="158" y="320.2549">getPairsOfShipsInsideBST()</text><!--MD5=[57da92e083903a19548b48ae659aec2b]
link TopPairsUI to TopPairsController--><path codeLine="19" d="M136,69.28 C136,85.77 136,106.26 136,123.49 " fill="none" id="TopPairsUI-to-TopPairsController" style="stroke:#A80036;stroke-width:1.0;"/><polygon fill="#A80036" points="136,128.73,140,119.73,136,123.73,132,119.73,136,128.73" style="stroke:#A80036;stroke-width:1.0;"/><!--MD5=[add11657f188cf8865e4c201b64571e7]
link TopPairsController to Company--><path codeLine="20" d="M116.8,191.1 C106.28,207.6 93.08,228.3 81.57,246.33 " fill="none" id="TopPairsController-to-Company" style="stroke:#A80036;stroke-width:1.0;"/><polygon fill="#A80036" points="78.69,250.86,86.9001,245.4199,81.3772,246.6435,80.1536,241.1205,78.69,250.86" style="stroke:#A80036;stroke-width:1.0;"/><!--MD5=[6b4a94d80660e97c6833bde801bd4c89]
link Company to ShipStore--><path codeLine="21" d="M103.07,289 C112.88,289 122.7,289 132.51,289 " fill="none" id="Company-to-ShipStore" style="stroke:#A80036;stroke-width:1.0;"/><polygon fill="#A80036" points="137.64,289,128.64,285,132.64,289,128.64,293,137.64,289" style="stroke:#A80036;stroke-width:1.0;"/><!--MD5=[b1a4ece23cd59d5ba2a99e38aa4c488d]
link TopPairsController to ShipStore--><path codeLine="22" d="M155.43,191.1 C166.09,207.6 179.45,228.3 191.1,246.33 " fill="none" id="TopPairsController-to-ShipStore" style="stroke:#A80036;stroke-width:1.0;"/><polygon fill="#A80036" points="194.02,250.86,192.5179,241.1264,191.3162,246.6541,185.7885,245.4524,194.02,250.86" style="stroke:#A80036;stroke-width:1.0;"/><!--MD5=[c0a2b31d7a7f44c3ea5d2cce0582bac2]
@startuml
class TopPairsUI{
+run()
}

class Company{
-ShipStore
+getShipStore()
}

class TopPairsController{
+getPairs()
}

class ShipStore{
+getPairsOfShipsString()
-getPairsOfShipsInsideBST()
}

TopPairsUI - -> TopPairsController
TopPairsController - -> Company
Company ->ShipStore
TopPairsController- -> ShipStore
@enduml

PlantUML version 1.2021.11(Sat Oct 02 14:26:11 BST 2021)
(GPL source distribution)
Java Runtime: OpenJDK Runtime Environment
JVM: OpenJDK 64-Bit Server VM
Default Encoding: Cp1252
Language: pt
Country: PT
--></g></svg>