<?xml version="1.0" encoding="UTF-8" standalone="no"?><svg xmlns="http://www.w3.org/2000/svg" xmlns:xlink="http://www.w3.org/1999/xlink" contentScriptType="application/ecmascript" contentStyleType="text/css" height="218px" preserveAspectRatio="none" style="width:494px;height:218px;background:#FFFFFF;" version="1.1" viewBox="0 0 494 218" width="494px" zoomAndPan="magnify"><defs><filter height="300%" id="fdh85ty0kj3st" width="300%" x="-1" y="-1"><feGaussianBlur result="blurOut" stdDeviation="2.0"/><feColorMatrix in="blurOut" result="blurOut2" type="matrix" values="0 0 0 0 0 0 0 0 0 0 0 0 0 0 0 0 0 0 .4 0"/><feOffset dx="4.0" dy="4.0" in="blurOut2" result="blurOut3"/><feBlend in="SourceGraphic" in2="blurOut3" mode="normal"/></filter></defs><g><!--MD5=[7df6b39443f91b99c3441fc56fd4442c]
class GetAuditTrailUI--><rect codeLine="4" fill="#FEFECE" filter="url(#fdh85ty0kj3st)" height="61.8359" id="GetAuditTrailUI" style="stroke:#A80036;stroke-width:1.5;" width="114" x="28" y="7"/><ellipse cx="43" cy="23" fill="#ADD1B2" rx="11" ry="11" style="stroke:#A80036;stroke-width:1.0;"/><path d="M45,19.5 Q45.2031,19 45.4375,18.75 Q45.6719,18.5 45.9375,18.5 Q46.4063,18.5 46.7031,18.7813 Q47,19.0625 47,19.7188 L47,21.2813 Q47,21.9375 46.7188,22.2188 Q46.4375,22.5 46,22.5 Q45.6094,22.5 45.3594,22.3281 Q45.1094,22.1563 45,21.7031 Q44.9531,21.3906 44.7813,21.2188 Q44.4688,20.8906 43.9063,20.7031 Q43.3438,20.5 42.7813,20.5 Q42.0781,20.5 41.4844,20.7813 Q40.9063,21.0625 40.4531,21.6875 Q40,22.3125 40,23.1719 L40,24.0938 Q40,25.125 40.8438,25.8125 Q41.6875,26.5 43.1875,26.5 Q44.0781,26.5 44.7031,26.2969 Q45.0625,26.1875 45.4688,25.8281 Q45.7344,25.625 45.875,25.5625 Q46.0156,25.5 46.1875,25.5 Q46.5156,25.5 46.75,25.7656 Q47,26.0156 47,26.375 Q47,26.7188 46.6563,27.125 Q46.1563,27.7188 45.3594,28.0469 Q44.3125,28.5 43.0313,28.5 Q41.5313,28.5 40.3281,27.9063 Q39.3594,27.4375 38.6719,26.4219 Q38,25.4063 38,24.2031 L38,23.1094 Q38,21.8594 38.5938,20.7656 Q39.2031,19.6719 40.25,19.0938 Q41.3125,18.5 42.5,18.5 Q43.2188,18.5 43.8438,18.75 Q44.4688,19 45,19.5 Z " fill="#000000"/><text fill="#000000" font-family="sans-serif" font-size="12" lengthAdjust="spacing" textLength="82" x="57" y="27.9102">GetAuditTrailUI</text><line style="stroke:#A80036;stroke-width:1.5;" x1="29" x2="141" y1="39" y2="39"/><line style="stroke:#A80036;stroke-width:1.5;" x1="29" x2="141" y1="47" y2="47"/><ellipse cx="39" cy="58" fill="#84BE84" rx="3" ry="3" style="stroke:#038048;stroke-width:1.0;"/><text fill="#000000" font-family="sans-serif" font-size="11" lengthAdjust="spacing" textLength="24" x="48" y="62.4189">run()</text><!--MD5=[2edded7fdca25a1d15b1ed155465145b]
class GetAuditTrailController--><rect codeLine="7" fill="#FEFECE" filter="url(#fdh85ty0kj3st)" height="75.6719" id="GetAuditTrailController" style="stroke:#A80036;stroke-width:1.5;" width="156" x="7" y="129"/><ellipse cx="22" cy="145" fill="#ADD1B2" rx="11" ry="11" style="stroke:#A80036;stroke-width:1.0;"/><path d="M24,141.5 Q24.2031,141 24.4375,140.75 Q24.6719,140.5 24.9375,140.5 Q25.4063,140.5 25.7031,140.7813 Q26,141.0625 26,141.7188 L26,143.2813 Q26,143.9375 25.7188,144.2188 Q25.4375,144.5 25,144.5 Q24.6094,144.5 24.3594,144.3281 Q24.1094,144.1563 24,143.7031 Q23.9531,143.3906 23.7813,143.2188 Q23.4688,142.8906 22.9063,142.7031 Q22.3438,142.5 21.7813,142.5 Q21.0781,142.5 20.4844,142.7813 Q19.9063,143.0625 19.4531,143.6875 Q19,144.3125 19,145.1719 L19,146.0938 Q19,147.125 19.8438,147.8125 Q20.6875,148.5 22.1875,148.5 Q23.0781,148.5 23.7031,148.2969 Q24.0625,148.1875 24.4688,147.8281 Q24.7344,147.625 24.875,147.5625 Q25.0156,147.5 25.1875,147.5 Q25.5156,147.5 25.75,147.7656 Q26,148.0156 26,148.375 Q26,148.7188 25.6563,149.125 Q25.1563,149.7188 24.3594,150.0469 Q23.3125,150.5 22.0313,150.5 Q20.5313,150.5 19.3281,149.9063 Q18.3594,149.4375 17.6719,148.4219 Q17,147.4063 17,146.2031 L17,145.1094 Q17,143.8594 17.5938,142.7656 Q18.2031,141.6719 19.25,141.0938 Q20.3125,140.5 21.5,140.5 Q22.2188,140.5 22.8438,140.75 Q23.4688,141 24,141.5 Z " fill="#000000"/><text fill="#000000" font-family="sans-serif" font-size="12" lengthAdjust="spacing" textLength="124" x="36" y="149.9102">GetAuditTrailController</text><line style="stroke:#A80036;stroke-width:1.5;" x1="8" x2="162" y1="161" y2="161"/><line style="stroke:#A80036;stroke-width:1.5;" x1="8" x2="162" y1="169" y2="169"/><ellipse cx="18" cy="180" fill="#84BE84" rx="3" ry="3" style="stroke:#038048;stroke-width:1.0;"/><text fill="#000000" font-family="sans-serif" font-size="11" lengthAdjust="spacing" textLength="116" x="27" y="184.4189">GetAuditTrailController()</text><ellipse cx="18" cy="193.8359" fill="#84BE84" rx="3" ry="3" style="stroke:#038048;stroke-width:1.0;"/><text fill="#000000" font-family="sans-serif" font-size="11" lengthAdjust="spacing" textLength="68" x="27" y="198.2549">getAuditTrail()</text><!--MD5=[cbec8294bb7d50495fc4916b4449bfa2]
class GetAuditTrailScript--><rect codeLine="11" fill="#FEFECE" filter="url(#fdh85ty0kj3st)" height="61.8359" id="GetAuditTrailScript" style="stroke:#A80036;stroke-width:1.5;" width="282" x="198" y="136"/><ellipse cx="284.25" cy="152" fill="#ADD1B2" rx="11" ry="11" style="stroke:#A80036;stroke-width:1.0;"/><path d="M286.25,148.5 Q286.4531,148 286.6875,147.75 Q286.9219,147.5 287.1875,147.5 Q287.6563,147.5 287.9531,147.7813 Q288.25,148.0625 288.25,148.7188 L288.25,150.2813 Q288.25,150.9375 287.9688,151.2188 Q287.6875,151.5 287.25,151.5 Q286.8594,151.5 286.6094,151.3281 Q286.3594,151.1563 286.25,150.7031 Q286.2031,150.3906 286.0313,150.2188 Q285.7188,149.8906 285.1563,149.7031 Q284.5938,149.5 284.0313,149.5 Q283.3281,149.5 282.7344,149.7813 Q282.1563,150.0625 281.7031,150.6875 Q281.25,151.3125 281.25,152.1719 L281.25,153.0938 Q281.25,154.125 282.0938,154.8125 Q282.9375,155.5 284.4375,155.5 Q285.3281,155.5 285.9531,155.2969 Q286.3125,155.1875 286.7188,154.8281 Q286.9844,154.625 287.125,154.5625 Q287.2656,154.5 287.4375,154.5 Q287.7656,154.5 288,154.7656 Q288.25,155.0156 288.25,155.375 Q288.25,155.7188 287.9063,156.125 Q287.4063,156.7188 286.6094,157.0469 Q285.5625,157.5 284.2813,157.5 Q282.7813,157.5 281.5781,156.9063 Q280.6094,156.4375 279.9219,155.4219 Q279.25,154.4063 279.25,153.2031 L279.25,152.1094 Q279.25,150.8594 279.8438,149.7656 Q280.4531,148.6719 281.5,148.0938 Q282.5625,147.5 283.75,147.5 Q284.4688,147.5 285.0938,147.75 Q285.7188,148 286.25,148.5 Z " fill="#000000"/><text fill="#000000" font-family="sans-serif" font-size="12" lengthAdjust="spacing" textLength="101" x="304.75" y="156.9102">GetAuditTrailScript</text><line style="stroke:#A80036;stroke-width:1.5;" x1="199" x2="479" y1="168" y2="168"/><line style="stroke:#A80036;stroke-width:1.5;" x1="199" x2="479" y1="176" y2="176"/><text fill="#000000" font-family="sans-serif" font-size="11" lengthAdjust="spacing" textLength="270" x="204" y="191.4189">getAuditTrail(DatabaseConnection databaseConnection)</text><!--MD5=[3970702107d3f9d3317754501f63c4c2]
link GetAuditTrailUI to GetAuditTrailController--><path codeLine="15" d="M85,69.1 C85,85.32 85,105.6 85,123.41 " fill="none" id="GetAuditTrailUI-to-GetAuditTrailController" style="stroke:#A80036;stroke-width:1.0;stroke-dasharray:7.0,7.0;"/><polygon fill="#A80036" points="85,128.86,89,119.86,85,123.86,81,119.86,85,128.86" style="stroke:#A80036;stroke-width:1.0;"/><!--MD5=[3bfb2e5d3879a8c43a2418a803e1eb51]
link GetAuditTrailController to GetAuditTrailScript--><path codeLine="16" d="M163.38,167 C173.12,167 182.86,167 192.59,167 " fill="none" id="GetAuditTrailController-to-GetAuditTrailScript" style="stroke:#A80036;stroke-width:1.0;stroke-dasharray:7.0,7.0;"/><polygon fill="#A80036" points="197.68,167,188.68,163,192.68,167,188.68,171,197.68,167" style="stroke:#A80036;stroke-width:1.0;"/><!--MD5=[46a6b30de595f68e9606986968e4221a]
@startuml
'https://plantuml.com/class-diagram


class GetAuditTrailUI{
+run()
}
class GetAuditTrailController{
+GetAuditTrailController()
+getAuditTrail()
}
class GetAuditTrailScript{
getAuditTrail(DatabaseConnection databaseConnection)
}

GetAuditTrailUI ..> GetAuditTrailController
GetAuditTrailController .> GetAuditTrailScript
@enduml

@startuml


class GetAuditTrailUI{
+run()
}
class GetAuditTrailController{
+GetAuditTrailController()
+getAuditTrail()
}
class GetAuditTrailScript{
getAuditTrail(DatabaseConnection databaseConnection)
}

GetAuditTrailUI ..> GetAuditTrailController
GetAuditTrailController .> GetAuditTrailScript
@enduml

PlantUML version 1.2021.16(Wed Dec 08 17:25:22 GMT 2021)
(GPL source distribution)
Java Runtime: OpenJDK Runtime Environment
JVM: OpenJDK 64-Bit Server VM
Default Encoding: Cp1252
Language: pt
Country: PT
--></g></svg>