<?xml version="1.0" encoding="UTF-8" standalone="no"?><svg xmlns="http://www.w3.org/2000/svg" xmlns:xlink="http://www.w3.org/1999/xlink" contentScriptType="application/ecmascript" contentStyleType="text/css" height="410px" preserveAspectRatio="none" style="width:495px;height:410px;" version="1.1" viewBox="0 0 495 410" width="495px" zoomAndPan="magnify">
    <defs>
        <filter height="300%" id="f1fzncfmz8sj3h" width="300%" x="-1" y="-1">
            <feGaussianBlur result="blurOut" stdDeviation="2.0" />
            <feColorMatrix in="blurOut" result="blurOut2" type="matrix" values="0 0 0 0 0 0 0 0 0 0 0 0 0 0 0 0 0 0 .4 0" />
            <feOffset dx="4.0" dy="4.0" in="blurOut2" result="blurOut3" />
            <feBlend in="SourceGraphic" in2="blurOut3" mode="normal" />
        </filter>
    </defs>
    <g>
        <!--cluster sql-->
        <polygon fill="#FFFFFF" filter="url(#f1fzncfmz8sj3h)" points="369,58,396,58,403,81.6094,473,81.6094,473,172,369,172,369,58" style="stroke: #000000; stroke-width: 1.5;" />
        <line style="stroke: #000000; stroke-width: 1.5;" x1="369" x2="403" y1="81.6094" y2="81.6094" /><text fill="#000000" font-family="sans-serif" font-size="14" font-weight="bold" lengthAdjust="spacingAndGlyphs" textLength="21" x="373" y="74.5332">sql</text>
        <!--class sql.Date-->
        <rect fill="#FEFECE" filter="url(#f1fzncfmz8sj3h)" height="61.8359" id="sql.Date" style="stroke: #A80036; stroke-width: 1.5;" width="72" x="385" y="94" />
        <ellipse cx="406.3" cy="110" fill="#ADD1B2" rx="11" ry="11" style="stroke: #A80036; stroke-width: 1.0;" />
        <path d="M409.0656,105.875 Q409.2219,105.6563 409.4094,105.5469 Q409.5969,105.4375 409.8156,105.4375 Q410.1906,105.4375 410.425,105.6953 Q410.6594,105.9531 410.6594,106.5625 L410.6594,108.0156 Q410.6594,108.625 410.425,108.8906 Q410.1906,109.1563 409.8156,109.1563 Q409.4719,109.1563 409.2688,108.9531 Q409.0656,108.7656 408.9563,108.25 Q408.9094,107.8906 408.7219,107.7031 Q408.3938,107.3281 407.7844,107.1094 Q407.175,106.8906 406.55,106.8906 Q405.7844,106.8906 405.1516,107.2188 Q404.5188,107.5469 404.0266,108.2969 Q403.5344,109.0469 403.5344,110.0781 L403.5344,111.1719 Q403.5344,112.4063 404.425,113.2266 Q405.3156,114.0469 406.9094,114.0469 Q407.8469,114.0469 408.5031,113.7969 Q408.8938,113.6406 409.3156,113.2031 Q409.5813,112.9375 409.7297,112.8594 Q409.8781,112.7813 410.0813,112.7813 Q410.4094,112.7813 410.6672,113.0391 Q410.925,113.2969 410.925,113.6406 Q410.925,113.9844 410.5813,114.3906 Q410.0813,114.9688 409.2844,115.2969 Q408.2063,115.75 406.9094,115.75 Q405.3938,115.75 404.1906,115.125 Q403.2063,114.625 402.5188,113.5547 Q401.8313,112.4844 401.8313,111.2031 L401.8313,110.0469 Q401.8313,108.7188 402.4484,107.5703 Q403.0656,106.4219 404.1594,105.8047 Q405.2531,105.1875 406.4875,105.1875 Q407.2219,105.1875 407.8703,105.3516 Q408.5188,105.5156 409.0656,105.875 Z " /><text fill="#000000" font-family="sans-serif" font-size="12" lengthAdjust="spacingAndGlyphs" textLength="26" x="421.7" y="114.9102">Date</text>
        <line style="stroke: #A80036; stroke-width: 1.5;" x1="386" x2="456" y1="126" y2="126" />
        <line style="stroke: #A80036; stroke-width: 1.5;" x1="386" x2="456" y1="134" y2="134" />
        <ellipse cx="396" cy="146.418" fill="#84BE84" rx="3" ry="3" style="stroke: #038048; stroke-width: 1.0;" /><text fill="#000000" font-family="sans-serif" font-size="11" lengthAdjust="spacingAndGlyphs" textLength="46" x="405" y="149.4189">valueOf()</text>
        <!--class CheckForCargoManifestMapUI-->
        <rect fill="#FEFECE" filter="url(#f1fzncfmz8sj3h)" height="61.8359" id="CheckForCargoManifestMapUI" style="stroke: #A80036; stroke-width: 1.5;" width="200" x="27" y="94" />
        <ellipse cx="42" cy="110" fill="#ADD1B2" rx="11" ry="11" style="stroke: #A80036; stroke-width: 1.0;" />
        <path d="M44.7656,105.875 Q44.9219,105.6563 45.1094,105.5469 Q45.2969,105.4375 45.5156,105.4375 Q45.8906,105.4375 46.125,105.6953 Q46.3594,105.9531 46.3594,106.5625 L46.3594,108.0156 Q46.3594,108.625 46.125,108.8906 Q45.8906,109.1563 45.5156,109.1563 Q45.1719,109.1563 44.9688,108.9531 Q44.7656,108.7656 44.6563,108.25 Q44.6094,107.8906 44.4219,107.7031 Q44.0938,107.3281 43.4844,107.1094 Q42.875,106.8906 42.25,106.8906 Q41.4844,106.8906 40.8516,107.2188 Q40.2188,107.5469 39.7266,108.2969 Q39.2344,109.0469 39.2344,110.0781 L39.2344,111.1719 Q39.2344,112.4063 40.125,113.2266 Q41.0156,114.0469 42.6094,114.0469 Q43.5469,114.0469 44.2031,113.7969 Q44.5938,113.6406 45.0156,113.2031 Q45.2813,112.9375 45.4297,112.8594 Q45.5781,112.7813 45.7813,112.7813 Q46.1094,112.7813 46.3672,113.0391 Q46.625,113.2969 46.625,113.6406 Q46.625,113.9844 46.2813,114.3906 Q45.7813,114.9688 44.9844,115.2969 Q43.9063,115.75 42.6094,115.75 Q41.0938,115.75 39.8906,115.125 Q38.9063,114.625 38.2188,113.5547 Q37.5313,112.4844 37.5313,111.2031 L37.5313,110.0469 Q37.5313,108.7188 38.1484,107.5703 Q38.7656,106.4219 39.8594,105.8047 Q40.9531,105.1875 42.1875,105.1875 Q42.9219,105.1875 43.5703,105.3516 Q44.2188,105.5156 44.7656,105.875 Z " /><text fill="#000000" font-family="sans-serif" font-size="12" lengthAdjust="spacingAndGlyphs" textLength="168" x="56" y="114.9102">CheckForCargoManifestMapUI</text>
        <line style="stroke: #A80036; stroke-width: 1.5;" x1="28" x2="226" y1="126" y2="126" />
        <line style="stroke: #A80036; stroke-width: 1.5;" x1="28" x2="226" y1="134" y2="134" />
        <ellipse cx="38" cy="146.418" fill="#84BE84" rx="3" ry="3" style="stroke: #038048; stroke-width: 1.0;" /><text fill="#000000" font-family="sans-serif" font-size="11" lengthAdjust="spacingAndGlyphs" textLength="24" x="47" y="149.4189">run()</text>
        <!--class CheckForCargoManifestMapController-->
        <rect fill="#FEFECE" filter="url(#f1fzncfmz8sj3h)" height="61.8359" id="CheckForCargoManifestMapController" style="stroke: #A80036; stroke-width: 1.5;" width="242" x="6" y="216" />
        <ellipse cx="21" cy="232" fill="#ADD1B2" rx="11" ry="11" style="stroke: #A80036; stroke-width: 1.0;" />
        <path d="M23.7656,227.875 Q23.9219,227.6563 24.1094,227.5469 Q24.2969,227.4375 24.5156,227.4375 Q24.8906,227.4375 25.125,227.6953 Q25.3594,227.9531 25.3594,228.5625 L25.3594,230.0156 Q25.3594,230.625 25.125,230.8906 Q24.8906,231.1563 24.5156,231.1563 Q24.1719,231.1563 23.9688,230.9531 Q23.7656,230.7656 23.6563,230.25 Q23.6094,229.8906 23.4219,229.7031 Q23.0938,229.3281 22.4844,229.1094 Q21.875,228.8906 21.25,228.8906 Q20.4844,228.8906 19.8516,229.2188 Q19.2188,229.5469 18.7266,230.2969 Q18.2344,231.0469 18.2344,232.0781 L18.2344,233.1719 Q18.2344,234.4063 19.125,235.2266 Q20.0156,236.0469 21.6094,236.0469 Q22.5469,236.0469 23.2031,235.7969 Q23.5938,235.6406 24.0156,235.2031 Q24.2813,234.9375 24.4297,234.8594 Q24.5781,234.7813 24.7813,234.7813 Q25.1094,234.7813 25.3672,235.0391 Q25.625,235.2969 25.625,235.6406 Q25.625,235.9844 25.2813,236.3906 Q24.7813,236.9688 23.9844,237.2969 Q22.9063,237.75 21.6094,237.75 Q20.0938,237.75 18.8906,237.125 Q17.9063,236.625 17.2188,235.5547 Q16.5313,234.4844 16.5313,233.2031 L16.5313,232.0469 Q16.5313,230.7188 17.1484,229.5703 Q17.7656,228.4219 18.8594,227.8047 Q19.9531,227.1875 21.1875,227.1875 Q21.9219,227.1875 22.5703,227.3516 Q23.2188,227.5156 23.7656,227.875 Z " /><text fill="#000000" font-family="sans-serif" font-size="12" lengthAdjust="spacingAndGlyphs" textLength="210" x="35" y="236.9102">CheckForCargoManifestMapController</text>
        <line style="stroke: #A80036; stroke-width: 1.5;" x1="7" x2="247" y1="248" y2="248" />
        <line style="stroke: #A80036; stroke-width: 1.5;" x1="7" x2="247" y1="256" y2="256" />
        <ellipse cx="17" cy="268.418" fill="#84BE84" rx="3" ry="3" style="stroke: #038048; stroke-width: 1.0;" /><text fill="#000000" font-family="sans-serif" font-size="11" lengthAdjust="spacingAndGlyphs" textLength="65" x="26" y="271.4189">callFunction()</text>
        <!--class CheckForCargoManifestMapFunction-->
        <rect fill="#FEFECE" filter="url(#f1fzncfmz8sj3h)" height="61.8359" id="CheckForCargoManifestMapFunction" style="stroke: #A80036; stroke-width: 1.5;" width="235" x="9.5" y="338" />
        <ellipse cx="24.5" cy="354" fill="#ADD1B2" rx="11" ry="11" style="stroke: #A80036; stroke-width: 1.0;" />
        <path d="M27.2656,349.875 Q27.4219,349.6563 27.6094,349.5469 Q27.7969,349.4375 28.0156,349.4375 Q28.3906,349.4375 28.625,349.6953 Q28.8594,349.9531 28.8594,350.5625 L28.8594,352.0156 Q28.8594,352.625 28.625,352.8906 Q28.3906,353.1563 28.0156,353.1563 Q27.6719,353.1563 27.4688,352.9531 Q27.2656,352.7656 27.1563,352.25 Q27.1094,351.8906 26.9219,351.7031 Q26.5938,351.3281 25.9844,351.1094 Q25.375,350.8906 24.75,350.8906 Q23.9844,350.8906 23.3516,351.2188 Q22.7188,351.5469 22.2266,352.2969 Q21.7344,353.0469 21.7344,354.0781 L21.7344,355.1719 Q21.7344,356.4063 22.625,357.2266 Q23.5156,358.0469 25.1094,358.0469 Q26.0469,358.0469 26.7031,357.7969 Q27.0938,357.6406 27.5156,357.2031 Q27.7813,356.9375 27.9297,356.8594 Q28.0781,356.7813 28.2813,356.7813 Q28.6094,356.7813 28.8672,357.0391 Q29.125,357.2969 29.125,357.6406 Q29.125,357.9844 28.7813,358.3906 Q28.2813,358.9688 27.4844,359.2969 Q26.4063,359.75 25.1094,359.75 Q23.5938,359.75 22.3906,359.125 Q21.4063,358.625 20.7188,357.5547 Q20.0313,356.4844 20.0313,355.2031 L20.0313,354.0469 Q20.0313,352.7188 20.6484,351.5703 Q21.2656,350.4219 22.3594,349.8047 Q23.4531,349.1875 24.6875,349.1875 Q25.4219,349.1875 26.0703,349.3516 Q26.7188,349.5156 27.2656,349.875 Z " /><text fill="#000000" font-family="sans-serif" font-size="12" lengthAdjust="spacingAndGlyphs" textLength="203" x="38.5" y="358.9102">CheckForCargoManifestMapFunction</text>
        <line style="stroke: #A80036; stroke-width: 1.5;" x1="10.5" x2="243.5" y1="370" y2="370" />
        <line style="stroke: #A80036; stroke-width: 1.5;" x1="10.5" x2="243.5" y1="378" y2="378" />
        <ellipse cx="20.5" cy="390.418" fill="#84BE84" rx="3" ry="3" style="stroke: #038048; stroke-width: 1.0;" /><text fill="#000000" font-family="sans-serif" font-size="11" lengthAdjust="spacingAndGlyphs" textLength="65" x="29.5" y="393.4189">callFunction()</text>
        <!--class LocalDate-->
        <rect fill="#FEFECE" filter="url(#f1fzncfmz8sj3h)" height="61.8359" id="LocalDate" style="stroke: #A80036; stroke-width: 1.5;" width="88" x="262" y="94" />
        <ellipse cx="277" cy="110" fill="#ADD1B2" rx="11" ry="11" style="stroke: #A80036; stroke-width: 1.0;" />
        <path d="M279.7656,105.875 Q279.9219,105.6563 280.1094,105.5469 Q280.2969,105.4375 280.5156,105.4375 Q280.8906,105.4375 281.125,105.6953 Q281.3594,105.9531 281.3594,106.5625 L281.3594,108.0156 Q281.3594,108.625 281.125,108.8906 Q280.8906,109.1563 280.5156,109.1563 Q280.1719,109.1563 279.9688,108.9531 Q279.7656,108.7656 279.6563,108.25 Q279.6094,107.8906 279.4219,107.7031 Q279.0938,107.3281 278.4844,107.1094 Q277.875,106.8906 277.25,106.8906 Q276.4844,106.8906 275.8516,107.2188 Q275.2188,107.5469 274.7266,108.2969 Q274.2344,109.0469 274.2344,110.0781 L274.2344,111.1719 Q274.2344,112.4063 275.125,113.2266 Q276.0156,114.0469 277.6094,114.0469 Q278.5469,114.0469 279.2031,113.7969 Q279.5938,113.6406 280.0156,113.2031 Q280.2813,112.9375 280.4297,112.8594 Q280.5781,112.7813 280.7813,112.7813 Q281.1094,112.7813 281.3672,113.0391 Q281.625,113.2969 281.625,113.6406 Q281.625,113.9844 281.2813,114.3906 Q280.7813,114.9688 279.9844,115.2969 Q278.9063,115.75 277.6094,115.75 Q276.0938,115.75 274.8906,115.125 Q273.9063,114.625 273.2188,113.5547 Q272.5313,112.4844 272.5313,111.2031 L272.5313,110.0469 Q272.5313,108.7188 273.1484,107.5703 Q273.7656,106.4219 274.8594,105.8047 Q275.9531,105.1875 277.1875,105.1875 Q277.9219,105.1875 278.5703,105.3516 Q279.2188,105.5156 279.7656,105.875 Z " /><text fill="#000000" font-family="sans-serif" font-size="12" lengthAdjust="spacingAndGlyphs" textLength="56" x="291" y="114.9102">LocalDate</text>
        <line style="stroke: #A80036; stroke-width: 1.5;" x1="263" x2="349" y1="126" y2="126" />
        <line style="stroke: #A80036; stroke-width: 1.5;" x1="263" x2="349" y1="134" y2="134" />
        <ellipse cx="273" cy="146.418" fill="#84BE84" rx="3" ry="3" style="stroke: #038048; stroke-width: 1.0;" /><text fill="#000000" font-family="sans-serif" font-size="11" lengthAdjust="spacingAndGlyphs" textLength="30" x="282" y="149.4189">now()</text>
        <!--link CheckForCargoManifestMapUI to CheckForCargoManifestMapController-->
        <path d="M127,156.281 C127,172.767 127,193.257 127,210.492 " fill="none" id="CheckForCargoManifestMapUI-CheckForCargoManifestMapController" style="stroke: #A80036; stroke-width: 1.0; stroke-dasharray: 7.0,7.0;" />
        <polygon fill="#A80036" points="127,215.729,131,206.729,127,210.729,123,206.729,127,215.729" style="stroke: #A80036; stroke-width: 1.0;" />
        <!--link CheckForCargoManifestMapController to CheckForCargoManifestMapFunction-->
        <path d="M127,278.281 C127,294.767 127,315.257 127,332.4923 " fill="none" id="CheckForCargoManifestMapController-CheckForCargoManifestMapFunction" style="stroke: #A80036; stroke-width: 1.0; stroke-dasharray: 7.0,7.0;" />
        <polygon fill="#A80036" points="127,337.7286,131,328.7286,127,332.7286,123,328.7286,127,337.7286" style="stroke: #A80036; stroke-width: 1.0;" />
        <!--link CheckForCargoManifestMapUI to LocalDate-->
        <path d="M227.338,125 C237.107,125 246.875,125 256.644,125 " fill="none" id="CheckForCargoManifestMapUI-LocalDate" style="stroke: #A80036; stroke-width: 1.0;" />
        <polygon fill="#A80036" points="261.753,125,252.753,121,256.753,125,252.753,129,261.753,125" style="stroke: #A80036; stroke-width: 1.0;" />
        <!--link CheckForCargoManifestMapUI to sql.Date-->
        <path d="M154.972,93.844 C180.008,68.471 219.203,34.555 261.5,20 C298.903,7.129 315.594,1.393 350.5,20 C377.747,34.525 396.333,64.776 407.551,89.093 " fill="none" id="CheckForCargoManifestMapUI-sql.Date" style="stroke: #A80036; stroke-width: 1.0;" />
        <polygon fill="#A80036" points="409.697,93.871,409.6613,84.0222,407.6498,89.3093,402.3626,87.2978,409.697,93.871" style="stroke: #A80036; stroke-width: 1.0;" />
        <!--
@startuml

class CheckForCargoManifestMapUI {
  + run()
}

class CheckForCargoManifestMapController {
  + callFunction()
}

class CheckForCargoManifestMapFunction {
  + callFunction()
}

class LocalDate {
  + now()
}

class sql.Date {
  +valueOf()
}

CheckForCargoManifestMapUI ..> CheckForCargoManifestMapController
CheckForCargoManifestMapController ..> CheckForCargoManifestMapFunction
CheckForCargoManifestMapUI -> LocalDate
CheckForCargoManifestMapUI -> sql.Date

@enduml

PlantUML version 1.2018.14(Fri Dec 21 16:33:16 GMT 2018)
(GPL source distribution)
Java Runtime: Java(TM) SE Runtime Environment
JVM: Java HotSpot(TM) 64-Bit Server VM
Java Version: 1.8.0_221-b11
Operating System: Windows 10
OS Version: 10.0
Default Encoding: Cp1252
Language: pt
Country: PT
-->
    </g>
</svg>