<?xml version="1.0" encoding="UTF-8" standalone="no"?><svg xmlns="http://www.w3.org/2000/svg" xmlns:xlink="http://www.w3.org/1999/xlink" contentScriptType="application/ecmascript" contentStyleType="text/css" height="317px" preserveAspectRatio="none" style="width:234px;height:317px;" version="1.1" viewBox="0 0 234 317" width="234px" zoomAndPan="magnify">
    <defs>
        <filter height="300%" id="foselq5nb3j6u" width="300%" x="-1" y="-1">
            <feGaussianBlur result="blurOut" stdDeviation="2.0" />
            <feColorMatrix in="blurOut" result="blurOut2" type="matrix" values="0 0 0 0 0 0 0 0 0 0 0 0 0 0 0 0 0 0 .4 0" />
            <feOffset dx="4.0" dy="4.0" in="blurOut2" result="blurOut3" />
            <feBlend in="SourceGraphic" in2="blurOut3" mode="normal" />
        </filter>
    </defs>
    <g>
        <rect fill="#FFFFFF" filter="url(#foselq5nb3j6u)" height="113.4063" style="stroke: #A80036; stroke-width: 1.0;" width="10" x="49" y="97.6094" />
        <rect fill="#FFFFFF" filter="url(#foselq5nb3j6u)" height="30.3516" style="stroke: #A80036; stroke-width: 1.0;" width="10" x="190" y="119.9609" />
        <rect fill="#FFFFFF" filter="url(#foselq5nb3j6u)" height="30.3516" style="stroke: #A80036; stroke-width: 1.0;" width="10" x="190" y="180.6641" />
        <line style="stroke: #A80036; stroke-width: 1.0; stroke-dasharray: 5.0,5.0;" x1="54" x2="54" y1="87.6094" y2="229.0156" />
        <line style="stroke: #A80036; stroke-width: 1.0; stroke-dasharray: 5.0,5.0;" x1="195" x2="195" y1="87.6094" y2="229.0156" /><text fill="#000000" font-family="sans-serif" font-size="14" lengthAdjust="spacingAndGlyphs" textLength="86" x="8" y="84.5332">Port Manager</text>
        <ellipse cx="54" cy="13" fill="#FEFECE" filter="url(#foselq5nb3j6u)" rx="8" ry="8" style="stroke: #A80036; stroke-width: 2.0;" />
        <path d="M54,21 L54,48 M41,29 L67,29 M54,48 L41,63 M54,48 L67,63 " fill="none" filter="url(#foselq5nb3j6u)" style="stroke: #A80036; stroke-width: 2.0;" /><text fill="#000000" font-family="sans-serif" font-size="14" lengthAdjust="spacingAndGlyphs" textLength="86" x="8" y="242.5488">Port Manager</text>
        <ellipse cx="54" cy="255.625" fill="#FEFECE" filter="url(#foselq5nb3j6u)" rx="8" ry="8" style="stroke: #A80036; stroke-width: 2.0;" />
        <path d="M54,263.625 L54,290.625 M41,271.625 L67,271.625 M54,290.625 L41,305.625 M54,290.625 L67,305.625 " fill="none" filter="url(#foselq5nb3j6u)" style="stroke: #A80036; stroke-width: 2.0;" />
        <rect fill="#FEFECE" filter="url(#foselq5nb3j6u)" height="31.6094" style="stroke: #A80036; stroke-width: 1.5;" width="60" x="163" y="51" /><text fill="#000000" font-family="sans-serif" font-size="14" lengthAdjust="spacingAndGlyphs" textLength="46" x="170" y="72.5332">System</text>
        <rect fill="#FEFECE" filter="url(#foselq5nb3j6u)" height="31.6094" style="stroke: #A80036; stroke-width: 1.5;" width="60" x="163" y="228.0156" /><text fill="#000000" font-family="sans-serif" font-size="14" lengthAdjust="spacingAndGlyphs" textLength="46" x="170" y="249.5488">System</text>
        <rect fill="#FFFFFF" filter="url(#foselq5nb3j6u)" height="113.4063" style="stroke: #A80036; stroke-width: 1.0;" width="10" x="49" y="97.6094" />
        <rect fill="#FFFFFF" filter="url(#foselq5nb3j6u)" height="30.3516" style="stroke: #A80036; stroke-width: 1.0;" width="10" x="190" y="119.9609" />
        <rect fill="#FFFFFF" filter="url(#foselq5nb3j6u)" height="30.3516" style="stroke: #A80036; stroke-width: 1.0;" width="10" x="190" y="180.6641" />
        <polygon fill="#A80036" points="178,115.9609,188,119.9609,178,123.9609,182,119.9609" style="stroke: #A80036; stroke-width: 1.0;" />
        <line style="stroke: #A80036; stroke-width: 1.0;" x1="59" x2="184" y1="119.9609" y2="119.9609" /><text fill="#000000" font-family="sans-serif" font-size="13" lengthAdjust="spacingAndGlyphs" textLength="83" x="66" y="115.1045">starts process</text>
        <polygon fill="#A80036" points="70,146.3125,60,150.3125,70,154.3125,66,150.3125" style="stroke: #A80036; stroke-width: 1.0;" />
        <line style="stroke: #A80036; stroke-width: 1.0;" x1="64" x2="194" y1="150.3125" y2="150.3125" /><text fill="#000000" font-family="sans-serif" font-size="13" lengthAdjust="spacingAndGlyphs" textLength="107" x="76" y="145.4561">requests facility ID</text>
        <polygon fill="#A80036" points="178,176.6641,188,180.6641,178,184.6641,182,180.6641" style="stroke: #A80036; stroke-width: 1.0;" />
        <line style="stroke: #A80036; stroke-width: 1.0;" x1="59" x2="184" y1="180.6641" y2="180.6641" /><text fill="#000000" font-family="sans-serif" font-size="13" lengthAdjust="spacingAndGlyphs" textLength="92" x="66" y="175.8076">inputs facility ID</text>
        <polygon fill="#A80036" points="65,207.0156,55,211.0156,65,215.0156,61,211.0156" style="stroke: #A80036; stroke-width: 1.0;" />
        <line style="stroke: #A80036; stroke-width: 1.0;" x1="59" x2="194" y1="211.0156" y2="211.0156" /><text fill="#000000" font-family="sans-serif" font-size="13" lengthAdjust="spacingAndGlyphs" textLength="90" x="71" y="206.1592">prints out result</text>
        <!--
@startuml

actor "Port Manager" as ACT

participant "System" as SYS

activate ACT
ACT -> SYS : starts process
activate SYS
SYS -> ACT : requests facility ID
deactivate SYS

ACT -> SYS : inputs facility ID
activate SYS
SYS -> ACT : prints out result
deactivate SYS
deactivate ACT



@enduml

PlantUML version 1.2018.14(Fri Dec 21 16:33:16 GMT 2018)
(GPL source distribution)
Java Runtime: Java(TM) SE Runtime Environment
JVM: Java HotSpot(TM) 64-Bit Server VM
Java Version: 1.8.0_221-b11
Operating System: Windows 10
OS Version: 10.0
Default Encoding: Cp1252
Language: pt
Country: PT
-->
    </g>
</svg>