<?xml version="1.0" encoding="UTF-8" standalone="no"?><svg xmlns="http://www.w3.org/2000/svg" xmlns:xlink="http://www.w3.org/1999/xlink" contentScriptType="application/ecmascript" contentStyleType="text/css" height="316px" preserveAspectRatio="none" style="width:346px;height:316px;background:#FFFFFF;" version="1.1" viewBox="0 0 346 316" width="346px" zoomAndPan="magnify"><defs><filter height="300%" id="fmj7f533riftk" width="300%" x="-1" y="-1"><feGaussianBlur result="blurOut" stdDeviation="2.0"/><feColorMatrix in="blurOut" result="blurOut2" type="matrix" values="0 0 0 0 0 0 0 0 0 0 0 0 0 0 0 0 0 0 .4 0"/><feOffset dx="4.0" dy="4.0" in="blurOut2" result="blurOut3"/><feBlend in="SourceGraphic" in2="blurOut3" mode="normal"/></filter></defs><g><rect fill="#FFFFFF" filter="url(#fmj7f533riftk)" height="113.4063" style="stroke:#A80036;stroke-width:1.0;" width="10" x="44" y="99.6094"/><rect fill="#FFFFFF" filter="url(#fmj7f533riftk)" height="30.3516" style="stroke:#A80036;stroke-width:1.0;" width="10" x="299" y="121.9609"/><rect fill="#FFFFFF" filter="url(#fmj7f533riftk)" height="30.3516" style="stroke:#A80036;stroke-width:1.0;" width="10" x="299" y="182.6641"/><line style="stroke:#A80036;stroke-width:1.0;stroke-dasharray:5.0,5.0;" x1="49" x2="49" y1="89.6094" y2="231.0156"/><line style="stroke:#A80036;stroke-width:1.0;stroke-dasharray:5.0,5.0;" x1="304" x2="304" y1="89.6094" y2="231.0156"/><text fill="#000000" font-family="sans-serif" font-size="14" lengthAdjust="spacing" textLength="82" x="5" y="86.5332">PortManager</text><ellipse cx="49" cy="15" fill="#FEFECE" filter="url(#fmj7f533riftk)" rx="8" ry="8" style="stroke:#A80036;stroke-width:2.0;"/><path d="M49,23 L49,50 M36,31 L62,31 M49,50 L36,65 M49,50 L62,65 " fill="none" filter="url(#fmj7f533riftk)" style="stroke:#A80036;stroke-width:2.0;"/><text fill="#000000" font-family="sans-serif" font-size="14" lengthAdjust="spacing" textLength="82" x="5" y="244.5488">PortManager</text><ellipse cx="49" cy="257.625" fill="#FEFECE" filter="url(#fmj7f533riftk)" rx="8" ry="8" style="stroke:#A80036;stroke-width:2.0;"/><path d="M49,265.625 L49,292.625 M36,273.625 L62,273.625 M49,292.625 L36,307.625 M49,292.625 L62,307.625 " fill="none" filter="url(#fmj7f533riftk)" style="stroke:#A80036;stroke-width:2.0;"/><rect fill="#FEFECE" filter="url(#fmj7f533riftk)" height="31.6094" style="stroke:#A80036;stroke-width:1.5;" width="60" x="272" y="53"/><text fill="#000000" font-family="sans-serif" font-size="14" lengthAdjust="spacing" textLength="46" x="279" y="74.5332">System</text><rect fill="#FEFECE" filter="url(#fmj7f533riftk)" height="31.6094" style="stroke:#A80036;stroke-width:1.5;" width="60" x="272" y="230.0156"/><text fill="#000000" font-family="sans-serif" font-size="14" lengthAdjust="spacing" textLength="46" x="279" y="251.5488">System</text><rect fill="#FFFFFF" filter="url(#fmj7f533riftk)" height="113.4063" style="stroke:#A80036;stroke-width:1.0;" width="10" x="44" y="99.6094"/><rect fill="#FFFFFF" filter="url(#fmj7f533riftk)" height="30.3516" style="stroke:#A80036;stroke-width:1.0;" width="10" x="299" y="121.9609"/><rect fill="#FFFFFF" filter="url(#fmj7f533riftk)" height="30.3516" style="stroke:#A80036;stroke-width:1.0;" width="10" x="299" y="182.6641"/><polygon fill="#A80036" points="287,117.9609,297,121.9609,287,125.9609,291,121.9609" style="stroke:#A80036;stroke-width:1.0;"/><line style="stroke:#A80036;stroke-width:1.0;" x1="54" x2="293" y1="121.9609" y2="121.9609"/><text fill="#000000" font-family="sans-serif" font-size="13" font-weight="bold" lengthAdjust="spacing" textLength="7" x="61" y="117.1045">1</text><text fill="#000000" font-family="sans-serif" font-size="13" lengthAdjust="spacing" textLength="140" x="72" y="117.1045">Asks to import the ports</text><polygon fill="#A80036" points="65,148.3125,55,152.3125,65,156.3125,61,152.3125" style="stroke:#A80036;stroke-width:1.0;"/><line style="stroke:#A80036;stroke-width:1.0;stroke-dasharray:2.0,2.0;" x1="59" x2="303" y1="152.3125" y2="152.3125"/><text fill="#000000" font-family="sans-serif" font-size="13" font-weight="bold" lengthAdjust="spacing" textLength="7" x="71" y="147.4561">2</text><text fill="#000000" font-family="sans-serif" font-size="13" lengthAdjust="spacing" textLength="97" x="82" y="147.4561">Asks for file path</text><polygon fill="#A80036" points="287,178.6641,297,182.6641,287,186.6641,291,182.6641" style="stroke:#A80036;stroke-width:1.0;"/><line style="stroke:#A80036;stroke-width:1.0;" x1="54" x2="293" y1="182.6641" y2="182.6641"/><text fill="#000000" font-family="sans-serif" font-size="13" font-weight="bold" lengthAdjust="spacing" textLength="7" x="61" y="177.8076">3</text><text fill="#000000" font-family="sans-serif" font-size="13" lengthAdjust="spacing" textLength="111" x="72" y="177.8076">Introduces the path</text><polygon fill="#A80036" points="60,209.0156,50,213.0156,60,217.0156,56,213.0156" style="stroke:#A80036;stroke-width:1.0;"/><line style="stroke:#A80036;stroke-width:1.0;stroke-dasharray:2.0,2.0;" x1="54" x2="303" y1="213.0156" y2="213.0156"/><text fill="#000000" font-family="sans-serif" font-size="13" font-weight="bold" lengthAdjust="spacing" textLength="7" x="66" y="208.1592">4</text><text fill="#000000" font-family="sans-serif" font-size="13" lengthAdjust="spacing" textLength="210" x="77" y="208.1592">Informs the success of the operation</text><!--MD5=[1ab7865f4d1c5f6c57b40bcbb9a0ed51]
@startuml
autonumber
actor PortManager
activate PortManager

PortManager -> System: Asks to import the ports
activate System
System - -> PortManager: Asks for file path
deactivate System

PortManager -> System: Introduces the path
activate System
PortManager <- - System: Informs the success of the operation
deactivate System
deactivate PortManager
@enduml

PlantUML version 1.2021.11(Sat Oct 02 14:26:11 BST 2021)
(GPL source distribution)
Java Runtime: OpenJDK Runtime Environment
JVM: OpenJDK 64-Bit Server VM
Default Encoding: Cp1252
Language: pt
Country: PT
--></g></svg>