<?xml version="1.0" encoding="UTF-8" standalone="no"?><svg xmlns="http://www.w3.org/2000/svg" xmlns:xlink="http://www.w3.org/1999/xlink" contentScriptType="application/ecmascript" contentStyleType="text/css" height="248px" preserveAspectRatio="none" style="width:107px;height:248px;background:#FFFFFF;" version="1.1" viewBox="0 0 107 248" width="107px" zoomAndPan="magnify"><defs><filter height="300%" id="f1susberl56z3o" width="300%" x="-1" y="-1"><feGaussianBlur result="blurOut" stdDeviation="2.0"/><feColorMatrix in="blurOut" result="blurOut2" type="matrix" values="0 0 0 0 0 0 0 0 0 0 0 0 0 0 0 0 0 0 .4 0"/><feOffset dx="4.0" dy="4.0" in="blurOut2" result="blurOut3"/><feBlend in="SourceGraphic" in2="blurOut3" mode="normal"/></filter></defs><g><!--MD5=[a0bfe97ac0a38e6e74cc1c7c7b744b71]
class Port--><rect codeLine="3" fill="#FEFECE" filter="url(#f1susberl56z3o)" height="109.1797" id="Port" style="stroke:#A80036;stroke-width:1.5;" width="86" x="7" y="125"/><ellipse cx="36.4" cy="141" fill="#ADD1B2" rx="11" ry="11" style="stroke:#A80036;stroke-width:1.0;"/><path d="M38.4,137.5 Q38.6031,137 38.8375,136.75 Q39.0719,136.5 39.3375,136.5 Q39.8063,136.5 40.1031,136.7813 Q40.4,137.0625 40.4,137.7188 L40.4,139.2813 Q40.4,139.9375 40.1188,140.2188 Q39.8375,140.5 39.4,140.5 Q39.0094,140.5 38.7594,140.3281 Q38.5094,140.1563 38.4,139.7031 Q38.3531,139.3906 38.1813,139.2188 Q37.8688,138.8906 37.3063,138.7031 Q36.7438,138.5 36.1813,138.5 Q35.4781,138.5 34.8844,138.7813 Q34.3063,139.0625 33.8531,139.6875 Q33.4,140.3125 33.4,141.1719 L33.4,142.0938 Q33.4,143.125 34.2438,143.8125 Q35.0875,144.5 36.5875,144.5 Q37.4781,144.5 38.1031,144.2969 Q38.4625,144.1875 38.8688,143.8281 Q39.1344,143.625 39.275,143.5625 Q39.4156,143.5 39.5875,143.5 Q39.9156,143.5 40.15,143.7656 Q40.4,144.0156 40.4,144.375 Q40.4,144.7188 40.0563,145.125 Q39.5563,145.7188 38.7594,146.0469 Q37.7125,146.5 36.4313,146.5 Q34.9313,146.5 33.7281,145.9063 Q32.7594,145.4375 32.0719,144.4219 Q31.4,143.4063 31.4,142.2031 L31.4,141.1094 Q31.4,139.8594 31.9938,138.7656 Q32.6031,137.6719 33.65,137.0938 Q34.7125,136.5 35.9,136.5 Q36.6188,136.5 37.2438,136.75 Q37.8688,137 38.4,137.5 Z " fill="#000000"/><text fill="#000000" font-family="sans-serif" font-size="12" lengthAdjust="spacing" textLength="22" x="53.6" y="145.9102">Port</text><line style="stroke:#A80036;stroke-width:1.5;" x1="8" x2="92" y1="157" y2="157"/><rect fill="none" height="6" style="stroke:#C82930;stroke-width:1.0;" width="6" x="15" y="165"/><text fill="#000000" font-family="sans-serif" font-size="11" lengthAdjust="spacing" textLength="60" x="27" y="172.4189">Identification</text><rect fill="none" height="6" style="stroke:#C82930;stroke-width:1.0;" width="6" x="15" y="178.8359"/><text fill="#000000" font-family="sans-serif" font-size="11" lengthAdjust="spacing" textLength="27" x="27" y="186.2549">Name</text><rect fill="none" height="6" style="stroke:#C82930;stroke-width:1.0;" width="6" x="15" y="192.6719"/><text fill="#000000" font-family="sans-serif" font-size="11" lengthAdjust="spacing" textLength="45" x="27" y="200.0908">Continent</text><rect fill="none" height="6" style="stroke:#C82930;stroke-width:1.0;" width="6" x="15" y="206.5078"/><text fill="#000000" font-family="sans-serif" font-size="11" lengthAdjust="spacing" textLength="38" x="27" y="213.9268">Country</text><rect fill="none" height="6" style="stroke:#C82930;stroke-width:1.0;" width="6" x="15" y="220.3438"/><text fill="#000000" font-family="sans-serif" font-size="11" lengthAdjust="spacing" textLength="41" x="27" y="227.7627">Location</text><!--MD5=[02e4b9b7573f1156f41e60aa5b4e25a4]
class Company--><rect codeLine="10" fill="#FEFECE" filter="url(#f1susberl56z3o)" height="40" id="Company" style="stroke:#A80036;stroke-width:1.5;" width="85" x="7.5" y="7"/><ellipse cx="22.5" cy="23" fill="#ADD1B2" rx="11" ry="11" style="stroke:#A80036;stroke-width:1.0;"/><path d="M24.5,19.5 Q24.7031,19 24.9375,18.75 Q25.1719,18.5 25.4375,18.5 Q25.9063,18.5 26.2031,18.7813 Q26.5,19.0625 26.5,19.7188 L26.5,21.2813 Q26.5,21.9375 26.2188,22.2188 Q25.9375,22.5 25.5,22.5 Q25.1094,22.5 24.8594,22.3281 Q24.6094,22.1563 24.5,21.7031 Q24.4531,21.3906 24.2813,21.2188 Q23.9688,20.8906 23.4063,20.7031 Q22.8438,20.5 22.2813,20.5 Q21.5781,20.5 20.9844,20.7813 Q20.4063,21.0625 19.9531,21.6875 Q19.5,22.3125 19.5,23.1719 L19.5,24.0938 Q19.5,25.125 20.3438,25.8125 Q21.1875,26.5 22.6875,26.5 Q23.5781,26.5 24.2031,26.2969 Q24.5625,26.1875 24.9688,25.8281 Q25.2344,25.625 25.375,25.5625 Q25.5156,25.5 25.6875,25.5 Q26.0156,25.5 26.25,25.7656 Q26.5,26.0156 26.5,26.375 Q26.5,26.7188 26.1563,27.125 Q25.6563,27.7188 24.8594,28.0469 Q23.8125,28.5 22.5313,28.5 Q21.0313,28.5 19.8281,27.9063 Q18.8594,27.4375 18.1719,26.4219 Q17.5,25.4063 17.5,24.2031 L17.5,23.1094 Q17.5,21.8594 18.0938,20.7656 Q18.7031,19.6719 19.75,19.0938 Q20.8125,18.5 22,18.5 Q22.7188,18.5 23.3438,18.75 Q23.9688,19 24.5,19.5 Z " fill="#000000"/><text fill="#000000" font-family="sans-serif" font-size="12" lengthAdjust="spacing" textLength="53" x="36.5" y="27.9102">Company</text><line style="stroke:#A80036;stroke-width:1.5;" x1="8.5" x2="91.5" y1="39" y2="39"/><!--MD5=[5fd98a8c03cc0e5a408f548eb1c0ace8]
link Company to Port--><path codeLine="13" d="M50,47.06 C50,65.3 50,93.78 50,119.57 " fill="none" id="Company-to-Port" style="stroke:#A80036;stroke-width:1.0;"/><polygon fill="#A80036" points="50,124.69,54,115.69,50,119.69,46,115.69,50,124.69" style="stroke:#A80036;stroke-width:1.0;"/><polygon fill="#000000" points="55,91.1758,57.9389,82.1307,52.0611,82.1307,55,91.1758" style="stroke:#000000;stroke-width:1.0;"/><text fill="#000000" font-family="sans-serif" font-size="13" lengthAdjust="spacing" textLength="30" x="64" y="91.4951">owns</text><!--MD5=[4903a9a6f92bd67b93db694722f32258]
@startuml
hide methods

class Port{
-Identification
-Name
-Continent
-Country
-Location
}
class Company{
}

Company - -> Port : owns >

@enduml

PlantUML version 1.2021.11(Sat Oct 02 14:26:11 BST 2021)
(GPL source distribution)
Java Runtime: OpenJDK Runtime Environment
JVM: OpenJDK 64-Bit Server VM
Default Encoding: Cp1252
Language: pt
Country: PT
--></g></svg>