<?xml version="1.0" encoding="UTF-8" standalone="no"?><svg xmlns="http://www.w3.org/2000/svg" xmlns:xlink="http://www.w3.org/1999/xlink" contentScriptType="application/ecmascript" contentStyleType="text/css" height="621px" preserveAspectRatio="none" style="width:1054px;height:621px;" version="1.1" viewBox="0 0 1054 621" width="1054px" zoomAndPan="magnify">
    <defs>
        <filter height="300%" id="f3kilqczcc0nh" width="300%" x="-1" y="-1">
            <feGaussianBlur result="blurOut" stdDeviation="2.0" />
            <feColorMatrix in="blurOut" result="blurOut2" type="matrix" values="0 0 0 0 0 0 0 0 0 0 0 0 0 0 0 0 0 0 .4 0" />
            <feOffset dx="4.0" dy="4.0" in="blurOut2" result="blurOut3" />
            <feBlend in="SourceGraphic" in2="blurOut3" mode="normal" />
        </filter>
    </defs>
    <g>
        <rect fill="#FFFFFF" filter="url(#f3kilqczcc0nh)" height="416.9219" style="stroke: #A80036; stroke-width: 1.0;" width="10" x="24" y="97.6094" />
        <rect fill="#FFFFFF" filter="url(#f3kilqczcc0nh)" height="30.3516" style="stroke: #A80036; stroke-width: 1.0;" width="10" x="254" y="119.9609" />
        <rect fill="#FFFFFF" filter="url(#f3kilqczcc0nh)" height="151.7578" style="stroke: #A80036; stroke-width: 1.0;" width="10" x="254" y="180.6641" />
        <rect fill="#FFFFFF" filter="url(#f3kilqczcc0nh)" height="151.7578" style="stroke: #A80036; stroke-width: 1.0;" width="10" x="254" y="362.7734" />
        <rect fill="#FFFFFF" filter="url(#f3kilqczcc0nh)" height="91.0547" style="stroke: #A80036; stroke-width: 1.0;" width="10" x="532" y="211.0156" />
        <rect fill="#FFFFFF" filter="url(#f3kilqczcc0nh)" height="91.0547" style="stroke: #A80036; stroke-width: 1.0;" width="10" x="532" y="393.125" />
        <rect fill="#FFFFFF" filter="url(#f3kilqczcc0nh)" height="30.3516" style="stroke: #A80036; stroke-width: 1.0;" width="10" x="884.5" y="423.4766" />
        <rect fill="#FFFFFF" filter="url(#f3kilqczcc0nh)" height="30.3516" style="stroke: #A80036; stroke-width: 1.0;" width="10" x="1004.5" y="241.3672" />
        <line style="stroke: #A80036; stroke-width: 1.0; stroke-dasharray: 5.0,5.0;" x1="29" x2="29" y1="87.6094" y2="532.5313" />
        <line style="stroke: #A80036; stroke-width: 1.0; stroke-dasharray: 5.0,5.0;" x1="258.5" x2="258.5" y1="87.6094" y2="532.5313" />
        <line style="stroke: #A80036; stroke-width: 1.0; stroke-dasharray: 5.0,5.0;" x1="536.5" x2="536.5" y1="87.6094" y2="532.5313" />
        <line style="stroke: #A80036; stroke-width: 1.0; stroke-dasharray: 5.0,5.0;" x1="750.5" x2="750.5" y1="87.6094" y2="532.5313" />
        <line style="stroke: #A80036; stroke-width: 1.0; stroke-dasharray: 5.0,5.0;" x1="889.5" x2="889.5" y1="87.6094" y2="532.5313" />
        <line style="stroke: #A80036; stroke-width: 1.0; stroke-dasharray: 5.0,5.0;" x1="1009.5" x2="1009.5" y1="87.6094" y2="532.5313" /><text fill="#000000" font-family="sans-serif" font-size="14" lengthAdjust="spacingAndGlyphs" textLength="36" x="8" y="84.5332">Client</text>
        <ellipse cx="29" cy="13" fill="#FEFECE" filter="url(#f3kilqczcc0nh)" rx="8" ry="8" style="stroke: #A80036; stroke-width: 2.0;" />
        <path d="M29,21 L29,48 M16,29 L42,29 M29,48 L16,63 M29,48 L42,63 " fill="none" filter="url(#f3kilqczcc0nh)" style="stroke: #A80036; stroke-width: 2.0;" /><text fill="#000000" font-family="sans-serif" font-size="14" lengthAdjust="spacingAndGlyphs" textLength="36" x="8" y="546.0645">Client</text>
        <ellipse cx="29" cy="559.1406" fill="#FEFECE" filter="url(#f3kilqczcc0nh)" rx="8" ry="8" style="stroke: #A80036; stroke-width: 2.0;" />
        <path d="M29,567.1406 L29,594.1406 M16,575.1406 L42,575.1406 M29,594.1406 L16,609.1406 M29,594.1406 L42,609.1406 " fill="none" filter="url(#f3kilqczcc0nh)" style="stroke: #A80036; stroke-width: 2.0;" />
        <rect fill="#FEFECE" filter="url(#f3kilqczcc0nh)" height="31.6094" style="stroke: #A80036; stroke-width: 1.5;" width="239" x="137.5" y="51" /><text fill="#000000" font-family="sans-serif" font-size="14" lengthAdjust="spacingAndGlyphs" textLength="225" x="144.5" y="72.5332">SearchContainerLocationByClientUI</text>
        <rect fill="#FEFECE" filter="url(#f3kilqczcc0nh)" height="31.6094" style="stroke: #A80036; stroke-width: 1.5;" width="239" x="137.5" y="531.5313" /><text fill="#000000" font-family="sans-serif" font-size="14" lengthAdjust="spacingAndGlyphs" textLength="225" x="144.5" y="553.0645">SearchContainerLocationByClientUI</text>
        <rect fill="#FEFECE" filter="url(#f3kilqczcc0nh)" height="31.6094" style="stroke: #A80036; stroke-width: 1.5;" width="289" x="390.5" y="51" /><text fill="#000000" font-family="sans-serif" font-size="14" lengthAdjust="spacingAndGlyphs" textLength="275" x="397.5" y="72.5332">SearchContainerLocationByClientController</text>
        <rect fill="#FEFECE" filter="url(#f3kilqczcc0nh)" height="31.6094" style="stroke: #A80036; stroke-width: 1.5;" width="289" x="390.5" y="531.5313" /><text fill="#000000" font-family="sans-serif" font-size="14" lengthAdjust="spacingAndGlyphs" textLength="275" x="397.5" y="553.0645">SearchContainerLocationByClientController</text>
        <rect fill="#FEFECE" filter="url(#f3kilqczcc0nh)" height="31.6094" style="stroke: #A80036; stroke-width: 1.5;" width="110" x="693.5" y="51" /><text fill="#000000" font-family="sans-serif" font-size="14" lengthAdjust="spacingAndGlyphs" textLength="96" x="700.5" y="72.5332">ContainerStore</text>
        <rect fill="#FEFECE" filter="url(#f3kilqczcc0nh)" height="31.6094" style="stroke: #A80036; stroke-width: 1.5;" width="110" x="693.5" y="531.5313" /><text fill="#000000" font-family="sans-serif" font-size="14" lengthAdjust="spacingAndGlyphs" textLength="96" x="700.5" y="553.0645">ContainerStore</text>
        <rect fill="#FEFECE" filter="url(#f3kilqczcc0nh)" height="31.6094" style="stroke: #A80036; stroke-width: 1.5;" width="140" x="817.5" y="51" /><text fill="#000000" font-family="sans-serif" font-size="14" lengthAdjust="spacingAndGlyphs" textLength="126" x="824.5" y="72.5332">CargoManifestStore</text>
        <rect fill="#FEFECE" filter="url(#f3kilqczcc0nh)" height="31.6094" style="stroke: #A80036; stroke-width: 1.5;" width="140" x="817.5" y="531.5313" /><text fill="#000000" font-family="sans-serif" font-size="14" lengthAdjust="spacingAndGlyphs" textLength="126" x="824.5" y="553.0645">CargoManifestStore</text>
        <rect fill="#FEFECE" filter="url(#f3kilqczcc0nh)" height="31.6094" style="stroke: #A80036; stroke-width: 1.5;" width="72" x="971.5" y="51" /><text fill="#000000" font-family="sans-serif" font-size="14" lengthAdjust="spacingAndGlyphs" textLength="58" x="978.5" y="72.5332">CSTORE</text>
        <rect fill="#FEFECE" filter="url(#f3kilqczcc0nh)" height="31.6094" style="stroke: #A80036; stroke-width: 1.5;" width="72" x="971.5" y="531.5313" /><text fill="#000000" font-family="sans-serif" font-size="14" lengthAdjust="spacingAndGlyphs" textLength="58" x="978.5" y="553.0645">CSTORE</text>
        <rect fill="#FFFFFF" filter="url(#f3kilqczcc0nh)" height="416.9219" style="stroke: #A80036; stroke-width: 1.0;" width="10" x="24" y="97.6094" />
        <rect fill="#FFFFFF" filter="url(#f3kilqczcc0nh)" height="30.3516" style="stroke: #A80036; stroke-width: 1.0;" width="10" x="254" y="119.9609" />
        <rect fill="#FFFFFF" filter="url(#f3kilqczcc0nh)" height="151.7578" style="stroke: #A80036; stroke-width: 1.0;" width="10" x="254" y="180.6641" />
        <rect fill="#FFFFFF" filter="url(#f3kilqczcc0nh)" height="151.7578" style="stroke: #A80036; stroke-width: 1.0;" width="10" x="254" y="362.7734" />
        <rect fill="#FFFFFF" filter="url(#f3kilqczcc0nh)" height="91.0547" style="stroke: #A80036; stroke-width: 1.0;" width="10" x="532" y="211.0156" />
        <rect fill="#FFFFFF" filter="url(#f3kilqczcc0nh)" height="91.0547" style="stroke: #A80036; stroke-width: 1.0;" width="10" x="532" y="393.125" />
        <rect fill="#FFFFFF" filter="url(#f3kilqczcc0nh)" height="30.3516" style="stroke: #A80036; stroke-width: 1.0;" width="10" x="884.5" y="423.4766" />
        <rect fill="#FFFFFF" filter="url(#f3kilqczcc0nh)" height="30.3516" style="stroke: #A80036; stroke-width: 1.0;" width="10" x="1004.5" y="241.3672" />
        <polygon fill="#A80036" points="242,115.9609,252,119.9609,242,123.9609,246,119.9609" style="stroke: #A80036; stroke-width: 1.0;" />
        <line style="stroke: #A80036; stroke-width: 1.0;" x1="34" x2="248" y1="119.9609" y2="119.9609" /><text fill="#000000" font-family="sans-serif" font-size="13" lengthAdjust="spacingAndGlyphs" textLength="83" x="41" y="115.1045">starts process</text>
        <polygon fill="#A80036" points="45,146.3125,35,150.3125,45,154.3125,41,150.3125" style="stroke: #A80036; stroke-width: 1.0;" />
        <line style="stroke: #A80036; stroke-width: 1.0;" x1="39" x2="258" y1="150.3125" y2="150.3125" /><text fill="#000000" font-family="sans-serif" font-size="13" lengthAdjust="spacingAndGlyphs" textLength="125" x="51" y="145.4561">asks for client's email</text>
        <polygon fill="#A80036" points="242,176.6641,252,180.6641,242,184.6641,246,180.6641" style="stroke: #A80036; stroke-width: 1.0;" />
        <line style="stroke: #A80036; stroke-width: 1.0;" x1="34" x2="248" y1="180.6641" y2="180.6641" /><text fill="#000000" font-family="sans-serif" font-size="13" lengthAdjust="spacingAndGlyphs" textLength="70" x="41" y="175.8076">inputs email</text>
        <polygon fill="#A80036" points="520,207.0156,530,211.0156,520,215.0156,524,211.0156" style="stroke: #A80036; stroke-width: 1.0;" />
        <line style="stroke: #A80036; stroke-width: 1.0;" x1="264" x2="526" y1="211.0156" y2="211.0156" /><text fill="#000000" font-family="sans-serif" font-size="13" lengthAdjust="spacingAndGlyphs" textLength="189" x="271" y="206.1592">getClientContainers(Client client)</text>
        <polygon fill="#A80036" points="738.5,237.3672,748.5,241.3672,738.5,245.3672,742.5,241.3672" style="stroke: #A80036; stroke-width: 1.0;" />
        <line style="stroke: #A80036; stroke-width: 1.0;" x1="542" x2="744.5" y1="241.3672" y2="241.3672" /><text fill="#000000" font-family="sans-serif" font-size="13" lengthAdjust="spacingAndGlyphs" textLength="102" x="549" y="236.5107">containerByAVL()</text>
        <polygon fill="#A80036" points="553,267.7188,543,271.7188,553,275.7188,549,271.7188" style="stroke: #A80036; stroke-width: 1.0;" />
        <line style="stroke: #A80036; stroke-width: 1.0;" x1="547" x2="749.5" y1="271.7188" y2="271.7188" /><text fill="#000000" font-family="sans-serif" font-size="13" lengthAdjust="spacingAndGlyphs" textLength="141" x="559" y="266.8623">List(Container container)</text>
        <polygon fill="#A80036" points="275,298.0703,265,302.0703,275,306.0703,271,302.0703" style="stroke: #A80036; stroke-width: 1.0;" />
        <line style="stroke: #A80036; stroke-width: 1.0;" x1="269" x2="536" y1="302.0703" y2="302.0703" /><text fill="#000000" font-family="sans-serif" font-size="13" lengthAdjust="spacingAndGlyphs" textLength="84" x="281" y="297.2139">List(Container)</text>
        <polygon fill="#A80036" points="45,328.4219,35,332.4219,45,336.4219,41,332.4219" style="stroke: #A80036; stroke-width: 1.0;" />
        <line style="stroke: #A80036; stroke-width: 1.0;" x1="39" x2="258" y1="332.4219" y2="332.4219" /><text fill="#000000" font-family="sans-serif" font-size="13" lengthAdjust="spacingAndGlyphs" textLength="180" x="51" y="327.5654">shows list of client's containers</text>
        <polygon fill="#A80036" points="242,358.7734,252,362.7734,242,366.7734,246,362.7734" style="stroke: #A80036; stroke-width: 1.0;" />
        <line style="stroke: #A80036; stroke-width: 1.0;" x1="34" x2="248" y1="362.7734" y2="362.7734" /><text fill="#000000" font-family="sans-serif" font-size="13" lengthAdjust="spacingAndGlyphs" textLength="113" x="41" y="357.917">picks one container</text>
        <polygon fill="#A80036" points="520,389.125,530,393.125,520,397.125,524,393.125" style="stroke: #A80036; stroke-width: 1.0;" />
        <line style="stroke: #A80036; stroke-width: 1.0;" x1="264" x2="526" y1="393.125" y2="393.125" /><text fill="#000000" font-family="sans-serif" font-size="13" lengthAdjust="spacingAndGlyphs" textLength="182" x="271" y="388.2686">findContainerVessel(rContainer)</text>
        <polygon fill="#A80036" points="872.5,419.4766,882.5,423.4766,872.5,427.4766,876.5,423.4766" style="stroke: #A80036; stroke-width: 1.0;" />
        <line style="stroke: #A80036; stroke-width: 1.0;" x1="542" x2="878.5" y1="423.4766" y2="423.4766" /><text fill="#000000" font-family="sans-serif" font-size="13" lengthAdjust="spacingAndGlyphs" textLength="150" x="549" y="418.6201">getCargoManifestByAVL()</text>
        <polygon fill="#A80036" points="553,449.8281,543,453.8281,553,457.8281,549,453.8281" style="stroke: #A80036; stroke-width: 1.0;" />
        <line style="stroke: #A80036; stroke-width: 1.0;" x1="547" x2="888.5" y1="453.8281" y2="453.8281" /><text fill="#000000" font-family="sans-serif" font-size="13" lengthAdjust="spacingAndGlyphs" textLength="112" x="559" y="448.9717">List(CargoManifest)</text>
        <polygon fill="#A80036" points="275,480.1797,265,484.1797,275,488.1797,271,484.1797" style="stroke: #A80036; stroke-width: 1.0;" />
        <line style="stroke: #A80036; stroke-width: 1.0;" x1="269" x2="536" y1="484.1797" y2="484.1797" /><text fill="#000000" font-family="sans-serif" font-size="13" lengthAdjust="spacingAndGlyphs" textLength="83" x="281" y="479.3232">CargoManifest</text>
        <polygon fill="#A80036" points="40,510.5313,30,514.5313,40,518.5313,36,514.5313" style="stroke: #A80036; stroke-width: 1.0;" />
        <line style="stroke: #A80036; stroke-width: 1.0;" x1="34" x2="258" y1="514.5313" y2="514.5313" /><text fill="#000000" font-family="sans-serif" font-size="13" lengthAdjust="spacingAndGlyphs" textLength="196" x="46" y="509.6748">returns containers lastest location</text>
        <!--
@startuml

actor Client as ACT
participant SearchContainerLocationByClientUI as UI
participant SearchContainerLocationByClientController as CTRL
participant ContainerStore as CStore
participant CargoManifestStore as CMStore

activate ACT
ACT -> UI : starts process
activate UI
UI -> ACT : asks for client's email
deactivate UI

ACT -> UI : inputs email
activate UI
UI -> CTRL : getClientContainers(Client client)
activate CTRL
CTRL -> CStore : containerByAVL()
activate CSTORE
CStore -> CTRL : List(Container container)
deactivate CSTORE
CTRL -> UI : List(Container)
deactivate CTRL
UI -> ACT : shows list of client's containers
deactivate UI

ACT -> UI : picks one container
activate UI
UI -> CTRL : findContainerVessel(rContainer)
activate CTRL
CTRL -> CMStore : getCargoManifestByAVL()
activate CMStore
CMStore -> CTRL : List(CargoManifest)
deactivate CMStore
CTRL -> UI : CargoManifest
deactivate CTRL

UI -> ACT : returns containers lastest location
deactivate UI
deactivate ACT

@enduml

PlantUML version 1.2018.14(Fri Dec 21 16:33:16 GMT 2018)
(GPL source distribution)
Java Runtime: Java(TM) SE Runtime Environment
JVM: Java HotSpot(TM) 64-Bit Server VM
Java Version: 1.8.0_221-b11
Operating System: Windows 10
OS Version: 10.0
Default Encoding: Cp1252
Language: pt
Country: PT
-->
    </g>
</svg>