<?xml version="1.0" encoding="UTF-8" standalone="no"?><svg xmlns="http://www.w3.org/2000/svg" xmlns:xlink="http://www.w3.org/1999/xlink" contentScriptType="application/ecmascript" contentStyleType="text/css" height="435px" preserveAspectRatio="none" style="width:623px;height:435px;background:#FFFFFF;" version="1.1" viewBox="0 0 623 435" width="623px" zoomAndPan="magnify"><defs><filter height="300%" id="f4urgqgtgv4ct" width="300%" x="-1" y="-1"><feGaussianBlur result="blurOut" stdDeviation="2.0"/><feColorMatrix in="blurOut" result="blurOut2" type="matrix" values="0 0 0 0 0 0 0 0 0 0 0 0 0 0 0 0 0 0 .4 0"/><feOffset dx="4.0" dy="4.0" in="blurOut2" result="blurOut3"/><feBlend in="SourceGraphic" in2="blurOut3" mode="normal"/></filter></defs><g><!--MD5=[e4d9eb866c47a43a13c1858980b07ae4]
class SearchContainerLocationByClientUI--><rect codeLine="2" fill="#FEFECE" filter="url(#f4urgqgtgv4ct)" height="61.8359" id="SearchContainerLocationByClientUI" style="stroke:#A80036;stroke-width:1.5;" width="229" x="17" y="14"/><ellipse cx="32" cy="30" fill="#ADD1B2" rx="11" ry="11" style="stroke:#A80036;stroke-width:1.0;"/><path d="M34,26.5 Q34.2031,26 34.4375,25.75 Q34.6719,25.5 34.9375,25.5 Q35.4063,25.5 35.7031,25.7813 Q36,26.0625 36,26.7188 L36,28.2813 Q36,28.9375 35.7188,29.2188 Q35.4375,29.5 35,29.5 Q34.6094,29.5 34.3594,29.3281 Q34.1094,29.1563 34,28.7031 Q33.9531,28.3906 33.7813,28.2188 Q33.4688,27.8906 32.9063,27.7031 Q32.3438,27.5 31.7813,27.5 Q31.0781,27.5 30.4844,27.7813 Q29.9063,28.0625 29.4531,28.6875 Q29,29.3125 29,30.1719 L29,31.0938 Q29,32.125 29.8438,32.8125 Q30.6875,33.5 32.1875,33.5 Q33.0781,33.5 33.7031,33.2969 Q34.0625,33.1875 34.4688,32.8281 Q34.7344,32.625 34.875,32.5625 Q35.0156,32.5 35.1875,32.5 Q35.5156,32.5 35.75,32.7656 Q36,33.0156 36,33.375 Q36,33.7188 35.6563,34.125 Q35.1563,34.7188 34.3594,35.0469 Q33.3125,35.5 32.0313,35.5 Q30.5313,35.5 29.3281,34.9063 Q28.3594,34.4375 27.6719,33.4219 Q27,32.4063 27,31.2031 L27,30.1094 Q27,28.8594 27.5938,27.7656 Q28.2031,26.6719 29.25,26.0938 Q30.3125,25.5 31.5,25.5 Q32.2188,25.5 32.8438,25.75 Q33.4688,26 34,26.5 Z " fill="#000000"/><text fill="#000000" font-family="sans-serif" font-size="12" lengthAdjust="spacing" textLength="197" x="46" y="34.9102">SearchContainerLocationByClientUI</text><line style="stroke:#A80036;stroke-width:1.5;" x1="18" x2="245" y1="46" y2="46"/><line style="stroke:#A80036;stroke-width:1.5;" x1="18" x2="245" y1="54" y2="54"/><ellipse cx="28" cy="65" fill="#84BE84" rx="3" ry="3" style="stroke:#038048;stroke-width:1.0;"/><text fill="#000000" font-family="sans-serif" font-size="11" lengthAdjust="spacing" textLength="24" x="37" y="69.4189">run()</text><!--MD5=[94819441fa9581e732e4b33ac1250a45]
class SearchContainerLocationByClientController--><rect codeLine="6" fill="#FEFECE" filter="url(#f4urgqgtgv4ct)" height="75.6719" id="SearchContainerLocationByClientController" style="stroke:#A80036;stroke-width:1.5;" width="271" x="313" y="7"/><ellipse cx="328" cy="23" fill="#ADD1B2" rx="11" ry="11" style="stroke:#A80036;stroke-width:1.0;"/><path d="M330,19.5 Q330.2031,19 330.4375,18.75 Q330.6719,18.5 330.9375,18.5 Q331.4063,18.5 331.7031,18.7813 Q332,19.0625 332,19.7188 L332,21.2813 Q332,21.9375 331.7188,22.2188 Q331.4375,22.5 331,22.5 Q330.6094,22.5 330.3594,22.3281 Q330.1094,22.1563 330,21.7031 Q329.9531,21.3906 329.7813,21.2188 Q329.4688,20.8906 328.9063,20.7031 Q328.3438,20.5 327.7813,20.5 Q327.0781,20.5 326.4844,20.7813 Q325.9063,21.0625 325.4531,21.6875 Q325,22.3125 325,23.1719 L325,24.0938 Q325,25.125 325.8438,25.8125 Q326.6875,26.5 328.1875,26.5 Q329.0781,26.5 329.7031,26.2969 Q330.0625,26.1875 330.4688,25.8281 Q330.7344,25.625 330.875,25.5625 Q331.0156,25.5 331.1875,25.5 Q331.5156,25.5 331.75,25.7656 Q332,26.0156 332,26.375 Q332,26.7188 331.6563,27.125 Q331.1563,27.7188 330.3594,28.0469 Q329.3125,28.5 328.0313,28.5 Q326.5313,28.5 325.3281,27.9063 Q324.3594,27.4375 323.6719,26.4219 Q323,25.4063 323,24.2031 L323,23.1094 Q323,21.8594 323.5938,20.7656 Q324.2031,19.6719 325.25,19.0938 Q326.3125,18.5 327.5,18.5 Q328.2188,18.5 328.8438,18.75 Q329.4688,19 330,19.5 Z " fill="#000000"/><text fill="#000000" font-family="sans-serif" font-size="12" lengthAdjust="spacing" textLength="239" x="342" y="27.9102">SearchContainerLocationByClientController</text><line style="stroke:#A80036;stroke-width:1.5;" x1="314" x2="583" y1="39" y2="39"/><line style="stroke:#A80036;stroke-width:1.5;" x1="314" x2="583" y1="47" y2="47"/><ellipse cx="324" cy="58" fill="#84BE84" rx="3" ry="3" style="stroke:#038048;stroke-width:1.0;"/><text fill="#000000" font-family="sans-serif" font-size="11" lengthAdjust="spacing" textLength="129" x="333" y="62.4189">getClientContainers(String)</text><ellipse cx="324" cy="71.8359" fill="#84BE84" rx="3" ry="3" style="stroke:#038048;stroke-width:1.0;"/><text fill="#000000" font-family="sans-serif" font-size="11" lengthAdjust="spacing" textLength="152" x="333" y="76.2549">findContainerVessel(Container)</text><!--MD5=[e9a58730c562b34349daa605d1ed6662]
class Container--><rect codeLine="11" fill="#FEFECE" filter="url(#f4urgqgtgv4ct)" height="48" id="Container" style="stroke:#A80036;stroke-width:1.5;" width="86" x="348.5" y="150"/><ellipse cx="363.5" cy="166" fill="#ADD1B2" rx="11" ry="11" style="stroke:#A80036;stroke-width:1.0;"/><path d="M365.5,162.5 Q365.7031,162 365.9375,161.75 Q366.1719,161.5 366.4375,161.5 Q366.9063,161.5 367.2031,161.7813 Q367.5,162.0625 367.5,162.7188 L367.5,164.2813 Q367.5,164.9375 367.2188,165.2188 Q366.9375,165.5 366.5,165.5 Q366.1094,165.5 365.8594,165.3281 Q365.6094,165.1563 365.5,164.7031 Q365.4531,164.3906 365.2813,164.2188 Q364.9688,163.8906 364.4063,163.7031 Q363.8438,163.5 363.2813,163.5 Q362.5781,163.5 361.9844,163.7813 Q361.4063,164.0625 360.9531,164.6875 Q360.5,165.3125 360.5,166.1719 L360.5,167.0938 Q360.5,168.125 361.3438,168.8125 Q362.1875,169.5 363.6875,169.5 Q364.5781,169.5 365.2031,169.2969 Q365.5625,169.1875 365.9688,168.8281 Q366.2344,168.625 366.375,168.5625 Q366.5156,168.5 366.6875,168.5 Q367.0156,168.5 367.25,168.7656 Q367.5,169.0156 367.5,169.375 Q367.5,169.7188 367.1563,170.125 Q366.6563,170.7188 365.8594,171.0469 Q364.8125,171.5 363.5313,171.5 Q362.0313,171.5 360.8281,170.9063 Q359.8594,170.4375 359.1719,169.4219 Q358.5,168.4063 358.5,167.2031 L358.5,166.1094 Q358.5,164.8594 359.0938,163.7656 Q359.7031,162.6719 360.75,162.0938 Q361.8125,161.5 363,161.5 Q363.7188,161.5 364.3438,161.75 Q364.9688,162 365.5,162.5 Z " fill="#000000"/><text fill="#000000" font-family="sans-serif" font-size="12" lengthAdjust="spacing" textLength="54" x="377.5" y="170.9102">Container</text><line style="stroke:#A80036;stroke-width:1.5;" x1="349.5" x2="433.5" y1="182" y2="182"/><line style="stroke:#A80036;stroke-width:1.5;" x1="349.5" x2="433.5" y1="190" y2="190"/><!--MD5=[76562047389981627aea27c31a97aff5]
class CargoManifest--><rect codeLine="15" fill="#FEFECE" filter="url(#f4urgqgtgv4ct)" height="48" id="CargoManifest" style="stroke:#A80036;stroke-width:1.5;" width="112" x="482.5" y="373"/><ellipse cx="497.5" cy="389" fill="#ADD1B2" rx="11" ry="11" style="stroke:#A80036;stroke-width:1.0;"/><path d="M499.5,385.5 Q499.7031,385 499.9375,384.75 Q500.1719,384.5 500.4375,384.5 Q500.9063,384.5 501.2031,384.7813 Q501.5,385.0625 501.5,385.7188 L501.5,387.2813 Q501.5,387.9375 501.2188,388.2188 Q500.9375,388.5 500.5,388.5 Q500.1094,388.5 499.8594,388.3281 Q499.6094,388.1563 499.5,387.7031 Q499.4531,387.3906 499.2813,387.2188 Q498.9688,386.8906 498.4063,386.7031 Q497.8438,386.5 497.2813,386.5 Q496.5781,386.5 495.9844,386.7813 Q495.4063,387.0625 494.9531,387.6875 Q494.5,388.3125 494.5,389.1719 L494.5,390.0938 Q494.5,391.125 495.3438,391.8125 Q496.1875,392.5 497.6875,392.5 Q498.5781,392.5 499.2031,392.2969 Q499.5625,392.1875 499.9688,391.8281 Q500.2344,391.625 500.375,391.5625 Q500.5156,391.5 500.6875,391.5 Q501.0156,391.5 501.25,391.7656 Q501.5,392.0156 501.5,392.375 Q501.5,392.7188 501.1563,393.125 Q500.6563,393.7188 499.8594,394.0469 Q498.8125,394.5 497.5313,394.5 Q496.0313,394.5 494.8281,393.9063 Q493.8594,393.4375 493.1719,392.4219 Q492.5,391.4063 492.5,390.2031 L492.5,389.1094 Q492.5,387.8594 493.0938,386.7656 Q493.7031,385.6719 494.75,385.0938 Q495.8125,384.5 497,384.5 Q497.7188,384.5 498.3438,384.75 Q498.9688,385 499.5,385.5 Z " fill="#000000"/><text fill="#000000" font-family="sans-serif" font-size="12" lengthAdjust="spacing" textLength="80" x="511.5" y="393.9102">CargoManifest</text><line style="stroke:#A80036;stroke-width:1.5;" x1="483.5" x2="593.5" y1="405" y2="405"/><line style="stroke:#A80036;stroke-width:1.5;" x1="483.5" x2="593.5" y1="413" y2="413"/><!--MD5=[02e4b9b7573f1156f41e60aa5b4e25a4]
class Company--><rect codeLine="19" fill="#FEFECE" filter="url(#f4urgqgtgv4ct)" height="61.8359" id="Company" style="stroke:#A80036;stroke-width:1.5;" width="137" x="470" y="143"/><ellipse cx="508.4" cy="159" fill="#ADD1B2" rx="11" ry="11" style="stroke:#A80036;stroke-width:1.0;"/><path d="M510.4,155.5 Q510.6031,155 510.8375,154.75 Q511.0719,154.5 511.3375,154.5 Q511.8063,154.5 512.1031,154.7813 Q512.4,155.0625 512.4,155.7188 L512.4,157.2813 Q512.4,157.9375 512.1188,158.2188 Q511.8375,158.5 511.4,158.5 Q511.0094,158.5 510.7594,158.3281 Q510.5094,158.1563 510.4,157.7031 Q510.3531,157.3906 510.1813,157.2188 Q509.8688,156.8906 509.3063,156.7031 Q508.7438,156.5 508.1813,156.5 Q507.4781,156.5 506.8844,156.7813 Q506.3063,157.0625 505.8531,157.6875 Q505.4,158.3125 505.4,159.1719 L505.4,160.0938 Q505.4,161.125 506.2438,161.8125 Q507.0875,162.5 508.5875,162.5 Q509.4781,162.5 510.1031,162.2969 Q510.4625,162.1875 510.8688,161.8281 Q511.1344,161.625 511.275,161.5625 Q511.4156,161.5 511.5875,161.5 Q511.9156,161.5 512.15,161.7656 Q512.4,162.0156 512.4,162.375 Q512.4,162.7188 512.0563,163.125 Q511.5563,163.7188 510.7594,164.0469 Q509.7125,164.5 508.4313,164.5 Q506.9313,164.5 505.7281,163.9063 Q504.7594,163.4375 504.0719,162.4219 Q503.4,161.4063 503.4,160.2031 L503.4,159.1094 Q503.4,157.8594 503.9938,156.7656 Q504.6031,155.6719 505.65,155.0938 Q506.7125,154.5 507.9,154.5 Q508.6188,154.5 509.2438,154.75 Q509.8688,155 510.4,155.5 Z " fill="#000000"/><text fill="#000000" font-family="sans-serif" font-size="12" lengthAdjust="spacing" textLength="53" x="527.6" y="163.9102">Company</text><line style="stroke:#A80036;stroke-width:1.5;" x1="471" x2="606" y1="175" y2="175"/><ellipse cx="481" cy="186" rx="3" ry="3" style="stroke:#038048;stroke-width:1.0;fill:none;"/><text fill="#000000" font-family="sans-serif" font-size="11" lengthAdjust="spacing" textLength="111" x="490" y="190.4189">getCargoManifestStore</text><line style="stroke:#A80036;stroke-width:1.5;" x1="471" x2="606" y1="196.8359" y2="196.8359"/><!--MD5=[fa43e1e919c64a67a00347fbf972ded6]
class SearchContainerLocationByClientCTRL--><rect fill="#FEFECE" filter="url(#f4urgqgtgv4ct)" height="48" id="SearchContainerLocationByClientCTRL" style="stroke:#A80036;stroke-width:1.5;" width="249" x="7" y="150"/><ellipse cx="22" cy="166" fill="#ADD1B2" rx="11" ry="11" style="stroke:#A80036;stroke-width:1.0;"/><path d="M24,162.5 Q24.2031,162 24.4375,161.75 Q24.6719,161.5 24.9375,161.5 Q25.4063,161.5 25.7031,161.7813 Q26,162.0625 26,162.7188 L26,164.2813 Q26,164.9375 25.7188,165.2188 Q25.4375,165.5 25,165.5 Q24.6094,165.5 24.3594,165.3281 Q24.1094,165.1563 24,164.7031 Q23.9531,164.3906 23.7813,164.2188 Q23.4688,163.8906 22.9063,163.7031 Q22.3438,163.5 21.7813,163.5 Q21.0781,163.5 20.4844,163.7813 Q19.9063,164.0625 19.4531,164.6875 Q19,165.3125 19,166.1719 L19,167.0938 Q19,168.125 19.8438,168.8125 Q20.6875,169.5 22.1875,169.5 Q23.0781,169.5 23.7031,169.2969 Q24.0625,169.1875 24.4688,168.8281 Q24.7344,168.625 24.875,168.5625 Q25.0156,168.5 25.1875,168.5 Q25.5156,168.5 25.75,168.7656 Q26,169.0156 26,169.375 Q26,169.7188 25.6563,170.125 Q25.1563,170.7188 24.3594,171.0469 Q23.3125,171.5 22.0313,171.5 Q20.5313,171.5 19.3281,170.9063 Q18.3594,170.4375 17.6719,169.4219 Q17,168.4063 17,167.2031 L17,166.1094 Q17,164.8594 17.5938,163.7656 Q18.2031,162.6719 19.25,162.0938 Q20.3125,161.5 21.5,161.5 Q22.2188,161.5 22.8438,161.75 Q23.4688,162 24,162.5 Z " fill="#000000"/><text fill="#000000" font-family="sans-serif" font-size="12" lengthAdjust="spacing" textLength="217" x="36" y="170.9102">SearchContainerLocationByClientCTRL</text><line style="stroke:#A80036;stroke-width:1.5;" x1="8" x2="255" y1="182" y2="182"/><line style="stroke:#A80036;stroke-width:1.5;" x1="8" x2="255" y1="190" y2="190"/><!--MD5=[4ebfed50a2843d6810d5f28a3ed1348c]
class CargoManifestStore--><rect fill="#FEFECE" filter="url(#f4urgqgtgv4ct)" height="48" id="CargoManifestStore" style="stroke:#A80036;stroke-width:1.5;" width="141" x="468" y="265"/><ellipse cx="483" cy="281" fill="#ADD1B2" rx="11" ry="11" style="stroke:#A80036;stroke-width:1.0;"/><path d="M485,277.5 Q485.2031,277 485.4375,276.75 Q485.6719,276.5 485.9375,276.5 Q486.4063,276.5 486.7031,276.7813 Q487,277.0625 487,277.7188 L487,279.2813 Q487,279.9375 486.7188,280.2188 Q486.4375,280.5 486,280.5 Q485.6094,280.5 485.3594,280.3281 Q485.1094,280.1563 485,279.7031 Q484.9531,279.3906 484.7813,279.2188 Q484.4688,278.8906 483.9063,278.7031 Q483.3438,278.5 482.7813,278.5 Q482.0781,278.5 481.4844,278.7813 Q480.9063,279.0625 480.4531,279.6875 Q480,280.3125 480,281.1719 L480,282.0938 Q480,283.125 480.8438,283.8125 Q481.6875,284.5 483.1875,284.5 Q484.0781,284.5 484.7031,284.2969 Q485.0625,284.1875 485.4688,283.8281 Q485.7344,283.625 485.875,283.5625 Q486.0156,283.5 486.1875,283.5 Q486.5156,283.5 486.75,283.7656 Q487,284.0156 487,284.375 Q487,284.7188 486.6563,285.125 Q486.1563,285.7188 485.3594,286.0469 Q484.3125,286.5 483.0313,286.5 Q481.5313,286.5 480.3281,285.9063 Q479.3594,285.4375 478.6719,284.4219 Q478,283.4063 478,282.2031 L478,281.1094 Q478,279.8594 478.5938,278.7656 Q479.2031,277.6719 480.25,277.0938 Q481.3125,276.5 482.5,276.5 Q483.2188,276.5 483.8438,276.75 Q484.4688,277 485,277.5 Z " fill="#000000"/><text fill="#000000" font-family="sans-serif" font-size="12" lengthAdjust="spacing" textLength="109" x="497" y="285.9102">CargoManifestStore</text><line style="stroke:#A80036;stroke-width:1.5;" x1="469" x2="608" y1="297" y2="297"/><line style="stroke:#A80036;stroke-width:1.5;" x1="469" x2="608" y1="305" y2="305"/><!--MD5=[a58ef7ab174908e40a19ea1d5cac8244]
link SearchContainerLocationByClientUI to SearchContainerLocationByClientCTRL--><path codeLine="23" d="M131.5,76.1 C131.5,96.92 131.5,124.45 131.5,144.85 " fill="none" id="SearchContainerLocationByClientUI-to-SearchContainerLocationByClientCTRL" style="stroke:#A80036;stroke-width:1.0;stroke-dasharray:7.0,7.0;"/><polygon fill="#A80036" points="131.5,149.87,135.5,140.87,131.5,144.87,127.5,140.87,131.5,149.87" style="stroke:#A80036;stroke-width:1.0;"/><!--MD5=[91dc8e70bc1702fcd887c0eb1155cc79]
link SearchContainerLocationByClientController to Company--><path codeLine="24" d="M474.77,83.08 C487.21,100.62 501.97,121.45 514.15,138.64 " fill="none" id="SearchContainerLocationByClientController-to-Company" style="stroke:#A80036;stroke-width:1.0;stroke-dasharray:7.0,7.0;"/><polygon fill="#A80036" points="517.19,142.93,515.2266,133.2788,514.2892,138.8575,508.7106,137.9201,517.19,142.93" style="stroke:#A80036;stroke-width:1.0;"/><!--MD5=[091e7e5555d20c2e87a993879722993a]
link Company to CargoManifestStore--><path codeLine="25" d="M538.5,205.28 C538.5,222.08 538.5,242.85 538.5,259.38 " fill="none" id="Company-to-CargoManifestStore" style="stroke:#A80036;stroke-width:1.0;"/><polygon fill="#A80036" points="538.5,264.81,542.5,255.81,538.5,259.81,534.5,255.81,538.5,264.81" style="stroke:#A80036;stroke-width:1.0;"/><!--MD5=[f858fe3e0a975cbe8df455f793b528ba]
link CargoManifestStore to CargoManifest--><path codeLine="26" d="M538.5,313 C538.5,329 538.5,350.45 538.5,367.53 " fill="none" id="CargoManifestStore-to-CargoManifest" style="stroke:#A80036;stroke-width:1.0;"/><polygon fill="#A80036" points="538.5,372.68,542.5,363.68,538.5,367.68,534.5,363.68,538.5,372.68" style="stroke:#A80036;stroke-width:1.0;"/><!--MD5=[7aec7953ac71dd7683293fced6fe4141]
link SearchContainerLocationByClientController to Container--><path codeLine="27" d="M431.86,83.08 C423.03,102.75 412.35,126.55 404.2,144.71 " fill="none" id="SearchContainerLocationByClientController-to-Container" style="stroke:#A80036;stroke-width:1.0;"/><polygon fill="#A80036" points="401.97,149.68,409.3187,143.1228,404.0272,145.1228,402.0271,139.8313,401.97,149.68" style="stroke:#A80036;stroke-width:1.0;"/><!--MD5=[edda77db8934bc6702f1e80cf6c7068c]
@startuml

class SearchContainerLocationByClientUI{
  +run()
}

class SearchContainerLocationByClientController{
  +getClientContainers(String)
  +findContainerVessel(Container)
}

class Container{

}

class CargoManifest{

}

class Company{
  +getCargoManifestStore
}

 SearchContainerLocationByClientUI ..>  SearchContainerLocationByClientCTRL
 SearchContainerLocationByClientController ..> Company
Company - -> CargoManifestStore
CargoManifestStore - -> CargoManifest
 SearchContainerLocationByClientController - -> Container

@enduml

PlantUML version 1.2021.11(Sat Oct 02 14:26:11 BST 2021)
(GPL source distribution)
Java Runtime: OpenJDK Runtime Environment
JVM: OpenJDK 64-Bit Server VM
Default Encoding: Cp1252
Language: pt
Country: PT
--></g></svg>