<?xml version="1.0" encoding="UTF-8" standalone="no"?><svg xmlns="http://www.w3.org/2000/svg" xmlns:xlink="http://www.w3.org/1999/xlink" contentScriptType="application/ecmascript" contentStyleType="text/css" height="378px" preserveAspectRatio="none" style="width:393px;height:378px;" version="1.1" viewBox="0 0 393 378" width="393px" zoomAndPan="magnify">
    <defs>
        <filter height="300%" id="fnsfisn2tdhbc" width="300%" x="-1" y="-1">
            <feGaussianBlur result="blurOut" stdDeviation="2.0" />
            <feColorMatrix in="blurOut" result="blurOut2" type="matrix" values="0 0 0 0 0 0 0 0 0 0 0 0 0 0 0 0 0 0 .4 0" />
            <feOffset dx="4.0" dy="4.0" in="blurOut2" result="blurOut3" />
            <feBlend in="SourceGraphic" in2="blurOut3" mode="normal" />
        </filter>
    </defs>
    <g>
        <rect fill="#FFFFFF" filter="url(#fnsfisn2tdhbc)" height="174.1094" style="stroke: #A80036; stroke-width: 1.0;" width="10" x="24" y="97.6094" />
        <rect fill="#FFFFFF" filter="url(#fnsfisn2tdhbc)" height="30.3516" style="stroke: #A80036; stroke-width: 1.0;" width="10" x="275" y="119.9609" />
        <rect fill="#FFFFFF" filter="url(#fnsfisn2tdhbc)" height="30.3516" style="stroke: #A80036; stroke-width: 1.0;" width="10" x="275" y="180.6641" />
        <rect fill="#FFFFFF" filter="url(#fnsfisn2tdhbc)" height="39.3516" style="stroke: #A80036; stroke-width: 1.0;" width="10" x="349" y="241.3672" />
        <line style="stroke: #A80036; stroke-width: 1.0; stroke-dasharray: 5.0,5.0;" x1="29" x2="29" y1="87.6094" y2="289.7188" />
        <line style="stroke: #A80036; stroke-width: 1.0; stroke-dasharray: 5.0,5.0;" x1="280" x2="280" y1="87.6094" y2="289.7188" />
        <line style="stroke: #A80036; stroke-width: 1.0; stroke-dasharray: 5.0,5.0;" x1="354" x2="354" y1="87.6094" y2="289.7188" /><text fill="#000000" font-family="sans-serif" font-size="14" lengthAdjust="spacingAndGlyphs" textLength="36" x="8" y="84.5332">Client</text>
        <ellipse cx="29" cy="13" fill="#FEFECE" filter="url(#fnsfisn2tdhbc)" rx="8" ry="8" style="stroke: #A80036; stroke-width: 2.0;" />
        <path d="M29,21 L29,48 M16,29 L42,29 M29,48 L16,63 M29,48 L42,63 " fill="none" filter="url(#fnsfisn2tdhbc)" style="stroke: #A80036; stroke-width: 2.0;" /><text fill="#000000" font-family="sans-serif" font-size="14" lengthAdjust="spacingAndGlyphs" textLength="36" x="8" y="303.252">Client</text>
        <ellipse cx="29" cy="316.3281" fill="#FEFECE" filter="url(#fnsfisn2tdhbc)" rx="8" ry="8" style="stroke: #A80036; stroke-width: 2.0;" />
        <path d="M29,324.3281 L29,351.3281 M16,332.3281 L42,332.3281 M29,351.3281 L16,366.3281 M29,351.3281 L42,366.3281 " fill="none" filter="url(#fnsfisn2tdhbc)" style="stroke: #A80036; stroke-width: 2.0;" />
        <rect fill="#FEFECE" filter="url(#fnsfisn2tdhbc)" height="31.6094" style="stroke: #A80036; stroke-width: 1.5;" width="60" x="248" y="51" /><text fill="#000000" font-family="sans-serif" font-size="14" lengthAdjust="spacingAndGlyphs" textLength="46" x="255" y="72.5332">System</text>
        <rect fill="#FEFECE" filter="url(#fnsfisn2tdhbc)" height="31.6094" style="stroke: #A80036; stroke-width: 1.5;" width="60" x="248" y="288.7188" /><text fill="#000000" font-family="sans-serif" font-size="14" lengthAdjust="spacingAndGlyphs" textLength="46" x="255" y="310.252">System</text>
        <rect fill="#FEFECE" filter="url(#fnsfisn2tdhbc)" height="31.6094" style="stroke: #A80036; stroke-width: 1.5;" width="60" x="322" y="51" /><text fill="#000000" font-family="sans-serif" font-size="14" lengthAdjust="spacingAndGlyphs" textLength="46" x="329" y="72.5332">System</text>
        <rect fill="#FEFECE" filter="url(#fnsfisn2tdhbc)" height="31.6094" style="stroke: #A80036; stroke-width: 1.5;" width="60" x="322" y="288.7188" /><text fill="#000000" font-family="sans-serif" font-size="14" lengthAdjust="spacingAndGlyphs" textLength="46" x="329" y="310.252">System</text>
        <rect fill="#FFFFFF" filter="url(#fnsfisn2tdhbc)" height="174.1094" style="stroke: #A80036; stroke-width: 1.0;" width="10" x="24" y="97.6094" />
        <rect fill="#FFFFFF" filter="url(#fnsfisn2tdhbc)" height="30.3516" style="stroke: #A80036; stroke-width: 1.0;" width="10" x="275" y="119.9609" />
        <rect fill="#FFFFFF" filter="url(#fnsfisn2tdhbc)" height="30.3516" style="stroke: #A80036; stroke-width: 1.0;" width="10" x="275" y="180.6641" />
        <rect fill="#FFFFFF" filter="url(#fnsfisn2tdhbc)" height="39.3516" style="stroke: #A80036; stroke-width: 1.0;" width="10" x="349" y="241.3672" />
        <polygon fill="#A80036" points="263,115.9609,273,119.9609,263,123.9609,267,119.9609" style="stroke: #A80036; stroke-width: 1.0;" />
        <line style="stroke: #A80036; stroke-width: 1.0;" x1="34" x2="269" y1="119.9609" y2="119.9609" /><text fill="#000000" font-family="sans-serif" font-size="13" lengthAdjust="spacingAndGlyphs" textLength="83" x="41" y="115.1045">starts process</text>
        <polygon fill="#A80036" points="45,146.3125,35,150.3125,45,154.3125,41,150.3125" style="stroke: #A80036; stroke-width: 1.0;" />
        <line style="stroke: #A80036; stroke-width: 1.0;" x1="39" x2="279" y1="150.3125" y2="150.3125" /><text fill="#000000" font-family="sans-serif" font-size="13" lengthAdjust="spacingAndGlyphs" textLength="116" x="51" y="145.4561">asks for client email</text>
        <polygon fill="#A80036" points="263,176.6641,273,180.6641,263,184.6641,267,180.6641" style="stroke: #A80036; stroke-width: 1.0;" />
        <line style="stroke: #A80036; stroke-width: 1.0;" x1="34" x2="269" y1="180.6641" y2="180.6641" /><text fill="#000000" font-family="sans-serif" font-size="13" lengthAdjust="spacingAndGlyphs" textLength="105" x="41" y="175.8076">inputs client email</text>
        <polygon fill="#A80036" points="45,207.0156,35,211.0156,45,215.0156,41,211.0156" style="stroke: #A80036; stroke-width: 1.0;" />
        <line style="stroke: #A80036; stroke-width: 1.0;" x1="39" x2="279" y1="211.0156" y2="211.0156" /><text fill="#000000" font-family="sans-serif" font-size="13" lengthAdjust="spacingAndGlyphs" textLength="217" x="51" y="206.1592">shows list of target client's containers</text>
        <polygon fill="#A80036" points="268,237.3672,278,241.3672,268,245.3672,272,241.3672" style="stroke: #A80036; stroke-width: 1.0;" />
        <line style="stroke: #A80036; stroke-width: 1.0;" x1="34" x2="274" y1="241.3672" y2="241.3672" /><text fill="#000000" font-family="sans-serif" font-size="13" lengthAdjust="spacingAndGlyphs" textLength="113" x="41" y="236.5107">picks one container</text>
        <polygon fill="#A80036" points="40,267.7188,30,271.7188,40,275.7188,36,271.7188" style="stroke: #A80036; stroke-width: 1.0;" />
        <line style="stroke: #A80036; stroke-width: 1.0;" x1="34" x2="279" y1="271.7188" y2="271.7188" /><text fill="#000000" font-family="sans-serif" font-size="13" lengthAdjust="spacingAndGlyphs" textLength="143" x="46" y="266.8623">shows container location</text>
        <!--
@startuml

actor Client as ACT
participant System as SYS

activate ACT
ACT -> SYS : starts process
activate SYS

SYS -> ACT : asks for client email
deactivate SYS

ACT -> SYS : inputs client email
activate SYS
SYS -> ACT : shows list of target client's containers
deactivate SYS

ACT -> SYS : picks one container
activate System
SYS -> ACT : shows container location
deactivate SYS
deactivate ACT


@enduml

PlantUML version 1.2018.14(Fri Dec 21 16:33:16 GMT 2018)
(GPL source distribution)
Java Runtime: Java(TM) SE Runtime Environment
JVM: Java HotSpot(TM) 64-Bit Server VM
Java Version: 1.8.0_221-b11
Operating System: Windows 10
OS Version: 10.0
Default Encoding: Cp1252
Language: pt
Country: PT
-->
    </g>
</svg>