<?xml version="1.0" encoding="UTF-8" standalone="no"?><svg xmlns="http://www.w3.org/2000/svg" xmlns:xlink="http://www.w3.org/1999/xlink" contentScriptType="application/ecmascript" contentStyleType="text/css" height="378px" preserveAspectRatio="none" style="width:375px;height:378px;" version="1.1" viewBox="0 0 375 378" width="375px" zoomAndPan="magnify">
    <defs>
        <filter height="300%" id="f1m0sffk0mcxc9" width="300%" x="-1" y="-1">
            <feGaussianBlur result="blurOut" stdDeviation="2.0" />
            <feColorMatrix in="blurOut" result="blurOut2" type="matrix" values="0 0 0 0 0 0 0 0 0 0 0 0 0 0 0 0 0 0 .4 0" />
            <feOffset dx="4.0" dy="4.0" in="blurOut2" result="blurOut3" />
            <feBlend in="SourceGraphic" in2="blurOut3" mode="normal" />
        </filter>
    </defs>
    <g>
        <rect fill="#FFFFFF" filter="url(#f1m0sffk0mcxc9)" height="174.1094" style="stroke: #A80036; stroke-width: 1.0;" width="10" x="46.5" y="97.6094" />
        <rect fill="#FFFFFF" filter="url(#f1m0sffk0mcxc9)" height="30.3516" style="stroke: #A80036; stroke-width: 1.0;" width="10" x="331.5" y="119.9609" />
        <rect fill="#FFFFFF" filter="url(#f1m0sffk0mcxc9)" height="30.3516" style="stroke: #A80036; stroke-width: 1.0;" width="10" x="331.5" y="180.6641" />
        <rect fill="#FFFFFF" filter="url(#f1m0sffk0mcxc9)" height="30.3516" style="stroke: #A80036; stroke-width: 1.0;" width="10" x="331.5" y="241.3672" />
        <line style="stroke: #A80036; stroke-width: 1.0; stroke-dasharray: 5.0,5.0;" x1="51" x2="51" y1="87.6094" y2="289.7188" />
        <line style="stroke: #A80036; stroke-width: 1.0; stroke-dasharray: 5.0,5.0;" x1="336.5" x2="336.5" y1="87.6094" y2="289.7188" /><text fill="#000000" font-family="sans-serif" font-size="14" lengthAdjust="spacingAndGlyphs" textLength="81" x="8" y="84.5332">Ship Captain</text>
        <ellipse cx="51.5" cy="13" fill="#FEFECE" filter="url(#f1m0sffk0mcxc9)" rx="8" ry="8" style="stroke: #A80036; stroke-width: 2.0;" />
        <path d="M51.5,21 L51.5,48 M38.5,29 L64.5,29 M51.5,48 L38.5,63 M51.5,48 L64.5,63 " fill="none" filter="url(#f1m0sffk0mcxc9)" style="stroke: #A80036; stroke-width: 2.0;" /><text fill="#000000" font-family="sans-serif" font-size="14" lengthAdjust="spacingAndGlyphs" textLength="81" x="8" y="303.252">Ship Captain</text>
        <ellipse cx="51.5" cy="316.3281" fill="#FEFECE" filter="url(#f1m0sffk0mcxc9)" rx="8" ry="8" style="stroke: #A80036; stroke-width: 2.0;" />
        <path d="M51.5,324.3281 L51.5,351.3281 M38.5,332.3281 L64.5,332.3281 M51.5,351.3281 L38.5,366.3281 M51.5,351.3281 L64.5,366.3281 " fill="none" filter="url(#f1m0sffk0mcxc9)" style="stroke: #A80036; stroke-width: 2.0;" />
        <rect fill="#FEFECE" filter="url(#f1m0sffk0mcxc9)" height="31.6094" style="stroke: #A80036; stroke-width: 1.5;" width="60" x="304.5" y="51" /><text fill="#000000" font-family="sans-serif" font-size="14" lengthAdjust="spacingAndGlyphs" textLength="46" x="311.5" y="72.5332">System</text>
        <rect fill="#FEFECE" filter="url(#f1m0sffk0mcxc9)" height="31.6094" style="stroke: #A80036; stroke-width: 1.5;" width="60" x="304.5" y="288.7188" /><text fill="#000000" font-family="sans-serif" font-size="14" lengthAdjust="spacingAndGlyphs" textLength="46" x="311.5" y="310.252">System</text>
        <rect fill="#FFFFFF" filter="url(#f1m0sffk0mcxc9)" height="174.1094" style="stroke: #A80036; stroke-width: 1.0;" width="10" x="46.5" y="97.6094" />
        <rect fill="#FFFFFF" filter="url(#f1m0sffk0mcxc9)" height="30.3516" style="stroke: #A80036; stroke-width: 1.0;" width="10" x="331.5" y="119.9609" />
        <rect fill="#FFFFFF" filter="url(#f1m0sffk0mcxc9)" height="30.3516" style="stroke: #A80036; stroke-width: 1.0;" width="10" x="331.5" y="180.6641" />
        <rect fill="#FFFFFF" filter="url(#f1m0sffk0mcxc9)" height="30.3516" style="stroke: #A80036; stroke-width: 1.0;" width="10" x="331.5" y="241.3672" />
        <polygon fill="#A80036" points="319.5,115.9609,329.5,119.9609,319.5,123.9609,323.5,119.9609" style="stroke: #A80036; stroke-width: 1.0;" />
        <line style="stroke: #A80036; stroke-width: 1.0;" x1="56.5" x2="325.5" y1="119.9609" y2="119.9609" /><text fill="#000000" font-family="sans-serif" font-size="13" lengthAdjust="spacingAndGlyphs" textLength="105" x="63.5" y="115.1045">starts the process</text>
        <polygon fill="#A80036" points="67.5,146.3125,57.5,150.3125,67.5,154.3125,63.5,150.3125" style="stroke: #A80036; stroke-width: 1.0;" />
        <line style="stroke: #A80036; stroke-width: 1.0;" x1="61.5" x2="335.5" y1="150.3125" y2="150.3125" /><text fill="#000000" font-family="sans-serif" font-size="13" lengthAdjust="spacingAndGlyphs" textLength="190" x="73.5" y="145.4561">shows list of ships to chose from</text>
        <polygon fill="#A80036" points="319.5,176.6641,329.5,180.6641,319.5,184.6641,323.5,180.6641" style="stroke: #A80036; stroke-width: 1.0;" />
        <line style="stroke: #A80036; stroke-width: 1.0;" x1="56.5" x2="325.5" y1="180.6641" y2="180.6641" /><text fill="#000000" font-family="sans-serif" font-size="13" lengthAdjust="spacingAndGlyphs" textLength="56" x="63.5" y="175.8076">picks one</text>
        <polygon fill="#A80036" points="67.5,207.0156,57.5,211.0156,67.5,215.0156,63.5,211.0156" style="stroke: #A80036; stroke-width: 1.0;" />
        <line style="stroke: #A80036; stroke-width: 1.0;" x1="61.5" x2="335.5" y1="211.0156" y2="211.0156" /><text fill="#000000" font-family="sans-serif" font-size="13" lengthAdjust="spacingAndGlyphs" textLength="251" x="73.5" y="206.1592">shows list of cargo manifests to chose from</text>
        <polygon fill="#A80036" points="319.5,237.3672,329.5,241.3672,319.5,245.3672,323.5,241.3672" style="stroke: #A80036; stroke-width: 1.0;" />
        <line style="stroke: #A80036; stroke-width: 1.0;" x1="56.5" x2="325.5" y1="241.3672" y2="241.3672" /><text fill="#000000" font-family="sans-serif" font-size="13" lengthAdjust="spacingAndGlyphs" textLength="56" x="63.5" y="236.5107">picks one</text>
        <polygon fill="#A80036" points="62.5,267.7188,52.5,271.7188,62.5,275.7188,58.5,271.7188" style="stroke: #A80036; stroke-width: 1.0;" />
        <line style="stroke: #A80036; stroke-width: 1.0;" x1="56.5" x2="335.5" y1="271.7188" y2="271.7188" /><text fill="#000000" font-family="sans-serif" font-size="13" lengthAdjust="spacingAndGlyphs" textLength="249" x="68.5" y="266.8623">calculates and presents information to user</text>
        <!--
@startuml

actor "Ship Captain" as USER

participant "System" as SYS

activate USER
USER -> SYS : starts the process
activate SYS
SYS -> USER : shows list of ships to chose from
deactivate SYS
USER -> SYS : picks one
activate SYS
SYS -> USER : shows list of cargo manifests to chose from
deactivate SYS
USER -> SYS : picks one
activate SYS
SYS -> USER : calculates and presents information to user
deactivate SYS
deactivate USER

@enduml

PlantUML version 1.2018.14(Fri Dec 21 16:33:16 GMT 2018)
(GPL source distribution)
Java Runtime: Java(TM) SE Runtime Environment
JVM: Java HotSpot(TM) 64-Bit Server VM
Java Version: 1.8.0_221-b11
Operating System: Windows 10
OS Version: 10.0
Default Encoding: Cp1252
Language: pt
Country: PT
-->
    </g>
</svg>