<?xml version="1.0" encoding="UTF-8" standalone="no"?><svg xmlns="http://www.w3.org/2000/svg" xmlns:xlink="http://www.w3.org/1999/xlink" contentScriptType="application/ecmascript" contentStyleType="text/css" height="559px" preserveAspectRatio="none" style="width:320px;height:559px;" version="1.1" viewBox="0 0 320 559" width="320px" zoomAndPan="magnify">
    <defs>
        <filter height="300%" id="f1wfbjs63w16a" width="300%" x="-1" y="-1">
            <feGaussianBlur result="blurOut" stdDeviation="2.0" />
            <feColorMatrix in="blurOut" result="blurOut2" type="matrix" values="0 0 0 0 0 0 0 0 0 0 0 0 0 0 0 0 0 0 .4 0" />
            <feOffset dx="4.0" dy="4.0" in="blurOut2" result="blurOut3" />
            <feBlend in="SourceGraphic" in2="blurOut3" mode="normal" />
        </filter>
    </defs>
    <g>
        <!--class ShipWaterPhysicsUI-->
        <rect fill="#FEFECE" filter="url(#f1wfbjs63w16a)" height="61.8359" id="ShipWaterPhysicsUI" style="stroke: #A80036; stroke-width: 1.5;" width="144" x="27" y="8" />
        <ellipse cx="42" cy="24" fill="#ADD1B2" rx="11" ry="11" style="stroke: #A80036; stroke-width: 1.0;" />
        <path d="M44.7656,19.875 Q44.9219,19.6563 45.1094,19.5469 Q45.2969,19.4375 45.5156,19.4375 Q45.8906,19.4375 46.125,19.6953 Q46.3594,19.9531 46.3594,20.5625 L46.3594,22.0156 Q46.3594,22.625 46.125,22.8906 Q45.8906,23.1563 45.5156,23.1563 Q45.1719,23.1563 44.9688,22.9531 Q44.7656,22.7656 44.6563,22.25 Q44.6094,21.8906 44.4219,21.7031 Q44.0938,21.3281 43.4844,21.1094 Q42.875,20.8906 42.25,20.8906 Q41.4844,20.8906 40.8516,21.2188 Q40.2188,21.5469 39.7266,22.2969 Q39.2344,23.0469 39.2344,24.0781 L39.2344,25.1719 Q39.2344,26.4063 40.125,27.2266 Q41.0156,28.0469 42.6094,28.0469 Q43.5469,28.0469 44.2031,27.7969 Q44.5938,27.6406 45.0156,27.2031 Q45.2813,26.9375 45.4297,26.8594 Q45.5781,26.7813 45.7813,26.7813 Q46.1094,26.7813 46.3672,27.0391 Q46.625,27.2969 46.625,27.6406 Q46.625,27.9844 46.2813,28.3906 Q45.7813,28.9688 44.9844,29.2969 Q43.9063,29.75 42.6094,29.75 Q41.0938,29.75 39.8906,29.125 Q38.9063,28.625 38.2188,27.5547 Q37.5313,26.4844 37.5313,25.2031 L37.5313,24.0469 Q37.5313,22.7188 38.1484,21.5703 Q38.7656,20.4219 39.8594,19.8047 Q40.9531,19.1875 42.1875,19.1875 Q42.9219,19.1875 43.5703,19.3516 Q44.2188,19.5156 44.7656,19.875 Z " /><text fill="#000000" font-family="sans-serif" font-size="12" lengthAdjust="spacingAndGlyphs" textLength="112" x="56" y="28.9102">ShipWaterPhysicsUI</text>
        <line style="stroke: #A80036; stroke-width: 1.5;" x1="28" x2="170" y1="40" y2="40" />
        <line style="stroke: #A80036; stroke-width: 1.5;" x1="28" x2="170" y1="48" y2="48" />
        <ellipse cx="38" cy="60.418" fill="#84BE84" rx="3" ry="3" style="stroke: #038048; stroke-width: 1.0;" /><text fill="#000000" font-family="sans-serif" font-size="11" lengthAdjust="spacingAndGlyphs" textLength="24" x="47" y="63.4189">run()</text>
        <!--class ShipWaterPhysicsController-->
        <rect fill="#FEFECE" filter="url(#f1wfbjs63w16a)" height="283.2109" id="ShipWaterPhysicsController" style="stroke: #A80036; stroke-width: 1.5;" width="186" x="6" y="130" />
        <ellipse cx="21" cy="146" fill="#ADD1B2" rx="11" ry="11" style="stroke: #A80036; stroke-width: 1.0;" />
        <path d="M23.7656,141.875 Q23.9219,141.6563 24.1094,141.5469 Q24.2969,141.4375 24.5156,141.4375 Q24.8906,141.4375 25.125,141.6953 Q25.3594,141.9531 25.3594,142.5625 L25.3594,144.0156 Q25.3594,144.625 25.125,144.8906 Q24.8906,145.1563 24.5156,145.1563 Q24.1719,145.1563 23.9688,144.9531 Q23.7656,144.7656 23.6563,144.25 Q23.6094,143.8906 23.4219,143.7031 Q23.0938,143.3281 22.4844,143.1094 Q21.875,142.8906 21.25,142.8906 Q20.4844,142.8906 19.8516,143.2188 Q19.2188,143.5469 18.7266,144.2969 Q18.2344,145.0469 18.2344,146.0781 L18.2344,147.1719 Q18.2344,148.4063 19.125,149.2266 Q20.0156,150.0469 21.6094,150.0469 Q22.5469,150.0469 23.2031,149.7969 Q23.5938,149.6406 24.0156,149.2031 Q24.2813,148.9375 24.4297,148.8594 Q24.5781,148.7813 24.7813,148.7813 Q25.1094,148.7813 25.3672,149.0391 Q25.625,149.2969 25.625,149.6406 Q25.625,149.9844 25.2813,150.3906 Q24.7813,150.9688 23.9844,151.2969 Q22.9063,151.75 21.6094,151.75 Q20.0938,151.75 18.8906,151.125 Q17.9063,150.625 17.2188,149.5547 Q16.5313,148.4844 16.5313,147.2031 L16.5313,146.0469 Q16.5313,144.7188 17.1484,143.5703 Q17.7656,142.4219 18.8594,141.8047 Q19.9531,141.1875 21.1875,141.1875 Q21.9219,141.1875 22.5703,141.3516 Q23.2188,141.5156 23.7656,141.875 Z " /><text fill="#000000" font-family="sans-serif" font-size="12" lengthAdjust="spacingAndGlyphs" textLength="154" x="35" y="150.9102">ShipWaterPhysicsController</text>
        <line style="stroke: #A80036; stroke-width: 1.5;" x1="7" x2="191" y1="162" y2="162" />
        <rect fill="none" height="6" style="stroke: #C82930; stroke-width: 1.0;" width="6" x="14" y="171.418" /><text fill="#000000" font-family="sans-serif" font-size="11" lengthAdjust="spacingAndGlyphs" textLength="25" x="26" y="177.4189">rShip</text>
        <rect fill="none" height="6" style="stroke: #C82930; stroke-width: 1.0;" width="6" x="14" y="185.2539" /><text fill="#000000" font-family="sans-serif" font-size="11" lengthAdjust="spacingAndGlyphs" textLength="69" x="26" y="191.2549">cargoManifest</text>
        <rect fill="none" height="6" style="stroke: #C82930; stroke-width: 1.0;" width="6" x="14" y="199.0898" /><text fill="#000000" font-family="sans-serif" font-size="11" lengthAdjust="spacingAndGlyphs" textLength="72" x="26" y="205.0908">numContainers</text>
        <rect fill="none" height="6" style="stroke: #C82930; stroke-width: 1.0;" width="6" x="14" y="212.9258" /><text fill="#000000" font-family="sans-serif" font-size="11" lengthAdjust="spacingAndGlyphs" textLength="65" x="26" y="218.9268">waterDensity</text>
        <rect fill="none" height="6" style="stroke: #C82930; stroke-width: 1.0;" width="6" x="14" y="226.7617" /><text fill="#000000" font-family="sans-serif" font-size="11" lengthAdjust="spacingAndGlyphs" textLength="78" x="26" y="232.7627">containerWeight</text>
        <rect fill="none" height="6" style="stroke: #C82930; stroke-width: 1.0;" width="6" x="14" y="240.5977" /><text fill="#000000" font-family="sans-serif" font-size="11" lengthAdjust="spacingAndGlyphs" textLength="94" x="26" y="246.5986">gravityAcceleration</text>
        <rect fill="none" height="6" style="stroke: #C82930; stroke-width: 1.0;" width="6" x="14" y="254.4336" /><text fill="#000000" font-family="sans-serif" font-size="11" lengthAdjust="spacingAndGlyphs" textLength="46" x="26" y="260.4346">totalMass</text>
        <rect fill="none" height="6" style="stroke: #C82930; stroke-width: 1.0;" width="6" x="14" y="268.2695" /><text fill="#000000" font-family="sans-serif" font-size="11" lengthAdjust="spacingAndGlyphs" textLength="81" x="26" y="274.2705">pressureExerted</text>
        <rect fill="none" height="6" style="stroke: #C82930; stroke-width: 1.0;" width="6" x="14" y="282.1055" /><text fill="#000000" font-family="sans-serif" font-size="11" lengthAdjust="spacingAndGlyphs" textLength="90" x="26" y="288.1064">heightAboveWater</text>
        <rect fill="none" height="6" style="stroke: #C82930; stroke-width: 1.0;" width="6" x="14" y="295.9414" /><text fill="#000000" font-family="sans-serif" font-size="11" lengthAdjust="spacingAndGlyphs" textLength="46" x="26" y="301.9424">heightDiff</text>
        <line style="stroke: #A80036; stroke-width: 1.5;" x1="7" x2="191" y1="308.3594" y2="308.3594" />
        <ellipse cx="17" cy="320.7773" fill="#84BE84" rx="3" ry="3" style="stroke: #038048; stroke-width: 1.0;" /><text fill="#000000" font-family="sans-serif" font-size="11" lengthAdjust="spacingAndGlyphs" textLength="61" x="26" y="323.7783">getShipList()</text>
        <ellipse cx="17" cy="334.6133" fill="#84BE84" rx="3" ry="3" style="stroke: #038048; stroke-width: 1.0;" /><text fill="#000000" font-family="sans-serif" font-size="11" lengthAdjust="spacingAndGlyphs" textLength="120" x="26" y="337.6143">getShipCargoManifests()</text>
        <ellipse cx="17" cy="348.4492" fill="#84BE84" rx="3" ry="3" style="stroke: #038048; stroke-width: 1.0;" /><text fill="#000000" font-family="sans-serif" font-size="11" lengthAdjust="spacingAndGlyphs" textLength="73" x="26" y="351.4502">calculateData()</text>
        <ellipse cx="17" cy="362.2852" fill="#84BE84" rx="3" ry="3" style="stroke: #038048; stroke-width: 1.0;" /><text fill="#000000" font-family="sans-serif" font-size="11" lengthAdjust="spacingAndGlyphs" textLength="100" x="26" y="365.2861">calculateTotalMass()</text>
        <ellipse cx="17" cy="376.1211" fill="#84BE84" rx="3" ry="3" style="stroke: #038048; stroke-width: 1.0;" /><text fill="#000000" font-family="sans-serif" font-size="11" lengthAdjust="spacingAndGlyphs" textLength="132" x="26" y="379.1221">calculatePressureExerted()</text>
        <ellipse cx="17" cy="389.957" fill="#84BE84" rx="3" ry="3" style="stroke: #038048; stroke-width: 1.0;" /><text fill="#000000" font-family="sans-serif" font-size="11" lengthAdjust="spacingAndGlyphs" textLength="142" x="26" y="392.958">calculateHeightAboveWater()</text>
        <ellipse cx="17" cy="403.793" fill="#84BE84" rx="3" ry="3" style="stroke: #038048; stroke-width: 1.0;" /><text fill="#000000" font-family="sans-serif" font-size="11" lengthAdjust="spacingAndGlyphs" textLength="81" x="26" y="406.7939">SummaryString()</text>
        <!--class Ship-->
        <rect fill="#FEFECE" filter="url(#f1wfbjs63w16a)" height="89.5078" id="Ship" style="stroke: #A80036; stroke-width: 1.5;" width="82" x="227" y="226.5" />
        <ellipse cx="253.25" cy="242.5" fill="#ADD1B2" rx="11" ry="11" style="stroke: #A80036; stroke-width: 1.0;" />
        <path d="M256.0156,238.375 Q256.1719,238.1563 256.3594,238.0469 Q256.5469,237.9375 256.7656,237.9375 Q257.1406,237.9375 257.375,238.1953 Q257.6094,238.4531 257.6094,239.0625 L257.6094,240.5156 Q257.6094,241.125 257.375,241.3906 Q257.1406,241.6563 256.7656,241.6563 Q256.4219,241.6563 256.2188,241.4531 Q256.0156,241.2656 255.9063,240.75 Q255.8594,240.3906 255.6719,240.2031 Q255.3438,239.8281 254.7344,239.6094 Q254.125,239.3906 253.5,239.3906 Q252.7344,239.3906 252.1016,239.7188 Q251.4688,240.0469 250.9766,240.7969 Q250.4844,241.5469 250.4844,242.5781 L250.4844,243.6719 Q250.4844,244.9063 251.375,245.7266 Q252.2656,246.5469 253.8594,246.5469 Q254.7969,246.5469 255.4531,246.2969 Q255.8438,246.1406 256.2656,245.7031 Q256.5313,245.4375 256.6797,245.3594 Q256.8281,245.2813 257.0313,245.2813 Q257.3594,245.2813 257.6172,245.5391 Q257.875,245.7969 257.875,246.1406 Q257.875,246.4844 257.5313,246.8906 Q257.0313,247.4688 256.2344,247.7969 Q255.1563,248.25 253.8594,248.25 Q252.3438,248.25 251.1406,247.625 Q250.1563,247.125 249.4688,246.0547 Q248.7813,244.9844 248.7813,243.7031 L248.7813,242.5469 Q248.7813,241.2188 249.3984,240.0703 Q250.0156,238.9219 251.1094,238.3047 Q252.2031,237.6875 253.4375,237.6875 Q254.1719,237.6875 254.8203,237.8516 Q255.4688,238.0156 256.0156,238.375 Z " /><text fill="#000000" font-family="sans-serif" font-size="12" lengthAdjust="spacingAndGlyphs" textLength="25" x="269.75" y="247.4102">Ship</text>
        <line style="stroke: #A80036; stroke-width: 1.5;" x1="228" x2="308" y1="258.5" y2="258.5" />
        <line style="stroke: #A80036; stroke-width: 1.5;" x1="228" x2="308" y1="266.5" y2="266.5" />
        <ellipse cx="238" cy="278.918" fill="#84BE84" rx="3" ry="3" style="stroke: #038048; stroke-width: 1.0;" /><text fill="#000000" font-family="sans-serif" font-size="11" lengthAdjust="spacingAndGlyphs" textLength="47" x="247" y="281.9189">getDraft()</text>
        <ellipse cx="238" cy="292.7539" fill="#84BE84" rx="3" ry="3" style="stroke: #038048; stroke-width: 1.0;" /><text fill="#000000" font-family="sans-serif" font-size="11" lengthAdjust="spacingAndGlyphs" textLength="50" x="247" y="295.7549">getWidth()</text>
        <ellipse cx="238" cy="306.5898" fill="#84BE84" rx="3" ry="3" style="stroke: #038048; stroke-width: 1.0;" /><text fill="#000000" font-family="sans-serif" font-size="11" lengthAdjust="spacingAndGlyphs" textLength="56" x="247" y="309.5908">getLength()</text>
        <!--class DataBaseUtils-->
        <rect fill="#FEFECE" filter="url(#f1wfbjs63w16a)" height="75.6719" id="DataBaseUtils" style="stroke: #A80036; stroke-width: 1.5;" width="146" x="26" y="473" />
        <ellipse cx="56.3" cy="489" fill="#ADD1B2" rx="11" ry="11" style="stroke: #A80036; stroke-width: 1.0;" />
        <path d="M59.0656,484.875 Q59.2219,484.6563 59.4094,484.5469 Q59.5969,484.4375 59.8156,484.4375 Q60.1906,484.4375 60.425,484.6953 Q60.6594,484.9531 60.6594,485.5625 L60.6594,487.0156 Q60.6594,487.625 60.425,487.8906 Q60.1906,488.1563 59.8156,488.1563 Q59.4719,488.1563 59.2688,487.9531 Q59.0656,487.7656 58.9563,487.25 Q58.9094,486.8906 58.7219,486.7031 Q58.3938,486.3281 57.7844,486.1094 Q57.175,485.8906 56.55,485.8906 Q55.7844,485.8906 55.1516,486.2188 Q54.5188,486.5469 54.0266,487.2969 Q53.5344,488.0469 53.5344,489.0781 L53.5344,490.1719 Q53.5344,491.4063 54.425,492.2266 Q55.3156,493.0469 56.9094,493.0469 Q57.8469,493.0469 58.5031,492.7969 Q58.8938,492.6406 59.3156,492.2031 Q59.5813,491.9375 59.7297,491.8594 Q59.8781,491.7813 60.0813,491.7813 Q60.4094,491.7813 60.6672,492.0391 Q60.925,492.2969 60.925,492.6406 Q60.925,492.9844 60.5813,493.3906 Q60.0813,493.9688 59.2844,494.2969 Q58.2063,494.75 56.9094,494.75 Q55.3938,494.75 54.1906,494.125 Q53.2063,493.625 52.5188,492.5547 Q51.8313,491.4844 51.8313,490.2031 L51.8313,489.0469 Q51.8313,487.7188 52.4484,486.5703 Q53.0656,485.4219 54.1594,484.8047 Q55.2531,484.1875 56.4875,484.1875 Q57.2219,484.1875 57.8703,484.3516 Q58.5188,484.5156 59.0656,484.875 Z " /><text fill="#000000" font-family="sans-serif" font-size="12" lengthAdjust="spacingAndGlyphs" textLength="80" x="73.7" y="493.9102">DataBaseUtils</text>
        <line style="stroke: #A80036; stroke-width: 1.5;" x1="27" x2="171" y1="505" y2="505" />
        <line style="stroke: #A80036; stroke-width: 1.5;" x1="27" x2="171" y1="513" y2="513" />
        <ellipse cx="37" cy="525.418" fill="#84BE84" rx="3" ry="3" style="stroke: #038048; stroke-width: 1.0;" /><text fill="#000000" font-family="sans-serif" font-size="11" lengthAdjust="spacingAndGlyphs" textLength="107" x="46" y="528.4189">getShipCaptainShips()</text>
        <ellipse cx="37" cy="539.2539" fill="#84BE84" rx="3" ry="3" style="stroke: #038048; stroke-width: 1.0;" /><text fill="#000000" font-family="sans-serif" font-size="11" lengthAdjust="spacingAndGlyphs" textLength="120" x="46" y="542.2549">getShipCargoManifests()</text>
        <!--link ShipWaterPhysicsUI to ShipWaterPhysicsController-->
        <path d="M99,70.134 C99,84.983 99,104.093 99,124.598 " fill="none" id="ShipWaterPhysicsUI-ShipWaterPhysicsController" style="stroke: #A80036; stroke-width: 1.0; stroke-dasharray: 7.0,7.0;" />
        <polygon fill="#A80036" points="99,129.839,103,120.839,99,124.839,95,120.839,99,129.839" style="stroke: #A80036; stroke-width: 1.0;" />
        <!--link ShipWaterPhysicsController to Ship-->
        <path d="M192.082,271.5 C201.931,271.5 211.78,271.5 221.629,271.5 " fill="none" id="ShipWaterPhysicsController-Ship" style="stroke: #A80036; stroke-width: 1.0;" />
        <polygon fill="#A80036" points="226.779,271.5,217.779,267.5,221.779,271.5,217.779,275.5,226.779,271.5" style="stroke: #A80036; stroke-width: 1.0;" />
        <!--link ShipWaterPhysicsController to DataBaseUtils-->
        <path d="M99,413.057 C99,432.854 99,451.8133 99,467.6316 " fill="none" id="ShipWaterPhysicsController-DataBaseUtils" style="stroke: #A80036; stroke-width: 1.0; stroke-dasharray: 7.0,7.0;" />
        <polygon fill="#A80036" points="99,472.8723,103,463.8723,99,467.8723,95,463.8723,99,472.8723" style="stroke: #A80036; stroke-width: 1.0;" />
        <!--
@startuml

class ShipWaterPhysicsUI {
  + run()
}

class ShipWaterPhysicsController  {
  - rShip
  - cargoManifest
  - numContainers
  - waterDensity
  - containerWeight
  - gravityAcceleration
  - totalMass
  - pressureExerted
  - heightAboveWater
  - heightDiff
  + getShipList()
  + getShipCargoManifests()
  + calculateData()
  + calculateTotalMass()
  + calculatePressureExerted()
  + calculateHeightAboveWater()
  + SummaryString()
}

class Ship  {
  + getDraft()
  + getWidth()
  + getLength()
}

class DataBaseUtils  {
  + getShipCaptainShips()
  + getShipCargoManifests()
}

ShipWaterPhysicsUI ..> ShipWaterPhysicsController
ShipWaterPhysicsController -> Ship
ShipWaterPhysicsController ..> DataBaseUtils

@enduml

PlantUML version 1.2018.14(Fri Dec 21 16:33:16 GMT 2018)
(GPL source distribution)
Java Runtime: Java(TM) SE Runtime Environment
JVM: Java HotSpot(TM) 64-Bit Server VM
Java Version: 1.8.0_221-b11
Operating System: Windows 10
OS Version: 10.0
Default Encoding: Cp1252
Language: pt
Country: PT
-->
    </g>
</svg>