<?xml version="1.0" encoding="UTF-8" standalone="no"?><svg xmlns="http://www.w3.org/2000/svg" xmlns:xlink="http://www.w3.org/1999/xlink" contentScriptType="application/ecmascript" contentStyleType="text/css" height="202px" preserveAspectRatio="none" style="width:587px;height:202px;" version="1.1" viewBox="0 0 587 202" width="587px" zoomAndPan="magnify">
    <defs>
        <filter height="300%" id="f1mi248mdao6we" width="300%" x="-1" y="-1">
            <feGaussianBlur result="blurOut" stdDeviation="2.0" />
            <feColorMatrix in="blurOut" result="blurOut2" type="matrix" values="0 0 0 0 0 0 0 0 0 0 0 0 0 0 0 0 0 0 .4 0" />
            <feOffset dx="4.0" dy="4.0" in="blurOut2" result="blurOut3" />
            <feBlend in="SourceGraphic" in2="blurOut3" mode="normal" />
        </filter>
    </defs>
    <g>
        <!--class FindAvailableShipsUI-->
        <rect fill="#FEFECE" filter="url(#f1mi248mdao6we)" height="61.8359" id="FindAvailableShipsUI" style="stroke: #A80036; stroke-width: 1.5;" width="149" x="27" y="8" />
        <ellipse cx="42" cy="24" fill="#ADD1B2" rx="11" ry="11" style="stroke: #A80036; stroke-width: 1.0;" />
        <path d="M44.7656,19.875 Q44.9219,19.6563 45.1094,19.5469 Q45.2969,19.4375 45.5156,19.4375 Q45.8906,19.4375 46.125,19.6953 Q46.3594,19.9531 46.3594,20.5625 L46.3594,22.0156 Q46.3594,22.625 46.125,22.8906 Q45.8906,23.1563 45.5156,23.1563 Q45.1719,23.1563 44.9688,22.9531 Q44.7656,22.7656 44.6563,22.25 Q44.6094,21.8906 44.4219,21.7031 Q44.0938,21.3281 43.4844,21.1094 Q42.875,20.8906 42.25,20.8906 Q41.4844,20.8906 40.8516,21.2188 Q40.2188,21.5469 39.7266,22.2969 Q39.2344,23.0469 39.2344,24.0781 L39.2344,25.1719 Q39.2344,26.4063 40.125,27.2266 Q41.0156,28.0469 42.6094,28.0469 Q43.5469,28.0469 44.2031,27.7969 Q44.5938,27.6406 45.0156,27.2031 Q45.2813,26.9375 45.4297,26.8594 Q45.5781,26.7813 45.7813,26.7813 Q46.1094,26.7813 46.3672,27.0391 Q46.625,27.2969 46.625,27.6406 Q46.625,27.9844 46.2813,28.3906 Q45.7813,28.9688 44.9844,29.2969 Q43.9063,29.75 42.6094,29.75 Q41.0938,29.75 39.8906,29.125 Q38.9063,28.625 38.2188,27.5547 Q37.5313,26.4844 37.5313,25.2031 L37.5313,24.0469 Q37.5313,22.7188 38.1484,21.5703 Q38.7656,20.4219 39.8594,19.8047 Q40.9531,19.1875 42.1875,19.1875 Q42.9219,19.1875 43.5703,19.3516 Q44.2188,19.5156 44.7656,19.875 Z " /><text fill="#000000" font-family="sans-serif" font-size="12" lengthAdjust="spacingAndGlyphs" textLength="117" x="56" y="28.9102">FindAvailableShipsUI</text>
        <line style="stroke: #A80036; stroke-width: 1.5;" x1="28" x2="175" y1="40" y2="40" />
        <line style="stroke: #A80036; stroke-width: 1.5;" x1="28" x2="175" y1="48" y2="48" />
        <ellipse cx="38" cy="60.418" fill="#84BE84" rx="3" ry="3" style="stroke: #038048; stroke-width: 1.0;" /><text fill="#000000" font-family="sans-serif" font-size="11" lengthAdjust="spacingAndGlyphs" textLength="24" x="47" y="63.4189">run()</text>
        <!--class FindAvailableShipsController-->
        <rect fill="#FEFECE" filter="url(#f1mi248mdao6we)" height="61.8359" id="FindAvailableShipsController" style="stroke: #A80036; stroke-width: 1.5;" width="191" x="6" y="130" />
        <ellipse cx="21" cy="146" fill="#ADD1B2" rx="11" ry="11" style="stroke: #A80036; stroke-width: 1.0;" />
        <path d="M23.7656,141.875 Q23.9219,141.6563 24.1094,141.5469 Q24.2969,141.4375 24.5156,141.4375 Q24.8906,141.4375 25.125,141.6953 Q25.3594,141.9531 25.3594,142.5625 L25.3594,144.0156 Q25.3594,144.625 25.125,144.8906 Q24.8906,145.1563 24.5156,145.1563 Q24.1719,145.1563 23.9688,144.9531 Q23.7656,144.7656 23.6563,144.25 Q23.6094,143.8906 23.4219,143.7031 Q23.0938,143.3281 22.4844,143.1094 Q21.875,142.8906 21.25,142.8906 Q20.4844,142.8906 19.8516,143.2188 Q19.2188,143.5469 18.7266,144.2969 Q18.2344,145.0469 18.2344,146.0781 L18.2344,147.1719 Q18.2344,148.4063 19.125,149.2266 Q20.0156,150.0469 21.6094,150.0469 Q22.5469,150.0469 23.2031,149.7969 Q23.5938,149.6406 24.0156,149.2031 Q24.2813,148.9375 24.4297,148.8594 Q24.5781,148.7813 24.7813,148.7813 Q25.1094,148.7813 25.3672,149.0391 Q25.625,149.2969 25.625,149.6406 Q25.625,149.9844 25.2813,150.3906 Q24.7813,150.9688 23.9844,151.2969 Q22.9063,151.75 21.6094,151.75 Q20.0938,151.75 18.8906,151.125 Q17.9063,150.625 17.2188,149.5547 Q16.5313,148.4844 16.5313,147.2031 L16.5313,146.0469 Q16.5313,144.7188 17.1484,143.5703 Q17.7656,142.4219 18.8594,141.8047 Q19.9531,141.1875 21.1875,141.1875 Q21.9219,141.1875 22.5703,141.3516 Q23.2188,141.5156 23.7656,141.875 Z " /><text fill="#000000" font-family="sans-serif" font-size="12" lengthAdjust="spacingAndGlyphs" textLength="159" x="35" y="150.9102">FindAvailableShipsController</text>
        <line style="stroke: #A80036; stroke-width: 1.5;" x1="7" x2="196" y1="162" y2="162" />
        <line style="stroke: #A80036; stroke-width: 1.5;" x1="7" x2="196" y1="170" y2="170" />
        <ellipse cx="17" cy="182.418" fill="#84BE84" rx="3" ry="3" style="stroke: #038048; stroke-width: 1.0;" /><text fill="#000000" font-family="sans-serif" font-size="11" lengthAdjust="spacingAndGlyphs" textLength="94" x="26" y="185.4189">getAvailableShips()</text>
        <!--class ShipStore-->
        <rect fill="#FEFECE" filter="url(#f1mi248mdao6we)" height="61.8359" id="ShipStore" style="stroke: #A80036; stroke-width: 1.5;" width="120" x="363.5" y="130" />
        <ellipse cx="393.8" cy="146" fill="#ADD1B2" rx="11" ry="11" style="stroke: #A80036; stroke-width: 1.0;" />
        <path d="M396.5656,141.875 Q396.7219,141.6563 396.9094,141.5469 Q397.0969,141.4375 397.3156,141.4375 Q397.6906,141.4375 397.925,141.6953 Q398.1594,141.9531 398.1594,142.5625 L398.1594,144.0156 Q398.1594,144.625 397.925,144.8906 Q397.6906,145.1563 397.3156,145.1563 Q396.9719,145.1563 396.7688,144.9531 Q396.5656,144.7656 396.4563,144.25 Q396.4094,143.8906 396.2219,143.7031 Q395.8938,143.3281 395.2844,143.1094 Q394.675,142.8906 394.05,142.8906 Q393.2844,142.8906 392.6516,143.2188 Q392.0188,143.5469 391.5266,144.2969 Q391.0344,145.0469 391.0344,146.0781 L391.0344,147.1719 Q391.0344,148.4063 391.925,149.2266 Q392.8156,150.0469 394.4094,150.0469 Q395.3469,150.0469 396.0031,149.7969 Q396.3938,149.6406 396.8156,149.2031 Q397.0813,148.9375 397.2297,148.8594 Q397.3781,148.7813 397.5813,148.7813 Q397.9094,148.7813 398.1672,149.0391 Q398.425,149.2969 398.425,149.6406 Q398.425,149.9844 398.0813,150.3906 Q397.5813,150.9688 396.7844,151.2969 Q395.7063,151.75 394.4094,151.75 Q392.8938,151.75 391.6906,151.125 Q390.7063,150.625 390.0188,149.5547 Q389.3313,148.4844 389.3313,147.2031 L389.3313,146.0469 Q389.3313,144.7188 389.9484,143.5703 Q390.5656,142.4219 391.6594,141.8047 Q392.7531,141.1875 393.9875,141.1875 Q394.7219,141.1875 395.3703,141.3516 Q396.0188,141.5156 396.5656,141.875 Z " /><text fill="#000000" font-family="sans-serif" font-size="12" lengthAdjust="spacingAndGlyphs" textLength="54" x="411.2" y="150.9102">ShipStore</text>
        <line style="stroke: #A80036; stroke-width: 1.5;" x1="364.5" x2="482.5" y1="162" y2="162" />
        <line style="stroke: #A80036; stroke-width: 1.5;" x1="364.5" x2="482.5" y1="170" y2="170" />
        <ellipse cx="374.5" cy="182.418" fill="#84BE84" rx="3" ry="3" style="stroke: #038048; stroke-width: 1.0;" /><text fill="#000000" font-family="sans-serif" font-size="11" lengthAdjust="spacingAndGlyphs" textLength="94" x="383.5" y="185.4189">getShipByCallsign()</text>
        <!--class Ship-->
        <rect fill="#FEFECE" filter="url(#f1mi248mdao6we)" height="48" id="Ship" style="stroke: #A80036; stroke-width: 1.5;" width="57" x="519" y="137" />
        <ellipse cx="534" cy="153" fill="#ADD1B2" rx="11" ry="11" style="stroke: #A80036; stroke-width: 1.0;" />
        <path d="M536.7656,148.875 Q536.9219,148.6563 537.1094,148.5469 Q537.2969,148.4375 537.5156,148.4375 Q537.8906,148.4375 538.125,148.6953 Q538.3594,148.9531 538.3594,149.5625 L538.3594,151.0156 Q538.3594,151.625 538.125,151.8906 Q537.8906,152.1563 537.5156,152.1563 Q537.1719,152.1563 536.9688,151.9531 Q536.7656,151.7656 536.6563,151.25 Q536.6094,150.8906 536.4219,150.7031 Q536.0938,150.3281 535.4844,150.1094 Q534.875,149.8906 534.25,149.8906 Q533.4844,149.8906 532.8516,150.2188 Q532.2188,150.5469 531.7266,151.2969 Q531.2344,152.0469 531.2344,153.0781 L531.2344,154.1719 Q531.2344,155.4063 532.125,156.2266 Q533.0156,157.0469 534.6094,157.0469 Q535.5469,157.0469 536.2031,156.7969 Q536.5938,156.6406 537.0156,156.2031 Q537.2813,155.9375 537.4297,155.8594 Q537.5781,155.7813 537.7813,155.7813 Q538.1094,155.7813 538.3672,156.0391 Q538.625,156.2969 538.625,156.6406 Q538.625,156.9844 538.2813,157.3906 Q537.7813,157.9688 536.9844,158.2969 Q535.9063,158.75 534.6094,158.75 Q533.0938,158.75 531.8906,158.125 Q530.9063,157.625 530.2188,156.5547 Q529.5313,155.4844 529.5313,154.2031 L529.5313,153.0469 Q529.5313,151.7188 530.1484,150.5703 Q530.7656,149.4219 531.8594,148.8047 Q532.9531,148.1875 534.1875,148.1875 Q534.9219,148.1875 535.5703,148.3516 Q536.2188,148.5156 536.7656,148.875 Z " /><text fill="#000000" font-family="sans-serif" font-size="12" lengthAdjust="spacingAndGlyphs" textLength="25" x="548" y="157.9102">Ship</text>
        <line style="stroke: #A80036; stroke-width: 1.5;" x1="520" x2="575" y1="169" y2="169" />
        <line style="stroke: #A80036; stroke-width: 1.5;" x1="520" x2="575" y1="177" y2="177" />
        <!--class Company-->
        <rect fill="#FEFECE" filter="url(#f1mi248mdao6we)" height="61.8359" id="Company" style="stroke: #A80036; stroke-width: 1.5;" width="96" x="232.5" y="130" />
        <ellipse cx="252.45" cy="146" fill="#ADD1B2" rx="11" ry="11" style="stroke: #A80036; stroke-width: 1.0;" />
        <path d="M255.2156,141.875 Q255.3719,141.6563 255.5594,141.5469 Q255.7469,141.4375 255.9656,141.4375 Q256.3406,141.4375 256.575,141.6953 Q256.8094,141.9531 256.8094,142.5625 L256.8094,144.0156 Q256.8094,144.625 256.575,144.8906 Q256.3406,145.1563 255.9656,145.1563 Q255.6219,145.1563 255.4188,144.9531 Q255.2156,144.7656 255.1063,144.25 Q255.0594,143.8906 254.8719,143.7031 Q254.5438,143.3281 253.9344,143.1094 Q253.325,142.8906 252.7,142.8906 Q251.9344,142.8906 251.3016,143.2188 Q250.6688,143.5469 250.1766,144.2969 Q249.6844,145.0469 249.6844,146.0781 L249.6844,147.1719 Q249.6844,148.4063 250.575,149.2266 Q251.4656,150.0469 253.0594,150.0469 Q253.9969,150.0469 254.6531,149.7969 Q255.0438,149.6406 255.4656,149.2031 Q255.7313,148.9375 255.8797,148.8594 Q256.0281,148.7813 256.2313,148.7813 Q256.5594,148.7813 256.8172,149.0391 Q257.075,149.2969 257.075,149.6406 Q257.075,149.9844 256.7313,150.3906 Q256.2313,150.9688 255.4344,151.2969 Q254.3563,151.75 253.0594,151.75 Q251.5438,151.75 250.3406,151.125 Q249.3563,150.625 248.6688,149.5547 Q247.9813,148.4844 247.9813,147.2031 L247.9813,146.0469 Q247.9813,144.7188 248.5984,143.5703 Q249.2156,142.4219 250.3094,141.8047 Q251.4031,141.1875 252.6375,141.1875 Q253.3719,141.1875 254.0203,141.3516 Q254.6688,141.5156 255.2156,141.875 Z " /><text fill="#000000" font-family="sans-serif" font-size="12" lengthAdjust="spacingAndGlyphs" textLength="53" x="267.55" y="150.9102">Company</text>
        <line style="stroke: #A80036; stroke-width: 1.5;" x1="233.5" x2="327.5" y1="162" y2="162" />
        <line style="stroke: #A80036; stroke-width: 1.5;" x1="233.5" x2="327.5" y1="170" y2="170" />
        <ellipse cx="243.5" cy="182.418" fill="#84BE84" rx="3" ry="3" style="stroke: #038048; stroke-width: 1.0;" /><text fill="#000000" font-family="sans-serif" font-size="11" lengthAdjust="spacingAndGlyphs" textLength="70" x="252.5" y="185.4189">getShipStore()</text>
        <!--link FindAvailableShipsUI to FindAvailableShipsController-->
        <path d="M101.5,70.281 C101.5,86.767 101.5,107.257 101.5,124.4923 " fill="none" id="FindAvailableShipsUI-FindAvailableShipsController" style="stroke: #A80036; stroke-width: 1.0; stroke-dasharray: 7.0,7.0;" />
        <polygon fill="#A80036" points="101.5,129.7286,105.5,120.7286,101.5,124.7286,97.5,120.7286,101.5,129.7286" style="stroke: #A80036; stroke-width: 1.0;" />
        <!--link FindAvailableShipsController to Company-->
        <path d="M197.293,161 C207.257,161 217.221,161 227.185,161 " fill="none" id="FindAvailableShipsController-Company" style="stroke: #A80036; stroke-width: 1.0;" />
        <polygon fill="#A80036" points="232.396,161,223.396,157,227.396,161,223.396,165,232.396,161" style="stroke: #A80036; stroke-width: 1.0;" />
        <!--link Company to ShipStore-->
        <path d="M328.539,161 C338.437,161 348.334,161 358.232,161 " fill="none" id="Company-ShipStore" style="stroke: #A80036; stroke-width: 1.0;" />
        <polygon fill="#A80036" points="363.408,161,354.408,157,358.408,161,354.408,165,363.408,161" style="stroke: #A80036; stroke-width: 1.0;" />
        <!--link ShipStore to Ship-->
        <path d="M483.563,161 C493.488,161 503.413,161 513.338,161 " fill="none" id="ShipStore-Ship" style="stroke: #A80036; stroke-width: 1.0;" />
        <polygon fill="#A80036" points="518.528,161,509.528,157,513.528,161,509.528,165,518.528,161" style="stroke: #A80036; stroke-width: 1.0;" />
        <!--
@startuml

class FindAvailableShipsUI{
  +run()
}

class FindAvailableShipsController{
  +getAvailableShips()
}

class ShipStore{
  +getShipByCallsign()
}

class Ship{

}

class Company{
  +getShipStore()
}

FindAvailableShipsUI ..> FindAvailableShipsController
FindAvailableShipsController -> Company
Company -> ShipStore
ShipStore -> Ship

@enduml

PlantUML version 1.2018.14(Fri Dec 21 16:33:16 GMT 2018)
(GPL source distribution)
Java Runtime: Java(TM) SE Runtime Environment
JVM: Java HotSpot(TM) 64-Bit Server VM
Java Version: 1.8.0_221-b11
Operating System: Windows 10
OS Version: 10.0
Default Encoding: Cp1252
Language: pt
Country: PT
-->
    </g>
</svg>