<?xml version="1.0" encoding="UTF-8" standalone="no"?><svg xmlns="http://www.w3.org/2000/svg" xmlns:xlink="http://www.w3.org/1999/xlink" contentScriptType="application/ecmascript" contentStyleType="text/css" height="234px" preserveAspectRatio="none" style="width:194px;height:234px;" version="1.1" viewBox="0 0 194 234" width="194px" zoomAndPan="magnify">
    <defs>
        <filter height="300%" id="ff99e4k5a45pr" width="300%" x="-1" y="-1">
            <feGaussianBlur result="blurOut" stdDeviation="2.0" />
            <feColorMatrix in="blurOut" result="blurOut2" type="matrix" values="0 0 0 0 0 0 0 0 0 0 0 0 0 0 0 0 0 0 .4 0" />
            <feOffset dx="4.0" dy="4.0" in="blurOut2" result="blurOut3" />
            <feBlend in="SourceGraphic" in2="blurOut3" mode="normal" />
        </filter>
    </defs>
    <g>
        <!--class Ship-->
        <rect fill="#FEFECE" filter="url(#ff99e4k5a45pr)" height="89.5078" id="Ship" style="stroke: #A80036; stroke-width: 1.5;" width="98" x="15" y="134" />
        <ellipse cx="48.45" cy="150" fill="#ADD1B2" rx="11" ry="11" style="stroke: #A80036; stroke-width: 1.0;" />
        <path d="M51.2156,145.875 Q51.3719,145.6563 51.5594,145.5469 Q51.7469,145.4375 51.9656,145.4375 Q52.3406,145.4375 52.575,145.6953 Q52.8094,145.9531 52.8094,146.5625 L52.8094,148.0156 Q52.8094,148.625 52.575,148.8906 Q52.3406,149.1563 51.9656,149.1563 Q51.6219,149.1563 51.4188,148.9531 Q51.2156,148.7656 51.1063,148.25 Q51.0594,147.8906 50.8719,147.7031 Q50.5438,147.3281 49.9344,147.1094 Q49.325,146.8906 48.7,146.8906 Q47.9344,146.8906 47.3016,147.2188 Q46.6688,147.5469 46.1766,148.2969 Q45.6844,149.0469 45.6844,150.0781 L45.6844,151.1719 Q45.6844,152.4063 46.575,153.2266 Q47.4656,154.0469 49.0594,154.0469 Q49.9969,154.0469 50.6531,153.7969 Q51.0438,153.6406 51.4656,153.2031 Q51.7313,152.9375 51.8797,152.8594 Q52.0281,152.7813 52.2313,152.7813 Q52.5594,152.7813 52.8172,153.0391 Q53.075,153.2969 53.075,153.6406 Q53.075,153.9844 52.7313,154.3906 Q52.2313,154.9688 51.4344,155.2969 Q50.3563,155.75 49.0594,155.75 Q47.5438,155.75 46.3406,155.125 Q45.3563,154.625 44.6688,153.5547 Q43.9813,152.4844 43.9813,151.2031 L43.9813,150.0469 Q43.9813,148.7188 44.5984,147.5703 Q45.2156,146.4219 46.3094,145.8047 Q47.4031,145.1875 48.6375,145.1875 Q49.3719,145.1875 50.0203,145.3516 Q50.6688,145.5156 51.2156,145.875 Z " /><text fill="#000000" font-family="sans-serif" font-size="12" lengthAdjust="spacingAndGlyphs" textLength="25" x="66.55" y="154.9102">Ship</text>
        <line style="stroke: #A80036; stroke-width: 1.5;" x1="16" x2="112" y1="166" y2="166" />
        <rect fill="none" height="6" style="stroke: #C82930; stroke-width: 1.0;" width="6" x="23" y="175.418" /><text fill="#000000" font-family="sans-serif" font-size="11" lengthAdjust="spacingAndGlyphs" textLength="39" x="35" y="181.4189">int MMSI</text>
        <rect fill="none" height="6" style="stroke: #C82930; stroke-width: 1.0;" width="6" x="23" y="189.2539" /><text fill="#000000" font-family="sans-serif" font-size="11" lengthAdjust="spacingAndGlyphs" textLength="49" x="35" y="195.2549">String IMO</text>
        <rect fill="none" height="6" style="stroke: #C82930; stroke-width: 1.0;" width="6" x="23" y="203.0898" /><text fill="#000000" font-family="sans-serif" font-size="11" lengthAdjust="spacingAndGlyphs" textLength="72" x="35" y="209.0908">String Call Sign</text>
        <line style="stroke: #A80036; stroke-width: 1.5;" x1="16" x2="112" y1="215.5078" y2="215.5078" />
        <!--class TM-->
        <rect fill="#FEFECE" filter="url(#ff99e4k5a45pr)" height="48" id="TM" style="stroke: #A80036; stroke-width: 1.5;" width="116" x="6" y="8" />
        <ellipse cx="21" cy="24" fill="#ADD1B2" rx="11" ry="11" style="stroke: #A80036; stroke-width: 1.0;" />
        <path d="M23.7656,19.875 Q23.9219,19.6563 24.1094,19.5469 Q24.2969,19.4375 24.5156,19.4375 Q24.8906,19.4375 25.125,19.6953 Q25.3594,19.9531 25.3594,20.5625 L25.3594,22.0156 Q25.3594,22.625 25.125,22.8906 Q24.8906,23.1563 24.5156,23.1563 Q24.1719,23.1563 23.9688,22.9531 Q23.7656,22.7656 23.6563,22.25 Q23.6094,21.8906 23.4219,21.7031 Q23.0938,21.3281 22.4844,21.1094 Q21.875,20.8906 21.25,20.8906 Q20.4844,20.8906 19.8516,21.2188 Q19.2188,21.5469 18.7266,22.2969 Q18.2344,23.0469 18.2344,24.0781 L18.2344,25.1719 Q18.2344,26.4063 19.125,27.2266 Q20.0156,28.0469 21.6094,28.0469 Q22.5469,28.0469 23.2031,27.7969 Q23.5938,27.6406 24.0156,27.2031 Q24.2813,26.9375 24.4297,26.8594 Q24.5781,26.7813 24.7813,26.7813 Q25.1094,26.7813 25.3672,27.0391 Q25.625,27.2969 25.625,27.6406 Q25.625,27.9844 25.2813,28.3906 Q24.7813,28.9688 23.9844,29.2969 Q22.9063,29.75 21.6094,29.75 Q20.0938,29.75 18.8906,29.125 Q17.9063,28.625 17.2188,27.5547 Q16.5313,26.4844 16.5313,25.2031 L16.5313,24.0469 Q16.5313,22.7188 17.1484,21.5703 Q17.7656,20.4219 18.8594,19.8047 Q19.9531,19.1875 21.1875,19.1875 Q21.9219,19.1875 22.5703,19.3516 Q23.2188,19.5156 23.7656,19.875 Z " /><text fill="#000000" font-family="sans-serif" font-size="12" lengthAdjust="spacingAndGlyphs" textLength="84" x="35" y="28.9102">Traffic Manager</text>
        <line style="stroke: #A80036; stroke-width: 1.5;" x1="7" x2="121" y1="40" y2="40" />
        <line style="stroke: #A80036; stroke-width: 1.5;" x1="7" x2="121" y1="48" y2="48" />
        <!--link TM to Ship-->
        <path d="M64,56.297 C64,75.804 64,104.308 64,128.8284 " fill="none" id="TM-Ship" style="stroke: #A80036; stroke-width: 1.0;" />
        <polygon fill="#A80036" points="64,133.9955,68,124.9955,64,128.9955,60,124.9955,64,133.9955" style="stroke: #A80036; stroke-width: 1.0;" /><text fill="#000000" font-family="sans-serif" font-size="13" lengthAdjust="spacingAndGlyphs" textLength="117" x="65" y="100.4951">controls position of&gt;</text><text fill="#000000" font-family="sans-serif" font-size="13" lengthAdjust="spacingAndGlyphs" textLength="7" x="56.1906" y="77.3014">1</text><text fill="#000000" font-family="sans-serif" font-size="13" lengthAdjust="spacingAndGlyphs" textLength="20" x="42.4063" y="123.1108">0..*</text>
        <!--
@startuml

class Ship{
    -int MMSI
    -String IMO
    -String Call Sign
}

class "Traffic Manager" as TM{
}

TM "1" - -> "0..*" Ship : controls position of>

@enduml

PlantUML version 1.2018.14(Fri Dec 21 16:33:16 GMT 2018)
(GPL source distribution)
Java Runtime: Java(TM) SE Runtime Environment
JVM: Java HotSpot(TM) 64-Bit Server VM
Java Version: 1.8.0_221-b11
Operating System: Windows 10
OS Version: 10.0
Default Encoding: Cp1252
Language: pt
Country: PT
-->
    </g>
</svg>