<?xml version="1.0" encoding="UTF-8" standalone="no"?><svg xmlns="http://www.w3.org/2000/svg" xmlns:xlink="http://www.w3.org/1999/xlink" contentScriptType="application/ecmascript" contentStyleType="text/css" height="378px" preserveAspectRatio="none" style="width:474px;height:378px;" version="1.1" viewBox="0 0 474 378" width="474px" zoomAndPan="magnify">
    <defs>
        <filter height="300%" id="f13spcm78lab8m" width="300%" x="-1" y="-1">
            <feGaussianBlur result="blurOut" stdDeviation="2.0" />
            <feColorMatrix in="blurOut" result="blurOut2" type="matrix" values="0 0 0 0 0 0 0 0 0 0 0 0 0 0 0 0 0 0 .4 0" />
            <feOffset dx="4.0" dy="4.0" in="blurOut2" result="blurOut3" />
            <feBlend in="SourceGraphic" in2="blurOut3" mode="normal" />
        </filter>
    </defs>
    <g>
        <rect fill="#FFFFFF" filter="url(#f13spcm78lab8m)" height="174.1094" style="stroke: #A80036; stroke-width: 1.0;" width="10" x="56" y="97.6094" />
        <rect fill="#FFFFFF" filter="url(#f13spcm78lab8m)" height="30.3516" style="stroke: #A80036; stroke-width: 1.0;" width="10" x="430" y="119.9609" />
        <rect fill="#FFFFFF" filter="url(#f13spcm78lab8m)" height="30.3516" style="stroke: #A80036; stroke-width: 1.0;" width="10" x="430" y="180.6641" />
        <rect fill="#FFFFFF" filter="url(#f13spcm78lab8m)" height="30.3516" style="stroke: #A80036; stroke-width: 1.0;" width="10" x="430" y="241.3672" />
        <line style="stroke: #A80036; stroke-width: 1.0; stroke-dasharray: 5.0,5.0;" x1="61" x2="61" y1="87.6094" y2="289.7188" />
        <line style="stroke: #A80036; stroke-width: 1.0; stroke-dasharray: 5.0,5.0;" x1="435" x2="435" y1="87.6094" y2="289.7188" /><text fill="#000000" font-family="sans-serif" font-size="14" lengthAdjust="spacingAndGlyphs" textLength="100" x="8" y="84.5332">Traffic Manager</text>
        <ellipse cx="61" cy="13" fill="#FEFECE" filter="url(#f13spcm78lab8m)" rx="8" ry="8" style="stroke: #A80036; stroke-width: 2.0;" />
        <path d="M61,21 L61,48 M48,29 L74,29 M61,48 L48,63 M61,48 L74,63 " fill="none" filter="url(#f13spcm78lab8m)" style="stroke: #A80036; stroke-width: 2.0;" /><text fill="#000000" font-family="sans-serif" font-size="14" lengthAdjust="spacingAndGlyphs" textLength="100" x="8" y="303.252">Traffic Manager</text>
        <ellipse cx="61" cy="316.3281" fill="#FEFECE" filter="url(#f13spcm78lab8m)" rx="8" ry="8" style="stroke: #A80036; stroke-width: 2.0;" />
        <path d="M61,324.3281 L61,351.3281 M48,332.3281 L74,332.3281 M61,351.3281 L48,366.3281 M61,351.3281 L74,366.3281 " fill="none" filter="url(#f13spcm78lab8m)" style="stroke: #A80036; stroke-width: 2.0;" />
        <rect fill="#FEFECE" filter="url(#f13spcm78lab8m)" height="31.6094" style="stroke: #A80036; stroke-width: 1.5;" width="60" x="403" y="51" /><text fill="#000000" font-family="sans-serif" font-size="14" lengthAdjust="spacingAndGlyphs" textLength="46" x="410" y="72.5332">System</text>
        <rect fill="#FEFECE" filter="url(#f13spcm78lab8m)" height="31.6094" style="stroke: #A80036; stroke-width: 1.5;" width="60" x="403" y="288.7188" /><text fill="#000000" font-family="sans-serif" font-size="14" lengthAdjust="spacingAndGlyphs" textLength="46" x="410" y="310.252">System</text>
        <rect fill="#FFFFFF" filter="url(#f13spcm78lab8m)" height="174.1094" style="stroke: #A80036; stroke-width: 1.0;" width="10" x="56" y="97.6094" />
        <rect fill="#FFFFFF" filter="url(#f13spcm78lab8m)" height="30.3516" style="stroke: #A80036; stroke-width: 1.0;" width="10" x="430" y="119.9609" />
        <rect fill="#FFFFFF" filter="url(#f13spcm78lab8m)" height="30.3516" style="stroke: #A80036; stroke-width: 1.0;" width="10" x="430" y="180.6641" />
        <rect fill="#FFFFFF" filter="url(#f13spcm78lab8m)" height="30.3516" style="stroke: #A80036; stroke-width: 1.0;" width="10" x="430" y="241.3672" />
        <polygon fill="#A80036" points="418,115.9609,428,119.9609,418,123.9609,422,119.9609" style="stroke: #A80036; stroke-width: 1.0;" />
        <line style="stroke: #A80036; stroke-width: 1.0;" x1="66" x2="424" y1="119.9609" y2="119.9609" /><text fill="#000000" font-family="sans-serif" font-size="13" lengthAdjust="spacingAndGlyphs" textLength="345" x="73" y="115.1045">initiates the search ship by MMSI, IMO or Call sign process</text>
        <polygon fill="#A80036" points="77,146.3125,67,150.3125,77,154.3125,73,150.3125" style="stroke: #A80036; stroke-width: 1.0;" />
        <line style="stroke: #A80036; stroke-width: 1.0;" x1="71" x2="434" y1="150.3125" y2="150.3125" /><text fill="#000000" font-family="sans-serif" font-size="13" lengthAdjust="spacingAndGlyphs" textLength="228" x="83" y="145.4561">asks for which search parameter to use</text>
        <polygon fill="#A80036" points="418,176.6641,428,180.6641,418,184.6641,422,180.6641" style="stroke: #A80036; stroke-width: 1.0;" />
        <line style="stroke: #A80036; stroke-width: 1.0;" x1="66" x2="424" y1="180.6641" y2="180.6641" /><text fill="#000000" font-family="sans-serif" font-size="13" lengthAdjust="spacingAndGlyphs" textLength="165" x="73" y="175.8076">chooses a search parameter</text>
        <polygon fill="#A80036" points="77,207.0156,67,211.0156,77,215.0156,73,211.0156" style="stroke: #A80036; stroke-width: 1.0;" />
        <line style="stroke: #A80036; stroke-width: 1.0;" x1="71" x2="434" y1="211.0156" y2="211.0156" /><text fill="#000000" font-family="sans-serif" font-size="13" lengthAdjust="spacingAndGlyphs" textLength="258" x="83" y="206.1592">asks to submit search parameter information</text>
        <polygon fill="#A80036" points="418,237.3672,428,241.3672,418,245.3672,422,241.3672" style="stroke: #A80036; stroke-width: 1.0;" />
        <line style="stroke: #A80036; stroke-width: 1.0;" x1="66" x2="424" y1="241.3672" y2="241.3672" /><text fill="#000000" font-family="sans-serif" font-size="13" lengthAdjust="spacingAndGlyphs" textLength="180" x="73" y="236.5107">submits the search parameters</text>
        <polygon fill="#A80036" points="72,267.7188,62,271.7188,72,275.7188,68,271.7188" style="stroke: #A80036; stroke-width: 1.0;" />
        <line style="stroke: #A80036; stroke-width: 1.0;" x1="66" x2="434" y1="271.7188" y2="271.7188" /><text fill="#000000" font-family="sans-serif" font-size="13" lengthAdjust="spacingAndGlyphs" textLength="126" x="78" y="266.8623">shows requested ship</text>
        <!--
@startuml

actor "Traffic Manager" as ACT
participant "System" as SYS

activate ACT
ACT -> SYS : initiates the search ship by MMSI, IMO or Call sign process
activate SYS
SYS -> ACT : asks for which search parameter to use
deactivate SYS

ACT -> SYS : chooses a search parameter
activate SYS
SYS -> ACT : asks to submit search parameter information
deactivate SYS

ACT -> SYS : submits the search parameters
activate SYS
SYS -> ACT : shows requested ship
deactivate SYS
deactivate ACT

@enduml

PlantUML version 1.2018.14(Fri Dec 21 16:33:16 GMT 2018)
(GPL source distribution)
Java Runtime: Java(TM) SE Runtime Environment
JVM: Java HotSpot(TM) 64-Bit Server VM
Java Version: 1.8.0_221-b11
Operating System: Windows 10
OS Version: 10.0
Default Encoding: Cp1252
Language: pt
Country: PT
-->
    </g>
</svg>