<?xml version="1.0" encoding="UTF-8" standalone="no"?><svg xmlns="http://www.w3.org/2000/svg" xmlns:xlink="http://www.w3.org/1999/xlink" contentScriptType="application/ecmascript" contentStyleType="text/css" height="597px" preserveAspectRatio="none" style="width:193px;height:597px;" version="1.1" viewBox="0 0 193 597" width="193px" zoomAndPan="magnify">
    <defs>
        <filter height="300%" id="fti8pumckbi97" width="300%" x="-1" y="-1">
            <feGaussianBlur result="blurOut" stdDeviation="2.0" />
            <feColorMatrix in="blurOut" result="blurOut2" type="matrix" values="0 0 0 0 0 0 0 0 0 0 0 0 0 0 0 0 0 0 .4 0" />
            <feOffset dx="4.0" dy="4.0" in="blurOut2" result="blurOut3" />
            <feBlend in="SourceGraphic" in2="blurOut3" mode="normal" />
        </filter>
    </defs>
    <g>
        <!--class SearchShipUI-->
        <rect fill="#FEFECE" filter="url(#fti8pumckbi97)" height="48" id="SearchShipUI" style="stroke: #A80036; stroke-width: 1.5;" width="108" x="40" y="8" />
        <ellipse cx="55" cy="24" fill="#ADD1B2" rx="11" ry="11" style="stroke: #A80036; stroke-width: 1.0;" />
        <path d="M57.7656,19.875 Q57.9219,19.6563 58.1094,19.5469 Q58.2969,19.4375 58.5156,19.4375 Q58.8906,19.4375 59.125,19.6953 Q59.3594,19.9531 59.3594,20.5625 L59.3594,22.0156 Q59.3594,22.625 59.125,22.8906 Q58.8906,23.1563 58.5156,23.1563 Q58.1719,23.1563 57.9688,22.9531 Q57.7656,22.7656 57.6563,22.25 Q57.6094,21.8906 57.4219,21.7031 Q57.0938,21.3281 56.4844,21.1094 Q55.875,20.8906 55.25,20.8906 Q54.4844,20.8906 53.8516,21.2188 Q53.2188,21.5469 52.7266,22.2969 Q52.2344,23.0469 52.2344,24.0781 L52.2344,25.1719 Q52.2344,26.4063 53.125,27.2266 Q54.0156,28.0469 55.6094,28.0469 Q56.5469,28.0469 57.2031,27.7969 Q57.5938,27.6406 58.0156,27.2031 Q58.2813,26.9375 58.4297,26.8594 Q58.5781,26.7813 58.7813,26.7813 Q59.1094,26.7813 59.3672,27.0391 Q59.625,27.2969 59.625,27.6406 Q59.625,27.9844 59.2813,28.3906 Q58.7813,28.9688 57.9844,29.2969 Q56.9063,29.75 55.6094,29.75 Q54.0938,29.75 52.8906,29.125 Q51.9063,28.625 51.2188,27.5547 Q50.5313,26.4844 50.5313,25.2031 L50.5313,24.0469 Q50.5313,22.7188 51.1484,21.5703 Q51.7656,20.4219 52.8594,19.8047 Q53.9531,19.1875 55.1875,19.1875 Q55.9219,19.1875 56.5703,19.3516 Q57.2188,19.5156 57.7656,19.875 Z " /><text fill="#000000" font-family="sans-serif" font-size="12" lengthAdjust="spacingAndGlyphs" textLength="76" x="69" y="28.9102">SearchShipUI</text>
        <line style="stroke: #A80036; stroke-width: 1.5;" x1="41" x2="147" y1="40" y2="40" />
        <line style="stroke: #A80036; stroke-width: 1.5;" x1="41" x2="147" y1="48" y2="48" />
        <!--class SearchShipController-->
        <rect fill="#FEFECE" filter="url(#fti8pumckbi97)" height="89.5078" id="SearchShipController" style="stroke: #A80036; stroke-width: 1.5;" width="176" x="6" y="116" />
        <ellipse cx="32.7" cy="132" fill="#ADD1B2" rx="11" ry="11" style="stroke: #A80036; stroke-width: 1.0;" />
        <path d="M35.4656,127.875 Q35.6219,127.6563 35.8094,127.5469 Q35.9969,127.4375 36.2156,127.4375 Q36.5906,127.4375 36.825,127.6953 Q37.0594,127.9531 37.0594,128.5625 L37.0594,130.0156 Q37.0594,130.625 36.825,130.8906 Q36.5906,131.1563 36.2156,131.1563 Q35.8719,131.1563 35.6688,130.9531 Q35.4656,130.7656 35.3563,130.25 Q35.3094,129.8906 35.1219,129.7031 Q34.7938,129.3281 34.1844,129.1094 Q33.575,128.8906 32.95,128.8906 Q32.1844,128.8906 31.5516,129.2188 Q30.9188,129.5469 30.4266,130.2969 Q29.9344,131.0469 29.9344,132.0781 L29.9344,133.1719 Q29.9344,134.4063 30.825,135.2266 Q31.7156,136.0469 33.3094,136.0469 Q34.2469,136.0469 34.9031,135.7969 Q35.2938,135.6406 35.7156,135.2031 Q35.9813,134.9375 36.1297,134.8594 Q36.2781,134.7813 36.4813,134.7813 Q36.8094,134.7813 37.0672,135.0391 Q37.325,135.2969 37.325,135.6406 Q37.325,135.9844 36.9813,136.3906 Q36.4813,136.9688 35.6844,137.2969 Q34.6063,137.75 33.3094,137.75 Q31.7938,137.75 30.5906,137.125 Q29.6063,136.625 28.9188,135.5547 Q28.2313,134.4844 28.2313,133.2031 L28.2313,132.0469 Q28.2313,130.7188 28.8484,129.5703 Q29.4656,128.4219 30.5594,127.8047 Q31.6531,127.1875 32.8875,127.1875 Q33.6219,127.1875 34.2703,127.3516 Q34.9188,127.5156 35.4656,127.875 Z " /><text fill="#000000" font-family="sans-serif" font-size="12" lengthAdjust="spacingAndGlyphs" textLength="118" x="49.3" y="136.9102">SearchShipController</text>
        <line style="stroke: #A80036; stroke-width: 1.5;" x1="7" x2="181" y1="148" y2="148" />
        <line style="stroke: #A80036; stroke-width: 1.5;" x1="7" x2="181" y1="156" y2="156" />
        <ellipse cx="17" cy="168.418" fill="#84BE84" rx="3" ry="3" style="stroke: #038048; stroke-width: 1.0;" /><text fill="#000000" font-family="sans-serif" font-size="11" lengthAdjust="spacingAndGlyphs" textLength="125" x="26" y="171.4189">searchShipByMMSI(mmsi)</text>
        <ellipse cx="17" cy="182.2539" fill="#84BE84" rx="3" ry="3" style="stroke: #038048; stroke-width: 1.0;" /><text fill="#000000" font-family="sans-serif" font-size="11" lengthAdjust="spacingAndGlyphs" textLength="110" x="26" y="185.2549">searchShipByIMO(imo)</text>
        <ellipse cx="17" cy="196.0898" fill="#84BE84" rx="3" ry="3" style="stroke: #038048; stroke-width: 1.0;" /><text fill="#000000" font-family="sans-serif" font-size="11" lengthAdjust="spacingAndGlyphs" textLength="150" x="26" y="199.0908">searchShipByCallSign(callsign)</text>
        <!--class Ship-->
        <rect fill="#FEFECE" filter="url(#fti8pumckbi97)" height="48" id="Ship" style="stroke: #A80036; stroke-width: 1.5;" width="57" x="65.5" y="538" />
        <ellipse cx="80.5" cy="554" fill="#ADD1B2" rx="11" ry="11" style="stroke: #A80036; stroke-width: 1.0;" />
        <path d="M83.2656,549.875 Q83.4219,549.6563 83.6094,549.5469 Q83.7969,549.4375 84.0156,549.4375 Q84.3906,549.4375 84.625,549.6953 Q84.8594,549.9531 84.8594,550.5625 L84.8594,552.0156 Q84.8594,552.625 84.625,552.8906 Q84.3906,553.1563 84.0156,553.1563 Q83.6719,553.1563 83.4688,552.9531 Q83.2656,552.7656 83.1563,552.25 Q83.1094,551.8906 82.9219,551.7031 Q82.5938,551.3281 81.9844,551.1094 Q81.375,550.8906 80.75,550.8906 Q79.9844,550.8906 79.3516,551.2188 Q78.7188,551.5469 78.2266,552.2969 Q77.7344,553.0469 77.7344,554.0781 L77.7344,555.1719 Q77.7344,556.4063 78.625,557.2266 Q79.5156,558.0469 81.1094,558.0469 Q82.0469,558.0469 82.7031,557.7969 Q83.0938,557.6406 83.5156,557.2031 Q83.7813,556.9375 83.9297,556.8594 Q84.0781,556.7813 84.2813,556.7813 Q84.6094,556.7813 84.8672,557.0391 Q85.125,557.2969 85.125,557.6406 Q85.125,557.9844 84.7813,558.3906 Q84.2813,558.9688 83.4844,559.2969 Q82.4063,559.75 81.1094,559.75 Q79.5938,559.75 78.3906,559.125 Q77.4063,558.625 76.7188,557.5547 Q76.0313,556.4844 76.0313,555.2031 L76.0313,554.0469 Q76.0313,552.7188 76.6484,551.5703 Q77.2656,550.4219 78.3594,549.8047 Q79.4531,549.1875 80.6875,549.1875 Q81.4219,549.1875 82.0703,549.3516 Q82.7188,549.5156 83.2656,549.875 Z " /><text fill="#000000" font-family="sans-serif" font-size="12" lengthAdjust="spacingAndGlyphs" textLength="25" x="94.5" y="558.9102">Ship</text>
        <line style="stroke: #A80036; stroke-width: 1.5;" x1="66.5" x2="121.5" y1="570" y2="570" />
        <line style="stroke: #A80036; stroke-width: 1.5;" x1="66.5" x2="121.5" y1="578" y2="578" />
        <!--class ShipStore-->
        <rect fill="#FEFECE" filter="url(#fti8pumckbi97)" height="89.5078" id="ShipStore" style="stroke: #A80036; stroke-width: 1.5;" width="157" x="15.5" y="388" />
        <ellipse cx="62.75" cy="404" fill="#ADD1B2" rx="11" ry="11" style="stroke: #A80036; stroke-width: 1.0;" />
        <path d="M65.5156,399.875 Q65.6719,399.6563 65.8594,399.5469 Q66.0469,399.4375 66.2656,399.4375 Q66.6406,399.4375 66.875,399.6953 Q67.1094,399.9531 67.1094,400.5625 L67.1094,402.0156 Q67.1094,402.625 66.875,402.8906 Q66.6406,403.1563 66.2656,403.1563 Q65.9219,403.1563 65.7188,402.9531 Q65.5156,402.7656 65.4063,402.25 Q65.3594,401.8906 65.1719,401.7031 Q64.8438,401.3281 64.2344,401.1094 Q63.625,400.8906 63,400.8906 Q62.2344,400.8906 61.6016,401.2188 Q60.9688,401.5469 60.4766,402.2969 Q59.9844,403.0469 59.9844,404.0781 L59.9844,405.1719 Q59.9844,406.4063 60.875,407.2266 Q61.7656,408.0469 63.3594,408.0469 Q64.2969,408.0469 64.9531,407.7969 Q65.3438,407.6406 65.7656,407.2031 Q66.0313,406.9375 66.1797,406.8594 Q66.3281,406.7813 66.5313,406.7813 Q66.8594,406.7813 67.1172,407.0391 Q67.375,407.2969 67.375,407.6406 Q67.375,407.9844 67.0313,408.3906 Q66.5313,408.9688 65.7344,409.2969 Q64.6563,409.75 63.3594,409.75 Q61.8438,409.75 60.6406,409.125 Q59.6563,408.625 58.9688,407.5547 Q58.2813,406.4844 58.2813,405.2031 L58.2813,404.0469 Q58.2813,402.7188 58.8984,401.5703 Q59.5156,400.4219 60.6094,399.8047 Q61.7031,399.1875 62.9375,399.1875 Q63.6719,399.1875 64.3203,399.3516 Q64.9688,399.5156 65.5156,399.875 Z " /><text fill="#000000" font-family="sans-serif" font-size="12" lengthAdjust="spacingAndGlyphs" textLength="54" x="83.25" y="408.9102">ShipStore</text>
        <line style="stroke: #A80036; stroke-width: 1.5;" x1="16.5" x2="171.5" y1="420" y2="420" />
        <line style="stroke: #A80036; stroke-width: 1.5;" x1="16.5" x2="171.5" y1="428" y2="428" />
        <ellipse cx="26.5" cy="440.418" fill="#84BE84" rx="3" ry="3" style="stroke: #038048; stroke-width: 1.0;" /><text fill="#000000" font-family="sans-serif" font-size="11" lengthAdjust="spacingAndGlyphs" textLength="106" x="35.5" y="443.4189">getShipByMMSI(mmsi)</text>
        <ellipse cx="26.5" cy="454.2539" fill="#84BE84" rx="3" ry="3" style="stroke: #038048; stroke-width: 1.0;" /><text fill="#000000" font-family="sans-serif" font-size="11" lengthAdjust="spacingAndGlyphs" textLength="91" x="35.5" y="457.2549">getShipByIMO(imo)</text>
        <ellipse cx="26.5" cy="468.0898" fill="#84BE84" rx="3" ry="3" style="stroke: #038048; stroke-width: 1.0;" /><text fill="#000000" font-family="sans-serif" font-size="11" lengthAdjust="spacingAndGlyphs" textLength="131" x="35.5" y="471.0908">getShipByCallSign(callsign)</text>
        <!--class Company-->
        <rect fill="#FEFECE" filter="url(#fti8pumckbi97)" height="61.8359" id="Company" style="stroke: #A80036; stroke-width: 1.5;" width="88" x="50" y="266" />
        <ellipse cx="66.35" cy="282" fill="#ADD1B2" rx="11" ry="11" style="stroke: #A80036; stroke-width: 1.0;" />
        <path d="M69.1156,277.875 Q69.2719,277.6563 69.4594,277.5469 Q69.6469,277.4375 69.8656,277.4375 Q70.2406,277.4375 70.475,277.6953 Q70.7094,277.9531 70.7094,278.5625 L70.7094,280.0156 Q70.7094,280.625 70.475,280.8906 Q70.2406,281.1563 69.8656,281.1563 Q69.5219,281.1563 69.3188,280.9531 Q69.1156,280.7656 69.0063,280.25 Q68.9594,279.8906 68.7719,279.7031 Q68.4438,279.3281 67.8344,279.1094 Q67.225,278.8906 66.6,278.8906 Q65.8344,278.8906 65.2016,279.2188 Q64.5688,279.5469 64.0766,280.2969 Q63.5844,281.0469 63.5844,282.0781 L63.5844,283.1719 Q63.5844,284.4063 64.475,285.2266 Q65.3656,286.0469 66.9594,286.0469 Q67.8969,286.0469 68.5531,285.7969 Q68.9438,285.6406 69.3656,285.2031 Q69.6313,284.9375 69.7797,284.8594 Q69.9281,284.7813 70.1313,284.7813 Q70.4594,284.7813 70.7172,285.0391 Q70.975,285.2969 70.975,285.6406 Q70.975,285.9844 70.6313,286.3906 Q70.1313,286.9688 69.3344,287.2969 Q68.2563,287.75 66.9594,287.75 Q65.4438,287.75 64.2406,287.125 Q63.2562,286.625 62.5687,285.5547 Q61.8812,284.4844 61.8812,283.2031 L61.8812,282.0469 Q61.8812,280.7188 62.4984,279.5703 Q63.1156,278.4219 64.2094,277.8047 Q65.3031,277.1875 66.5375,277.1875 Q67.2719,277.1875 67.9203,277.3516 Q68.5688,277.5156 69.1156,277.875 Z " /><text fill="#000000" font-family="sans-serif" font-size="12" lengthAdjust="spacingAndGlyphs" textLength="53" x="80.65" y="286.9102">Company</text>
        <line style="stroke: #A80036; stroke-width: 1.5;" x1="51" x2="137" y1="298" y2="298" />
        <ellipse cx="61" cy="310.418" fill="none" rx="3" ry="3" style="stroke: #038048; stroke-width: 1.0;" /><text fill="#000000" font-family="sans-serif" font-size="11" lengthAdjust="spacingAndGlyphs" textLength="62" x="70" y="313.4189">getShipStore</text>
        <line style="stroke: #A80036; stroke-width: 1.5;" x1="51" x2="137" y1="319.8359" y2="319.8359" />
        <!--link SearchShipUI to SearchShipController-->
        <path d="M94,56.294 C94,71.479 94,91.876 94,110.563 " fill="none" id="SearchShipUI-SearchShipController" style="stroke: #A80036; stroke-width: 1.0; stroke-dasharray: 7.0,7.0;" />
        <polygon fill="#A80036" points="94,115.782,98,106.782,94,110.782,90,106.782,94,115.782" style="stroke: #A80036; stroke-width: 1.0;" />
        <!--link SearchShipController to Company-->
        <path d="M94,206.248 C94,223.934 94,244.02 94,260.7 " fill="none" id="SearchShipController-Company" style="stroke: #A80036; stroke-width: 1.0; stroke-dasharray: 7.0,7.0;" />
        <polygon fill="#A80036" points="94,265.761,98,256.761,94,260.761,90,256.761,94,265.761" style="stroke: #A80036; stroke-width: 1.0;" />
        <!--link Company to ShipStore-->
        <path d="M94,328.072 C94,344.154 94,364.362 94,382.674 " fill="none" id="Company-ShipStore" style="stroke: #A80036; stroke-width: 1.0;" />
        <polygon fill="#A80036" points="94,387.784,98,378.784,94,382.784,90,378.784,94,387.784" style="stroke: #A80036; stroke-width: 1.0;" />
        <!--link ShipStore to Ship-->
        <path d="M94,478.062 C94,496.0844 94,516.4187 94,532.4423 " fill="none" id="ShipStore-Ship" style="stroke: #A80036; stroke-width: 1.0;" />
        <polygon fill="#A80036" points="94,537.7016,98,528.7016,94,532.7016,90,528.7016,94,537.7016" style="stroke: #A80036; stroke-width: 1.0;" />
        <!--
@startuml

class SearchShipUI{

}

class SearchShipController{
  +searchShipByMMSI(mmsi)
  +searchShipByIMO(imo)
  +searchShipByCallSign(callsign)
}

class Ship{

}

class ShipStore{
  +getShipByMMSI(mmsi)
  +getShipByIMO(imo)
  +getShipByCallSign(callsign)
}

class Company{
  +getShipStore
}

SearchShipUI ..> SearchShipController
SearchShipController ..> Company
Company - -> ShipStore
ShipStore - -> Ship
@enduml

PlantUML version 1.2018.14(Fri Dec 21 16:33:16 GMT 2018)
(GPL source distribution)
Java Runtime: Java(TM) SE Runtime Environment
JVM: Java HotSpot(TM) 64-Bit Server VM
Java Version: 1.8.0_221-b11
Operating System: Windows 10
OS Version: 10.0
Default Encoding: Cp1252
Language: pt
Country: PT
-->
    </g>
</svg>