<?xml version="1.0" encoding="UTF-8" standalone="no"?><svg xmlns="http://www.w3.org/2000/svg" xmlns:xlink="http://www.w3.org/1999/xlink" contentScriptType="application/ecmascript" contentStyleType="text/css" height="453px" preserveAspectRatio="none" style="width:802px;height:453px;" version="1.1" viewBox="0 0 802 453" width="802px" zoomAndPan="magnify">
    <defs>
        <filter height="300%" id="fbkr9vrena77i" width="300%" x="-1" y="-1">
            <feGaussianBlur result="blurOut" stdDeviation="2.0" />
            <feColorMatrix in="blurOut" result="blurOut2" type="matrix" values="0 0 0 0 0 0 0 0 0 0 0 0 0 0 0 0 0 0 .4 0" />
            <feOffset dx="4.0" dy="4.0" in="blurOut2" result="blurOut3" />
            <feBlend in="SourceGraphic" in2="blurOut3" mode="normal" />
        </filter>
    </defs>
    <g>
        <rect fill="#FFFFFF" filter="url(#fbkr9vrena77i)" height="248.8125" style="stroke: #A80036; stroke-width: 1.0;" width="10" x="56" y="97.6094" />
        <rect fill="#FFFFFF" filter="url(#fbkr9vrena77i)" height="30.3516" style="stroke: #A80036; stroke-width: 1.0;" width="10" x="430" y="119.9609" />
        <rect fill="#FFFFFF" filter="url(#fbkr9vrena77i)" height="30.3516" style="stroke: #A80036; stroke-width: 1.0;" width="10" x="430" y="180.6641" />
        <rect fill="#FFFFFF" filter="url(#fbkr9vrena77i)" height="74.7031" style="stroke: #A80036; stroke-width: 1.0;" width="10" x="568" y="241.3672" />
        <rect fill="#FFFFFF" filter="url(#fbkr9vrena77i)" height="30.3516" style="stroke: #A80036; stroke-width: 1.0;" width="10" x="694.5" y="271.7188" />
        <line style="stroke: #A80036; stroke-width: 1.0; stroke-dasharray: 5.0,5.0;" x1="61" x2="61" y1="87.6094" y2="364.4219" />
        <line style="stroke: #A80036; stroke-width: 1.0; stroke-dasharray: 5.0,5.0;" x1="434.5" x2="434.5" y1="87.6094" y2="364.4219" />
        <line style="stroke: #A80036; stroke-width: 1.0; stroke-dasharray: 5.0,5.0;" x1="572.5" x2="572.5" y1="87.6094" y2="364.4219" />
        <line style="stroke: #A80036; stroke-width: 1.0; stroke-dasharray: 5.0,5.0;" x1="699.5" x2="699.5" y1="87.6094" y2="364.4219" />
        <line style="stroke: #A80036; stroke-width: 1.0; stroke-dasharray: 5.0,5.0;" x1="772.5" x2="772.5" y1="87.6094" y2="364.4219" /><text fill="#000000" font-family="sans-serif" font-size="14" lengthAdjust="spacingAndGlyphs" textLength="100" x="8" y="84.5332">Traffic Manager</text>
        <ellipse cx="61" cy="13" fill="#FEFECE" filter="url(#fbkr9vrena77i)" rx="8" ry="8" style="stroke: #A80036; stroke-width: 2.0;" />
        <path d="M61,21 L61,48 M48,29 L74,29 M61,48 L48,63 M61,48 L74,63 " fill="none" filter="url(#fbkr9vrena77i)" style="stroke: #A80036; stroke-width: 2.0;" /><text fill="#000000" font-family="sans-serif" font-size="14" lengthAdjust="spacingAndGlyphs" textLength="100" x="8" y="377.9551">Traffic Manager</text>
        <ellipse cx="61" cy="391.0313" fill="#FEFECE" filter="url(#fbkr9vrena77i)" rx="8" ry="8" style="stroke: #A80036; stroke-width: 2.0;" />
        <path d="M61,399.0313 L61,426.0313 M48,407.0313 L74,407.0313 M61,426.0313 L48,441.0313 M61,426.0313 L74,441.0313 " fill="none" filter="url(#fbkr9vrena77i)" style="stroke: #A80036; stroke-width: 2.0;" />
        <rect fill="#FEFECE" filter="url(#fbkr9vrena77i)" height="31.6094" style="stroke: #A80036; stroke-width: 1.5;" width="99" x="383.5" y="51" /><text fill="#000000" font-family="sans-serif" font-size="14" lengthAdjust="spacingAndGlyphs" textLength="85" x="390.5" y="72.5332">SearchShipUI</text>
        <rect fill="#FEFECE" filter="url(#fbkr9vrena77i)" height="31.6094" style="stroke: #A80036; stroke-width: 1.5;" width="99" x="383.5" y="363.4219" /><text fill="#000000" font-family="sans-serif" font-size="14" lengthAdjust="spacingAndGlyphs" textLength="85" x="390.5" y="384.9551">SearchShipUI</text>
        <rect fill="#FEFECE" filter="url(#fbkr9vrena77i)" height="31.6094" style="stroke: #A80036; stroke-width: 1.5;" width="149" x="496.5" y="51" /><text fill="#000000" font-family="sans-serif" font-size="14" lengthAdjust="spacingAndGlyphs" textLength="135" x="503.5" y="72.5332">SearchShipController</text>
        <rect fill="#FEFECE" filter="url(#fbkr9vrena77i)" height="31.6094" style="stroke: #A80036; stroke-width: 1.5;" width="149" x="496.5" y="363.4219" /><text fill="#000000" font-family="sans-serif" font-size="14" lengthAdjust="spacingAndGlyphs" textLength="135" x="503.5" y="384.9551">SearchShipController</text>
        <rect fill="#FEFECE" filter="url(#fbkr9vrena77i)" height="31.6094" style="stroke: #A80036; stroke-width: 1.5;" width="76" x="659.5" y="51" /><text fill="#000000" font-family="sans-serif" font-size="14" lengthAdjust="spacingAndGlyphs" textLength="62" x="666.5" y="72.5332">ShipStore</text>
        <rect fill="#FEFECE" filter="url(#fbkr9vrena77i)" height="31.6094" style="stroke: #A80036; stroke-width: 1.5;" width="76" x="659.5" y="363.4219" /><text fill="#000000" font-family="sans-serif" font-size="14" lengthAdjust="spacingAndGlyphs" textLength="62" x="666.5" y="384.9551">ShipStore</text>
        <rect fill="#FEFECE" filter="url(#fbkr9vrena77i)" height="31.6094" style="stroke: #A80036; stroke-width: 1.5;" width="42" x="749.5" y="51" /><text fill="#000000" font-family="sans-serif" font-size="14" lengthAdjust="spacingAndGlyphs" textLength="28" x="756.5" y="72.5332">Ship</text>
        <rect fill="#FEFECE" filter="url(#fbkr9vrena77i)" height="31.6094" style="stroke: #A80036; stroke-width: 1.5;" width="42" x="749.5" y="363.4219" /><text fill="#000000" font-family="sans-serif" font-size="14" lengthAdjust="spacingAndGlyphs" textLength="28" x="756.5" y="384.9551">Ship</text>
        <rect fill="#FFFFFF" filter="url(#fbkr9vrena77i)" height="248.8125" style="stroke: #A80036; stroke-width: 1.0;" width="10" x="56" y="97.6094" />
        <rect fill="#FFFFFF" filter="url(#fbkr9vrena77i)" height="30.3516" style="stroke: #A80036; stroke-width: 1.0;" width="10" x="430" y="119.9609" />
        <rect fill="#FFFFFF" filter="url(#fbkr9vrena77i)" height="30.3516" style="stroke: #A80036; stroke-width: 1.0;" width="10" x="430" y="180.6641" />
        <rect fill="#FFFFFF" filter="url(#fbkr9vrena77i)" height="74.7031" style="stroke: #A80036; stroke-width: 1.0;" width="10" x="568" y="241.3672" />
        <rect fill="#FFFFFF" filter="url(#fbkr9vrena77i)" height="30.3516" style="stroke: #A80036; stroke-width: 1.0;" width="10" x="694.5" y="271.7188" />
        <polygon fill="#A80036" points="418,115.9609,428,119.9609,418,123.9609,422,119.9609" style="stroke: #A80036; stroke-width: 1.0;" />
        <line style="stroke: #A80036; stroke-width: 1.0;" x1="66" x2="424" y1="119.9609" y2="119.9609" /><text fill="#000000" font-family="sans-serif" font-size="13" lengthAdjust="spacingAndGlyphs" textLength="345" x="73" y="115.1045">initiates the search ship by MMSI, IMO or Call sign process</text>
        <polygon fill="#A80036" points="77,146.3125,67,150.3125,77,154.3125,73,150.3125" style="stroke: #A80036; stroke-width: 1.0;" />
        <line style="stroke: #A80036; stroke-width: 1.0;" x1="71" x2="434" y1="150.3125" y2="150.3125" /><text fill="#000000" font-family="sans-serif" font-size="13" lengthAdjust="spacingAndGlyphs" textLength="250" x="83" y="145.4561">requests for which search parameter to use</text>
        <polygon fill="#A80036" points="418,176.6641,428,180.6641,418,184.6641,422,180.6641" style="stroke: #A80036; stroke-width: 1.0;" />
        <line style="stroke: #A80036; stroke-width: 1.0;" x1="66" x2="424" y1="180.6641" y2="180.6641" /><text fill="#000000" font-family="sans-serif" font-size="13" lengthAdjust="spacingAndGlyphs" textLength="147" x="73" y="175.8076">picks a search parameter</text>
        <polygon fill="#A80036" points="77,207.0156,67,211.0156,77,215.0156,73,211.0156" style="stroke: #A80036; stroke-width: 1.0;" />
        <line style="stroke: #A80036; stroke-width: 1.0;" x1="71" x2="434" y1="211.0156" y2="211.0156" /><text fill="#000000" font-family="sans-serif" font-size="13" lengthAdjust="spacingAndGlyphs" textLength="222" x="83" y="206.1592">requests search parameter information</text>
        <polygon fill="#A80036" points="556,237.3672,566,241.3672,556,245.3672,560,241.3672" style="stroke: #A80036; stroke-width: 1.0;" />
        <line style="stroke: #A80036; stroke-width: 1.0;" x1="435" x2="562" y1="241.3672" y2="241.3672" /><text fill="#000000" font-family="sans-serif" font-size="13" lengthAdjust="spacingAndGlyphs" textLength="73" x="442" y="236.5107">searchShip()</text>
        <polygon fill="#A80036" points="682.5,267.7188,692.5,271.7188,682.5,275.7188,686.5,271.7188" style="stroke: #A80036; stroke-width: 1.0;" />
        <line style="stroke: #A80036; stroke-width: 1.0;" x1="578" x2="688.5" y1="271.7188" y2="271.7188" /><text fill="#000000" font-family="sans-serif" font-size="13" lengthAdjust="spacingAndGlyphs" textLength="68" x="585" y="266.8623">getShipBy()</text>
        <polygon fill="#A80036" points="589,298.0703,579,302.0703,589,306.0703,585,302.0703" style="stroke: #A80036; stroke-width: 1.0;" />
        <line style="stroke: #A80036; stroke-width: 1.0;" x1="583" x2="698.5" y1="302.0703" y2="302.0703" /><text fill="#000000" font-family="sans-serif" font-size="13" lengthAdjust="spacingAndGlyphs" textLength="26" x="595" y="297.2139">Ship</text>
        <polygon fill="#A80036" points="446,312.0703,436,316.0703,446,320.0703,442,316.0703" style="stroke: #A80036; stroke-width: 1.0;" />
        <line style="stroke: #A80036; stroke-width: 1.0;" x1="440" x2="572" y1="316.0703" y2="316.0703" />
        <polygon fill="#A80036" points="72,342.4219,62,346.4219,72,350.4219,68,346.4219" style="stroke: #A80036; stroke-width: 1.0;" />
        <line style="stroke: #A80036; stroke-width: 1.0;" x1="66" x2="434" y1="346.4219" y2="346.4219" /><text fill="#000000" font-family="sans-serif" font-size="13" lengthAdjust="spacingAndGlyphs" textLength="134" x="78" y="341.5654">shows Ship information</text>
        <!--
@startuml

actor "Traffic Manager" as ACT

participant SearchShipUI as UI
participant SearchShipController as CTRL
participant ShipStore as SS
participant Ship as SHIP

activate ACT
ACT -> UI : initiates the search ship by MMSI, IMO or Call sign process
activate UI
UI -> ACT : requests for which search parameter to use
deactivate UI

ACT -> UI : picks a search parameter
activate UI
UI -> ACT : requests search parameter information
deactivate UI


UI -> CTRL : searchShip()
activate CTRL
CTRL -> SS : getShipBy()
activate SS
SS -> CTRL : Ship
deactivate SS
CTRL -> UI
deactivate CTRL
UI -> ACT : shows Ship information
deactivate UI
deactivate ACT

@enduml

PlantUML version 1.2018.14(Fri Dec 21 16:33:16 GMT 2018)
(GPL source distribution)
Java Runtime: Java(TM) SE Runtime Environment
JVM: Java HotSpot(TM) 64-Bit Server VM
Java Version: 1.8.0_221-b11
Operating System: Windows 10
OS Version: 10.0
Default Encoding: Cp1252
Language: pt
Country: PT
-->
    </g>
</svg>