<?xml version="1.0" encoding="UTF-8" standalone="no"?><svg xmlns="http://www.w3.org/2000/svg" xmlns:xlink="http://www.w3.org/1999/xlink" contentScriptType="application/ecmascript" contentStyleType="text/css" height="791px" preserveAspectRatio="none" style="width:988px;height:791px;background:#FFFFFF;" version="1.1" viewBox="0 0 988 791" width="988px" zoomAndPan="magnify"><defs><filter height="300%" id="fgvmvzg16h5u6" width="300%" x="-1" y="-1"><feGaussianBlur result="blurOut" stdDeviation="2.0"/><feColorMatrix in="blurOut" result="blurOut2" type="matrix" values="0 0 0 0 0 0 0 0 0 0 0 0 0 0 0 0 0 0 .4 0"/><feOffset dx="4.0" dy="4.0" in="blurOut2" result="blurOut3"/><feBlend in="SourceGraphic" in2="blurOut3" mode="normal"/></filter></defs><g><rect fill="#FFFFFF" filter="url(#fgvmvzg16h5u6)" height="588.2188" style="stroke:#A80036;stroke-width:1.0;" width="10" x="44" y="99.6094"/><rect fill="#FFFFFF" filter="url(#fgvmvzg16h5u6)" height="30.3516" style="stroke:#A80036;stroke-width:1.0;" width="10" x="306" y="121.9609"/><rect fill="#FFFFFF" filter="url(#fgvmvzg16h5u6)" height="505.1641" style="stroke:#A80036;stroke-width:1.0;" width="10" x="306" y="182.6641"/><rect fill="#FFFFFF" filter="url(#fgvmvzg16h5u6)" height="437.4609" style="stroke:#A80036;stroke-width:1.0;" width="10" x="466" y="213.0156"/><rect fill="#FFFFFF" filter="url(#fgvmvzg16h5u6)" height="407.1094" style="stroke:#A80036;stroke-width:1.0;" width="10" x="718" y="243.3672"/><rect fill="#FFFFFF" filter="url(#fgvmvzg16h5u6)" height="28" style="stroke:#A80036;stroke-width:1.0;" width="10" x="723" y="342.0703"/><rect fill="#FFFFFF" filter="url(#fgvmvzg16h5u6)" height="28" style="stroke:#A80036;stroke-width:1.0;" width="10" x="723" y="475.7734"/><rect fill="#FFFFFF" filter="url(#fgvmvzg16h5u6)" height="28" style="stroke:#A80036;stroke-width:1.0;" width="10" x="723" y="549.125"/><rect fill="#FFFFFF" filter="url(#fgvmvzg16h5u6)" height="28" style="stroke:#A80036;stroke-width:1.0;" width="10" x="723" y="622.4766"/><rect fill="#FFFFFF" filter="url(#fgvmvzg16h5u6)" height="30" style="stroke:#A80036;stroke-width:1.0;" width="10" x="921" y="273.7188"/><rect fill="#FFFFFF" filter="url(#fgvmvzg16h5u6)" height="30" style="stroke:#A80036;stroke-width:1.0;" width="10" x="921" y="407.4219"/><line style="stroke:#A80036;stroke-width:1.0;stroke-dasharray:5.0,5.0;" x1="49" x2="49" y1="89.6094" y2="705.8281"/><line style="stroke:#A80036;stroke-width:1.0;stroke-dasharray:5.0,5.0;" x1="310.5" x2="310.5" y1="89.6094" y2="705.8281"/><line style="stroke:#A80036;stroke-width:1.0;stroke-dasharray:5.0,5.0;" x1="470.5" x2="470.5" y1="89.6094" y2="705.8281"/><line style="stroke:#A80036;stroke-width:1.0;stroke-dasharray:5.0,5.0;" x1="722.5" x2="722.5" y1="89.6094" y2="705.8281"/><line style="stroke:#A80036;stroke-width:1.0;stroke-dasharray:5.0,5.0;" x1="925.5" x2="925.5" y1="89.6094" y2="705.8281"/><text fill="#000000" font-family="sans-serif" font-size="14" lengthAdjust="spacing" textLength="82" x="5" y="86.5332">PortManager</text><ellipse cx="49" cy="15" fill="#FEFECE" filter="url(#fgvmvzg16h5u6)" rx="8" ry="8" style="stroke:#A80036;stroke-width:2.0;"/><path d="M49,23 L49,50 M36,31 L62,31 M49,50 L36,65 M49,50 L62,65 " fill="none" filter="url(#fgvmvzg16h5u6)" style="stroke:#A80036;stroke-width:2.0;"/><text fill="#000000" font-family="sans-serif" font-size="14" lengthAdjust="spacing" textLength="82" x="5" y="719.3613">PortManager</text><ellipse cx="49" cy="732.4375" fill="#FEFECE" filter="url(#fgvmvzg16h5u6)" rx="8" ry="8" style="stroke:#A80036;stroke-width:2.0;"/><path d="M49,740.4375 L49,767.4375 M36,748.4375 L62,748.4375 M49,767.4375 L36,782.4375 M49,767.4375 L62,782.4375 " fill="none" filter="url(#fgvmvzg16h5u6)" style="stroke:#A80036;stroke-width:2.0;"/><rect fill="#FEFECE" filter="url(#fgvmvzg16h5u6)" height="31.6094" style="stroke:#A80036;stroke-width:1.5;" width="121" x="248.5" y="53"/><text fill="#000000" font-family="sans-serif" font-size="14" lengthAdjust="spacing" textLength="107" x="255.5" y="74.5332">FreightNetworkUI</text><rect fill="#FEFECE" filter="url(#fgvmvzg16h5u6)" height="31.6094" style="stroke:#A80036;stroke-width:1.5;" width="121" x="248.5" y="704.8281"/><text fill="#000000" font-family="sans-serif" font-size="14" lengthAdjust="spacing" textLength="107" x="255.5" y="726.3613">FreightNetworkUI</text><rect fill="#FEFECE" filter="url(#fgvmvzg16h5u6)" height="31.6094" style="stroke:#A80036;stroke-width:1.5;" width="171" x="383.5" y="53"/><text fill="#000000" font-family="sans-serif" font-size="14" lengthAdjust="spacing" textLength="157" x="390.5" y="74.5332">FreightNetworkController</text><rect fill="#FEFECE" filter="url(#fgvmvzg16h5u6)" height="31.6094" style="stroke:#A80036;stroke-width:1.5;" width="171" x="383.5" y="704.8281"/><text fill="#000000" font-family="sans-serif" font-size="14" lengthAdjust="spacing" textLength="157" x="390.5" y="726.3613">FreightNetworkController</text><rect fill="#FEFECE" filter="url(#fgvmvzg16h5u6)" height="31.6094" style="stroke:#A80036;stroke-width:1.5;" width="109" x="666.5" y="53"/><text fill="#000000" font-family="sans-serif" font-size="14" lengthAdjust="spacing" textLength="95" x="673.5" y="74.5332">FreightNetwork</text><rect fill="#FEFECE" filter="url(#fgvmvzg16h5u6)" height="31.6094" style="stroke:#A80036;stroke-width:1.5;" width="109" x="666.5" y="704.8281"/><text fill="#000000" font-family="sans-serif" font-size="14" lengthAdjust="spacing" textLength="95" x="673.5" y="726.3613">FreightNetwork</text><rect fill="#FEFECE" filter="url(#fgvmvzg16h5u6)" height="31.6094" style="stroke:#A80036;stroke-width:1.5;" width="101" x="873.5" y="53"/><text fill="#000000" font-family="sans-serif" font-size="14" lengthAdjust="spacing" textLength="87" x="880.5" y="74.5332">DatabaseUtils</text><rect fill="#FEFECE" filter="url(#fgvmvzg16h5u6)" height="31.6094" style="stroke:#A80036;stroke-width:1.5;" width="101" x="873.5" y="704.8281"/><text fill="#000000" font-family="sans-serif" font-size="14" lengthAdjust="spacing" textLength="87" x="880.5" y="726.3613">DatabaseUtils</text><rect fill="#FFFFFF" filter="url(#fgvmvzg16h5u6)" height="588.2188" style="stroke:#A80036;stroke-width:1.0;" width="10" x="44" y="99.6094"/><rect fill="#FFFFFF" filter="url(#fgvmvzg16h5u6)" height="30.3516" style="stroke:#A80036;stroke-width:1.0;" width="10" x="306" y="121.9609"/><rect fill="#FFFFFF" filter="url(#fgvmvzg16h5u6)" height="505.1641" style="stroke:#A80036;stroke-width:1.0;" width="10" x="306" y="182.6641"/><rect fill="#FFFFFF" filter="url(#fgvmvzg16h5u6)" height="437.4609" style="stroke:#A80036;stroke-width:1.0;" width="10" x="466" y="213.0156"/><rect fill="#FFFFFF" filter="url(#fgvmvzg16h5u6)" height="407.1094" style="stroke:#A80036;stroke-width:1.0;" width="10" x="718" y="243.3672"/><rect fill="#FFFFFF" filter="url(#fgvmvzg16h5u6)" height="28" style="stroke:#A80036;stroke-width:1.0;" width="10" x="723" y="342.0703"/><rect fill="#FFFFFF" filter="url(#fgvmvzg16h5u6)" height="28" style="stroke:#A80036;stroke-width:1.0;" width="10" x="723" y="475.7734"/><rect fill="#FFFFFF" filter="url(#fgvmvzg16h5u6)" height="28" style="stroke:#A80036;stroke-width:1.0;" width="10" x="723" y="549.125"/><rect fill="#FFFFFF" filter="url(#fgvmvzg16h5u6)" height="28" style="stroke:#A80036;stroke-width:1.0;" width="10" x="723" y="622.4766"/><rect fill="#FFFFFF" filter="url(#fgvmvzg16h5u6)" height="30" style="stroke:#A80036;stroke-width:1.0;" width="10" x="921" y="273.7188"/><rect fill="#FFFFFF" filter="url(#fgvmvzg16h5u6)" height="30" style="stroke:#A80036;stroke-width:1.0;" width="10" x="921" y="407.4219"/><polygon fill="#A80036" points="294,117.9609,304,121.9609,294,125.9609,298,121.9609" style="stroke:#A80036;stroke-width:1.0;"/><line style="stroke:#A80036;stroke-width:1.0;" x1="54" x2="300" y1="121.9609" y2="121.9609"/><text fill="#000000" font-family="sans-serif" font-size="13" font-weight="bold" lengthAdjust="spacing" textLength="7" x="61" y="117.1045">1</text><text fill="#000000" font-family="sans-serif" font-size="13" lengthAdjust="spacing" textLength="146" x="72" y="117.1045">Asks for create the graph</text><polygon fill="#A80036" points="65,148.3125,55,152.3125,65,156.3125,61,152.3125" style="stroke:#A80036;stroke-width:1.0;"/><line style="stroke:#A80036;stroke-width:1.0;stroke-dasharray:2.0,2.0;" x1="59" x2="310" y1="152.3125" y2="152.3125"/><text fill="#000000" font-family="sans-serif" font-size="13" font-weight="bold" lengthAdjust="spacing" textLength="7" x="71" y="147.4561">2</text><text fill="#000000" font-family="sans-serif" font-size="13" lengthAdjust="spacing" textLength="180" x="82" y="147.4561">Ask the number of connections</text><polygon fill="#A80036" points="294,178.6641,304,182.6641,294,186.6641,298,182.6641" style="stroke:#A80036;stroke-width:1.0;"/><line style="stroke:#A80036;stroke-width:1.0;" x1="54" x2="300" y1="182.6641" y2="182.6641"/><text fill="#000000" font-family="sans-serif" font-size="13" font-weight="bold" lengthAdjust="spacing" textLength="7" x="61" y="177.8076">3</text><text fill="#000000" font-family="sans-serif" font-size="13" lengthAdjust="spacing" textLength="217" x="72" y="177.8076">Introduces the number of connections</text><polygon fill="#A80036" points="454,209.0156,464,213.0156,454,217.0156,458,213.0156" style="stroke:#A80036;stroke-width:1.0;"/><line style="stroke:#A80036;stroke-width:1.0;" x1="316" x2="460" y1="213.0156" y2="213.0156"/><text fill="#000000" font-family="sans-serif" font-size="13" font-weight="bold" lengthAdjust="spacing" textLength="7" x="323" y="208.1592">4</text><text fill="#000000" font-family="sans-serif" font-size="13" lengthAdjust="spacing" textLength="104" x="334" y="208.1592">createGraph(int n)</text><polygon fill="#A80036" points="706,239.3672,716,243.3672,706,247.3672,710,243.3672" style="stroke:#A80036;stroke-width:1.0;"/><line style="stroke:#A80036;stroke-width:1.0;" x1="476" x2="712" y1="243.3672" y2="243.3672"/><text fill="#000000" font-family="sans-serif" font-size="13" font-weight="bold" lengthAdjust="spacing" textLength="7" x="483" y="238.5107">5</text><text fill="#000000" font-family="sans-serif" font-size="13" lengthAdjust="spacing" textLength="212" x="494" y="238.5107">createGraph(n, databaseConnection)</text><polygon fill="#A80036" points="909,269.7188,919,273.7188,909,277.7188,913,273.7188" style="stroke:#A80036;stroke-width:1.0;"/><line style="stroke:#A80036;stroke-width:1.0;" x1="728" x2="915" y1="273.7188" y2="273.7188"/><text fill="#000000" font-family="sans-serif" font-size="13" font-weight="bold" lengthAdjust="spacing" textLength="7" x="735" y="268.8623">6</text><text fill="#000000" font-family="sans-serif" font-size="13" lengthAdjust="spacing" textLength="71" x="746" y="268.8623">getBorders()</text><line style="stroke:#A80036;stroke-width:1.0;" x1="733" x2="775" y1="334.0703" y2="334.0703"/><line style="stroke:#A80036;stroke-width:1.0;" x1="775" x2="775" y1="334.0703" y2="347.0703"/><line style="stroke:#A80036;stroke-width:1.0;" x1="734" x2="775" y1="347.0703" y2="347.0703"/><polygon fill="#A80036" points="744,343.0703,734,347.0703,744,351.0703,740,347.0703" style="stroke:#A80036;stroke-width:1.0;"/><text fill="#000000" font-family="sans-serif" font-size="13" font-weight="bold" lengthAdjust="spacing" textLength="7" x="740" y="329.2139">7</text><text fill="#000000" font-family="sans-serif" font-size="13" lengthAdjust="spacing" textLength="53" x="751" y="329.2139">capitals()</text><polygon fill="#A80036" points="909,403.4219,919,407.4219,909,411.4219,913,407.4219" style="stroke:#A80036;stroke-width:1.0;"/><line style="stroke:#A80036;stroke-width:1.0;" x1="728" x2="915" y1="407.4219" y2="407.4219"/><text fill="#000000" font-family="sans-serif" font-size="13" font-weight="bold" lengthAdjust="spacing" textLength="7" x="735" y="402.5654">8</text><text fill="#000000" font-family="sans-serif" font-size="13" lengthAdjust="spacing" textLength="72" x="746" y="402.5654">getSeaDist()</text><line style="stroke:#A80036;stroke-width:1.0;" x1="733" x2="775" y1="467.7734" y2="467.7734"/><line style="stroke:#A80036;stroke-width:1.0;" x1="775" x2="775" y1="467.7734" y2="480.7734"/><line style="stroke:#A80036;stroke-width:1.0;" x1="734" x2="775" y1="480.7734" y2="480.7734"/><polygon fill="#A80036" points="744,476.7734,734,480.7734,744,484.7734,740,480.7734" style="stroke:#A80036;stroke-width:1.0;"/><text fill="#000000" font-family="sans-serif" font-size="13" font-weight="bold" lengthAdjust="spacing" textLength="7" x="740" y="462.917">9</text><text fill="#000000" font-family="sans-serif" font-size="13" lengthAdjust="spacing" textLength="37" x="751" y="462.917">ports()</text><line style="stroke:#A80036;stroke-width:1.0;" x1="733" x2="775" y1="541.125" y2="541.125"/><line style="stroke:#A80036;stroke-width:1.0;" x1="775" x2="775" y1="541.125" y2="554.125"/><line style="stroke:#A80036;stroke-width:1.0;" x1="734" x2="775" y1="554.125" y2="554.125"/><polygon fill="#A80036" points="744,550.125,734,554.125,744,558.125,740,554.125" style="stroke:#A80036;stroke-width:1.0;"/><text fill="#000000" font-family="sans-serif" font-size="13" font-weight="bold" lengthAdjust="spacing" textLength="14" x="740" y="536.2686">10</text><text fill="#000000" font-family="sans-serif" font-size="13" lengthAdjust="spacing" textLength="106" x="758" y="536.2686">linkPortToCapital()</text><line style="stroke:#A80036;stroke-width:1.0;" x1="733" x2="775" y1="614.4766" y2="614.4766"/><line style="stroke:#A80036;stroke-width:1.0;" x1="775" x2="775" y1="614.4766" y2="627.4766"/><line style="stroke:#A80036;stroke-width:1.0;" x1="734" x2="775" y1="627.4766" y2="627.4766"/><polygon fill="#A80036" points="744,623.4766,734,627.4766,744,631.4766,740,627.4766" style="stroke:#A80036;stroke-width:1.0;"/><text fill="#000000" font-family="sans-serif" font-size="13" font-weight="bold" lengthAdjust="spacing" textLength="14" x="740" y="609.6201">11</text><text fill="#000000" font-family="sans-serif" font-size="13" lengthAdjust="spacing" textLength="161" x="758" y="609.6201">linkPortToNClosestPorts(n);</text><polygon fill="#A80036" points="60,683.8281,50,687.8281,60,691.8281,56,687.8281" style="stroke:#A80036;stroke-width:1.0;"/><line style="stroke:#A80036;stroke-width:1.0;stroke-dasharray:2.0,2.0;" x1="54" x2="310" y1="687.8281" y2="687.8281"/><text fill="#000000" font-family="sans-serif" font-size="13" font-weight="bold" lengthAdjust="spacing" textLength="14" x="66" y="682.9717">12</text><text fill="#000000" font-family="sans-serif" font-size="13" lengthAdjust="spacing" textLength="210" x="84" y="682.9717">Informs the success of the operation</text><!--MD5=[81a897a8bfff4087c6f9c06762e5d27c]
@startuml
autonumber
actor PortManager
participant FreightNetworkUI as UI
participant FreightNetworkController as Controller
participant FreightNetwork as Network
participant DatabaseUtils as Utils

activate PortManager

PortManager -> UI: Asks for create the graph
activate UI

UI - -> PortManager: Ask the number of connections
deactivate UI

PortManager -> UI: Introduces the number of connections
activate UI
UI -> Controller: createGraph(int n)
activate Controller

Controller -> Network: createGraph(n, databaseConnection)
activate Network
Network -> Utils: getBorders()
activate Utils
deactivate

Network -> Network: capitals()
activate Network
deactivate

Network -> Utils: getSeaDist()
activate Utils
deactivate Utils
Network -> Network: ports()
activate Network
deactivate
Network -> Network: linkPortToCapital()
activate Network
deactivate
Network -> Network: linkPortToNClosestPorts(n);

activate Network
deactivate
deactivate
deactivate
PortManager <- - UI: Informs the success of the operation
deactivate UI
deactivate PortManager


@enduml

PlantUML version 1.2021.16(Wed Dec 08 17:25:22 GMT 2021)
(GPL source distribution)
Java Runtime: OpenJDK Runtime Environment
JVM: OpenJDK 64-Bit Server VM
Default Encoding: Cp1252
Language: pt
Country: PT
--></g></svg>