<?xml version="1.0" encoding="UTF-8" standalone="no"?><svg xmlns="http://www.w3.org/2000/svg" xmlns:xlink="http://www.w3.org/1999/xlink" contentScriptType="application/ecmascript" contentStyleType="text/css" height="275px" preserveAspectRatio="none" style="width:461px;height:275px;background:#FFFFFF;" version="1.1" viewBox="0 0 461 275" width="461px" zoomAndPan="magnify"><defs><filter height="300%" id="frr9olis88tm6" width="300%" x="-1" y="-1"><feGaussianBlur result="blurOut" stdDeviation="2.0"/><feColorMatrix in="blurOut" result="blurOut2" type="matrix" values="0 0 0 0 0 0 0 0 0 0 0 0 0 0 0 0 0 0 .4 0"/><feOffset dx="4.0" dy="4.0" in="blurOut2" result="blurOut3"/><feBlend in="SourceGraphic" in2="blurOut3" mode="normal"/></filter></defs><g><!--MD5=[a0bfe97ac0a38e6e74cc1c7c7b744b71]
class Port--><rect codeLine="3" fill="#FEFECE" filter="url(#frr9olis88tm6)" height="123.0156" id="Port" style="stroke:#A80036;stroke-width:1.5;" width="86" x="171.5" y="7"/><ellipse cx="200.9" cy="23" fill="#ADD1B2" rx="11" ry="11" style="stroke:#A80036;stroke-width:1.0;"/><path d="M202.9,19.5 Q203.1031,19 203.3375,18.75 Q203.5719,18.5 203.8375,18.5 Q204.3063,18.5 204.6031,18.7813 Q204.9,19.0625 204.9,19.7188 L204.9,21.2813 Q204.9,21.9375 204.6188,22.2188 Q204.3375,22.5 203.9,22.5 Q203.5094,22.5 203.2594,22.3281 Q203.0094,22.1563 202.9,21.7031 Q202.8531,21.3906 202.6813,21.2188 Q202.3688,20.8906 201.8063,20.7031 Q201.2438,20.5 200.6813,20.5 Q199.9781,20.5 199.3844,20.7813 Q198.8063,21.0625 198.3531,21.6875 Q197.9,22.3125 197.9,23.1719 L197.9,24.0938 Q197.9,25.125 198.7438,25.8125 Q199.5875,26.5 201.0875,26.5 Q201.9781,26.5 202.6031,26.2969 Q202.9625,26.1875 203.3688,25.8281 Q203.6344,25.625 203.775,25.5625 Q203.9156,25.5 204.0875,25.5 Q204.4156,25.5 204.65,25.7656 Q204.9,26.0156 204.9,26.375 Q204.9,26.7188 204.5563,27.125 Q204.0563,27.7188 203.2594,28.0469 Q202.2125,28.5 200.9313,28.5 Q199.4313,28.5 198.2281,27.9063 Q197.2594,27.4375 196.5719,26.4219 Q195.9,25.4063 195.9,24.2031 L195.9,23.1094 Q195.9,21.8594 196.4938,20.7656 Q197.1031,19.6719 198.15,19.0938 Q199.2125,18.5 200.4,18.5 Q201.1188,18.5 201.7438,18.75 Q202.3688,19 202.9,19.5 Z " fill="#000000"/><text fill="#000000" font-family="sans-serif" font-size="12" lengthAdjust="spacing" textLength="22" x="218.1" y="27.9102">Port</text><line style="stroke:#A80036;stroke-width:1.5;" x1="172.5" x2="256.5" y1="39" y2="39"/><rect fill="none" height="6" style="stroke:#C82930;stroke-width:1.0;" width="6" x="179.5" y="47"/><text fill="#000000" font-family="sans-serif" font-size="11" lengthAdjust="spacing" textLength="60" x="191.5" y="54.4189">Identification</text><rect fill="none" height="6" style="stroke:#C82930;stroke-width:1.0;" width="6" x="179.5" y="60.8359"/><text fill="#000000" font-family="sans-serif" font-size="11" lengthAdjust="spacing" textLength="27" x="191.5" y="68.2549">Name</text><rect fill="none" height="6" style="stroke:#C82930;stroke-width:1.0;" width="6" x="179.5" y="74.6719"/><text fill="#000000" font-family="sans-serif" font-size="11" lengthAdjust="spacing" textLength="45" x="191.5" y="82.0908">Continent</text><rect fill="none" height="6" style="stroke:#C82930;stroke-width:1.0;" width="6" x="179.5" y="88.5078"/><text fill="#000000" font-family="sans-serif" font-size="11" lengthAdjust="spacing" textLength="38" x="191.5" y="95.9268">Country</text><rect fill="none" height="6" style="stroke:#C82930;stroke-width:1.0;" width="6" x="179.5" y="102.3438"/><text fill="#000000" font-family="sans-serif" font-size="11" lengthAdjust="spacing" textLength="41" x="191.5" y="109.7627">Location</text><rect fill="none" height="6" style="stroke:#C82930;stroke-width:1.0;" width="6" x="179.5" y="116.1797"/><text fill="#000000" font-family="sans-serif" font-size="11" lengthAdjust="spacing" textLength="42" x="191.5" y="123.5986">Capacity</text><!--MD5=[9466097c40aeafc62ec36a0cc4f3c955]
class City--><rect codeLine="12" fill="#FEFECE" filter="url(#frr9olis88tm6)" height="53.8359" id="City" style="stroke:#A80036;stroke-width:1.5;" width="86" x="171.5" y="208"/><ellipse cx="201.8" cy="224" fill="#ADD1B2" rx="11" ry="11" style="stroke:#A80036;stroke-width:1.0;"/><path d="M203.8,220.5 Q204.0031,220 204.2375,219.75 Q204.4719,219.5 204.7375,219.5 Q205.2063,219.5 205.5031,219.7813 Q205.8,220.0625 205.8,220.7188 L205.8,222.2813 Q205.8,222.9375 205.5188,223.2188 Q205.2375,223.5 204.8,223.5 Q204.4094,223.5 204.1594,223.3281 Q203.9094,223.1563 203.8,222.7031 Q203.7531,222.3906 203.5813,222.2188 Q203.2688,221.8906 202.7063,221.7031 Q202.1438,221.5 201.5813,221.5 Q200.8781,221.5 200.2844,221.7813 Q199.7063,222.0625 199.2531,222.6875 Q198.8,223.3125 198.8,224.1719 L198.8,225.0938 Q198.8,226.125 199.6438,226.8125 Q200.4875,227.5 201.9875,227.5 Q202.8781,227.5 203.5031,227.2969 Q203.8625,227.1875 204.2688,226.8281 Q204.5344,226.625 204.675,226.5625 Q204.8156,226.5 204.9875,226.5 Q205.3156,226.5 205.55,226.7656 Q205.8,227.0156 205.8,227.375 Q205.8,227.7188 205.4563,228.125 Q204.9563,228.7188 204.1594,229.0469 Q203.1125,229.5 201.8313,229.5 Q200.3313,229.5 199.1281,228.9063 Q198.1594,228.4375 197.4719,227.4219 Q196.8,226.4063 196.8,225.2031 L196.8,224.1094 Q196.8,222.8594 197.3938,221.7656 Q198.0031,220.6719 199.05,220.0938 Q200.1125,219.5 201.3,219.5 Q202.0188,219.5 202.6438,219.75 Q203.2688,220 203.8,220.5 Z " fill="#000000"/><text fill="#000000" font-family="sans-serif" font-size="12" lengthAdjust="spacing" textLength="20" x="219.2" y="228.9102">City</text><line style="stroke:#A80036;stroke-width:1.5;" x1="172.5" x2="256.5" y1="240" y2="240"/><rect fill="none" height="6" style="stroke:#C82930;stroke-width:1.0;" width="6" x="179.5" y="248"/><text fill="#000000" font-family="sans-serif" font-size="11" lengthAdjust="spacing" textLength="60" x="191.5" y="255.4189">Identification</text><!--MD5=[deb4e1f6eb1e3c1256fdb830f96abfbb]
class Country--><rect codeLine="15" fill="#FEFECE" filter="url(#frr9olis88tm6)" height="40" id="Country" style="stroke:#A80036;stroke-width:1.5;" width="74" x="373.5" y="215"/><ellipse cx="388.5" cy="231" fill="#ADD1B2" rx="11" ry="11" style="stroke:#A80036;stroke-width:1.0;"/><path d="M390.5,227.5 Q390.7031,227 390.9375,226.75 Q391.1719,226.5 391.4375,226.5 Q391.9063,226.5 392.2031,226.7813 Q392.5,227.0625 392.5,227.7188 L392.5,229.2813 Q392.5,229.9375 392.2188,230.2188 Q391.9375,230.5 391.5,230.5 Q391.1094,230.5 390.8594,230.3281 Q390.6094,230.1563 390.5,229.7031 Q390.4531,229.3906 390.2813,229.2188 Q389.9688,228.8906 389.4063,228.7031 Q388.8438,228.5 388.2813,228.5 Q387.5781,228.5 386.9844,228.7813 Q386.4063,229.0625 385.9531,229.6875 Q385.5,230.3125 385.5,231.1719 L385.5,232.0938 Q385.5,233.125 386.3438,233.8125 Q387.1875,234.5 388.6875,234.5 Q389.5781,234.5 390.2031,234.2969 Q390.5625,234.1875 390.9688,233.8281 Q391.2344,233.625 391.375,233.5625 Q391.5156,233.5 391.6875,233.5 Q392.0156,233.5 392.25,233.7656 Q392.5,234.0156 392.5,234.375 Q392.5,234.7188 392.1563,235.125 Q391.6563,235.7188 390.8594,236.0469 Q389.8125,236.5 388.5313,236.5 Q387.0313,236.5 385.8281,235.9063 Q384.8594,235.4375 384.1719,234.4219 Q383.5,233.4063 383.5,232.2031 L383.5,231.1094 Q383.5,229.8594 384.0938,228.7656 Q384.7031,227.6719 385.75,227.0938 Q386.8125,226.5 388,226.5 Q388.7188,226.5 389.3438,226.75 Q389.9688,227 390.5,227.5 Z " fill="#000000"/><text fill="#000000" font-family="sans-serif" font-size="12" lengthAdjust="spacing" textLength="42" x="402.5" y="235.9102">Country</text><line style="stroke:#A80036;stroke-width:1.5;" x1="374.5" x2="446.5" y1="247" y2="247"/><!--MD5=[02e4b9b7573f1156f41e60aa5b4e25a4]
class Company--><rect codeLine="18" fill="#FEFECE" filter="url(#frr9olis88tm6)" height="40" id="Company" style="stroke:#A80036;stroke-width:1.5;" width="85" x="7" y="48.5"/><ellipse cx="22" cy="64.5" fill="#ADD1B2" rx="11" ry="11" style="stroke:#A80036;stroke-width:1.0;"/><path d="M24,61 Q24.2031,60.5 24.4375,60.25 Q24.6719,60 24.9375,60 Q25.4063,60 25.7031,60.2813 Q26,60.5625 26,61.2188 L26,62.7813 Q26,63.4375 25.7188,63.7188 Q25.4375,64 25,64 Q24.6094,64 24.3594,63.8281 Q24.1094,63.6563 24,63.2031 Q23.9531,62.8906 23.7813,62.7188 Q23.4688,62.3906 22.9063,62.2031 Q22.3438,62 21.7813,62 Q21.0781,62 20.4844,62.2813 Q19.9063,62.5625 19.4531,63.1875 Q19,63.8125 19,64.6719 L19,65.5938 Q19,66.625 19.8438,67.3125 Q20.6875,68 22.1875,68 Q23.0781,68 23.7031,67.7969 Q24.0625,67.6875 24.4688,67.3281 Q24.7344,67.125 24.875,67.0625 Q25.0156,67 25.1875,67 Q25.5156,67 25.75,67.2656 Q26,67.5156 26,67.875 Q26,68.2188 25.6563,68.625 Q25.1563,69.2188 24.3594,69.5469 Q23.3125,70 22.0313,70 Q20.5313,70 19.3281,69.4063 Q18.3594,68.9375 17.6719,67.9219 Q17,66.9063 17,65.7031 L17,64.6094 Q17,63.3594 17.5938,62.2656 Q18.2031,61.1719 19.25,60.5938 Q20.3125,60 21.5,60 Q22.2188,60 22.8438,60.25 Q23.4688,60.5 24,61 Z " fill="#000000"/><text fill="#000000" font-family="sans-serif" font-size="12" lengthAdjust="spacing" textLength="53" x="36" y="69.4102">Company</text><line style="stroke:#A80036;stroke-width:1.5;" x1="8" x2="91" y1="80.5" y2="80.5"/><!--MD5=[5fd98a8c03cc0e5a408f548eb1c0ace8]
link Company to Port--><path codeLine="20" d="M92.42,68.5 C114.97,68.5 142.69,68.5 166.01,68.5 " fill="none" id="Company-to-Port" style="stroke:#A80036;stroke-width:1.0;"/><polygon fill="#A80036" points="171.22,68.5,162.22,64.5,166.22,68.5,162.22,72.5,171.22,68.5" style="stroke:#A80036;stroke-width:1.0;"/><polygon fill="#000000" points="119.25,56.6758,110.2049,53.7369,110.2049,59.6147,119.25,56.6758" style="stroke:#000000;stroke-width:1.0;"/><text fill="#000000" font-family="sans-serif" font-size="13" lengthAdjust="spacing" textLength="30" x="123.25" y="61.9951">owns</text><!--MD5=[6900cde6e29c36fb11fc14463ba81928]
link Port to Port--><path codeLine="21" d="M257.81,49.97 C276.5,48.46 292.5,54.63 292.5,68.5 C292.5,81.07 279.36,87.32 262.99,87.25 " fill="none" id="Port-to-Port" style="stroke:#A80036;stroke-width:1.0;"/><polygon fill="#A80036" points="257.81,87.03,266.6179,91.4368,262.8048,87.2583,266.9833,83.4452,257.81,87.03" style="stroke:#A80036;stroke-width:1.0;"/><polygon fill="#000000" points="297.0974,73.6595,300.7551,64.8805,294.8964,64.4072,297.0974,73.6595" style="stroke:#000000;stroke-width:1.0;"/><text fill="#000000" font-family="sans-serif" font-size="13" lengthAdjust="spacing" textLength="80" x="311.5" y="73.9951">connects with</text><!--MD5=[0ed9c06870fbf7db98d9c74f1060a372]
link Port to City--><path codeLine="22" d="M214.5,130.29 C214.5,154.92 214.5,182.32 214.5,202.77 " fill="none" id="Port-to-City" style="stroke:#A80036;stroke-width:1.0;"/><polygon fill="#A80036" points="214.5,207.81,218.5,198.81,214.5,202.81,210.5,198.81,214.5,207.81" style="stroke:#A80036;stroke-width:1.0;"/><polygon fill="#000000" points="219.5,174.1758,222.4389,165.1307,216.5611,165.1307,219.5,174.1758" style="stroke:#000000;stroke-width:1.0;"/><text fill="#000000" font-family="sans-serif" font-size="13" lengthAdjust="spacing" textLength="80" x="228.5" y="174.4951">connects with</text><!--MD5=[f84ad2485fa1c7cb232e50f78ea364d8]
link City to Country--><path codeLine="23" d="M257.51,235 C290.35,235 335.37,235 368.06,235 " fill="none" id="City-to-Country" style="stroke:#A80036;stroke-width:1.0;"/><polygon fill="#A80036" points="373.2,235,364.2,231,368.2,235,364.2,239,373.2,235" style="stroke:#A80036;stroke-width:1.0;"/><polygon fill="#000000" points="285,223.1758,275.9549,220.2369,275.9549,226.1147,285,223.1758" style="stroke:#000000;stroke-width:1.0;"/><text fill="#000000" font-family="sans-serif" font-size="13" lengthAdjust="spacing" textLength="66" x="289" y="228.4951">is inside an</text><!--MD5=[740b4ad2c423290e84cc16cec7fe2f43]
@startuml
hide methods

class Port{
-Identification
-Name
-Continent
-Country
-Location
-Capacity
}

class City{
-Identification
}
class Country{
}

class Company{
}
Company -> Port : owns >
Port - -> Port : connects with >
Port - -> City : connects with >
City -> Country : is inside an >
@enduml

PlantUML version 1.2021.16(Wed Dec 08 17:25:22 GMT 2021)
(GPL source distribution)
Java Runtime: OpenJDK Runtime Environment
JVM: OpenJDK 64-Bit Server VM
Default Encoding: Cp1252
Language: pt
Country: PT
--></g></svg>